<?xml version="1.0" encoding="UTF-8" standalone="no"?>
<!DOCTYPE svg PUBLIC "-//W3C//DTD SVG 1.1//EN" "http://www.w3.org/Graphics/SVG/1.1/DTD/svg11.dtd">
<svg width="100%" height="100%" viewBox="0 0 24 24" version="1.1" xmlns="http://www.w3.org/2000/svg"
    xmlns:xlink="http://www.w3.org/1999/xlink" xml:space="preserve" xmlns:serif="http://www.serif.com/"
    style="fill-rule:evenodd;clip-rule:evenodd;stroke-linecap:round;stroke-linejoin:round;stroke-miterlimit:10;">
    <g transform="matrix(1,0,0,1,-27,0)">
        <g id="adaptive" transform="matrix(0.198347,0,0,0.198347,68.2562,1.40406)">
            <rect x="-208" y="-7" width="121" height="121" style="fill:none;" />
            <g transform="matrix(1.21,0,0,1.21,-480.25,-7)">
                <path
                    d="M271.845,27.64C271.845,27.64 269.887,40.482 268.991,46.424C269.912,48.986 271.545,53.149 270.908,58.249C269.92,66.103 267.566,70.878 268.637,75.861C268.691,77.661 268.533,79.724 267.974,81.932C267.874,82.311 267.77,82.682 267.658,83.04L244.512,83.04C244.224,82.636 243.599,81.661 243.633,80.361C243.633,80.361 243.67,79.074 244.512,77.924C246.524,75.19 250.728,76.478 255.837,74.153C256.333,73.928 257.816,73.174 258.645,71.461C259.091,70.545 259.183,69.699 259.195,69.165C258.491,62.69 257.791,56.22 257.087,49.745C256.674,49.407 254.899,47.886 254.524,45.232C254.108,42.236 255.787,40.103 256.07,39.749L252.47,16.982C254.866,17.64 257.524,18.578 260.303,19.924C264.933,22.161 268.945,25.099 271.845,27.64Z"
                    style="fill:none;stroke:currentColor;stroke-width:4.17px;" />
            </g>
            <g transform="matrix(1.21,0,0,1.21,-480.25,-7)">
                <path
                    d="M295.835,74.858C301.635,76.599 302.343,76.974 305.489,77.924C306.852,78.337 306.368,80.362 306.368,80.362C306.402,81.662 305.777,82.637 305.489,83.041L282.343,83.041C282.231,82.683 282.127,82.312 282.027,81.933C281.464,79.724 281.481,76.658 281.535,74.858L295.835,74.858"
                    style="fill:none;stroke:currentColor;stroke-width:4.17px;" />
            </g>
            <g transform="matrix(0,5.04167,5.04167,0,-130.102,80.0656)">
                <path d="M-0.696,-0.632L0.697,-0.632"
                    style="fill:none;fill-rule:nonzero;stroke:currentColor;stroke-width:1px;" />
            </g>
            <g transform="matrix(1.21,0,0,1.21,-480.25,-7)">
                <path
                    d="M290.804,69.055C291.508,62.58 292.208,56.217 292.913,49.742L292.912,49.744C291.17,49.96 288.316,50.531 285.228,52.252C282.12,53.981 280.195,56.873 279.095,58.248L279.093,58.248C279.648,62.665 280.679,65.997 281.25,69.055L290.804,69.055Z"
                    style="fill:none;stroke:currentColor;stroke-width:4.17px;" />
            </g>
            <g transform="matrix(0,-5.04167,-5.04167,0,-131.567,58.276)">
                <path
                    d="M-0.375,-0.375C-0.582,-0.375 -0.75,-0.207 -0.75,0C-0.75,0.207 -0.582,0.375 -0.375,0.375C-0.168,0.375 0,0.207 0,0C0,-0.207 -0.168,-0.375 -0.375,-0.375"
                    style="fill-rule:nonzero;" />
            </g>
            <g transform="matrix(1.21,0,0,1.21,-480.25,-7)">
                <path
                    d="M280.802,45.048C281.957,45.377 283.769,45.915 286.686,45.135C291.102,43.952 293.376,40.623 293.93,39.752L293.93,39.751L297.538,16.96C295.138,17.618 292.472,18.56 289.676,19.91C285.072,22.139 281.072,25.06 278.168,27.593L280.802,45.048Z"
                    style="fill:none;stroke:currentColor;stroke-width:4.17px;" />
            </g>
            <g transform="matrix(0,5.04167,5.04167,0,-130.102,50.9802)">
                <path d="M-0.671,-0.632L0.856,-0.632"
                    style="fill:none;fill-rule:nonzero;stroke:currentColor;stroke-width:1px;" />
            </g>
            <g transform="matrix(0,-5.04167,-5.04167,0,-134.551,86.6379)">
                <path
                    d="M-0.375,-0.375C-0.582,-0.375 -0.75,-0.207 -0.75,0C-0.75,0.208 -0.582,0.375 -0.375,0.375C-0.168,0.375 0,0.208 0,0C0,-0.207 -0.168,-0.375 -0.375,-0.375"
                    style="fill-rule:nonzero;" />
            </g>
        </g>
    </g>
</svg>