<svg xmlns="http://www.w3.org/2000/svg" viewBox="0 0 24 24"><title>Autumn</title><path d="M12,12a5.07,5.07,0,0,1-1.63-.75A4.41,4.41,0,0,1,9.06,9.76v-3" style="fill:none;stroke:#000;stroke-linecap:round;stroke-linejoin:round"/><path d="M15,6.72v3a4.52,4.52,0,0,1-1.32,1.48A5.07,5.07,0,0,1,12,12" style="fill:none;stroke:#000;stroke-linecap:round;stroke-linejoin:round"/><line x1="13.59" y1="11.26" x2="13.59" y2="12.63" style="fill:none;stroke:#000;stroke-linecap:round;stroke-linejoin:round"/><path d="M6.61,14l-1,.13a.67.67,0,0,0-.43.27.71.71,0,0,0-.16.48v2.93a17.36,17.36,0,0,1,3.44,1.28A17,17,0,0,1,12,21.45" style="fill:none;stroke:#000;stroke-linecap:round;stroke-linejoin:round"/><line x1="10.42" y1="11.26" x2="10.42" y2="12.63" style="fill:none;stroke:#000;stroke-linecap:round;stroke-linejoin:round"/><path d="M12,5.22H9.42a5.08,5.08,0,0,0-.62.85,4.07,4.07,0,0,0-.3.65H12" style="fill:none;stroke:#000;stroke-linecap:round;stroke-linejoin:round"/><path d="M12,5.22h2.58a4.57,4.57,0,0,1,.62.85,5.36,5.36,0,0,1,.31.65H12" style="fill:none;stroke:#000;stroke-linecap:round;stroke-linejoin:round"/><path d="M9.42,5.22C9.07,5.06,8.5,4.59,8.66,4a2.36,2.36,0,0,1,.84-.94A3.91,3.91,0,0,1,12,2.55" style="fill:none;stroke:#000;stroke-linecap:round;stroke-linejoin:round"/><path d="M14.58,5.22c.35-.16.93-.63.76-1.22a2.29,2.29,0,0,0-.84-.94A3.89,3.89,0,0,0,12,2.55" style="fill:none;stroke:#000;stroke-linecap:round;stroke-linejoin:round"/><path d="M14,14.37a2.65,2.65,0,0,1-2,1.1,2.64,2.64,0,0,1-2-1.1v-2a3.26,3.26,0,0,0,2,.74,3.19,3.19,0,0,0,2-.74Z" style="fill:none;stroke:#000;stroke-linecap:round;stroke-linejoin:round"/><path d="M10,12.35,6.61,14,8.5,15.47,7.44,17l3.3,3.5c0-.32-.08-.82-.12-1.44-.09-1.37-.14-2.61-.14-2.61A7.83,7.83,0,0,0,10,14.37" style="fill:none;stroke:#000;stroke-linecap:round;stroke-linejoin:round"/><path d="M17.4,14l1,.13a.66.66,0,0,1,.44.27.71.71,0,0,1,.16.48v2.93a17.66,17.66,0,0,0-3.45,1.28A17.29,17.29,0,0,0,12,21.45" style="fill:none;stroke:#000;stroke-linecap:round;stroke-linejoin:round"/><path d="M14,12.35,17.4,14l-1.9,1.44L16.56,17l-3.29,3.5c0-.32.08-.82.12-1.44.09-1.37.14-2.61.14-2.61A7.83,7.83,0,0,1,14,14.37" style="fill:none;stroke:#000;stroke-linecap:round;stroke-linejoin:round"/></svg>