<?xml version="1.0" encoding="UTF-8" standalone="no"?>
<!DOCTYPE svg PUBLIC "-//W3C//DTD SVG 1.1//EN" "http://www.w3.org/Graphics/SVG/1.1/DTD/svg11.dtd">
<svg width="100%" height="100%" viewBox="0 0 24 24" version="1.1" xmlns="http://www.w3.org/2000/svg"
    xmlns:xlink="http://www.w3.org/1999/xlink" xml:space="preserve" xmlns:serif="http://www.serif.com/"
    style="fill-rule:evenodd;clip-rule:evenodd;stroke-linecap:round;stroke-linejoin:round;stroke-miterlimit:10;">
    <g transform="matrix(1,0,0,1,-80,0)">
        <g id="bohemian" transform="matrix(0.198347,0,0,0.198347,121.51,1.40406)">
            <rect x="-208" y="-7" width="121" height="121" style="fill:none;" />
            <g transform="matrix(1.21,0,0,1.21,-208,-143.125)">
                <path
                    d="M32.174,139.579C32.62,142.3 33.007,146.546 31.99,151.471C30.607,158.183 27.686,161.025 24.653,169.167C23.586,172.025 22.234,176.283 21.338,181.767C24.846,182.267 29.738,183.362 35.08,185.921C39.259,187.925 43.232,190.722 46.07,193.06C46.253,189.76 46.374,185.277 46.128,180.01C45.557,167.731 43.536,162.597 43.07,153.668C42.774,147.972 43.057,139.739 45.965,129.535C45.432,129.543 42.39,129.564 40.011,127.164C38.057,125.197 37.778,122.831 37.72,122.16L30.149,124.839C29.557,125.073 28.603,125.543 27.699,126.448C26.59,127.552 26.103,128.739 25.89,129.377C25.895,138.589 24.545,150.577 19.111,163.223C17.957,165.918 16.707,168.423 15.415,170.735C17.87,172.177 20.324,173.614 22.778,175.052"
                    style="fill:none;stroke:currentColor;stroke-width:4.17px;" />
            </g>
            <g transform="matrix(-1.21,0,0,1.21,-87,-143.125)">
                <path
                    d="M32.174,139.579C32.62,142.3 33.007,146.546 31.99,151.471C30.607,158.183 27.686,161.025 24.653,169.167C23.586,172.025 22.234,176.283 21.338,181.767C24.846,182.267 29.738,183.362 35.08,185.921C39.259,187.925 43.232,190.722 46.07,193.06C46.253,189.76 46.374,185.277 46.128,180.01C45.557,167.731 43.536,162.597 43.07,153.668C42.774,147.972 43.057,139.739 45.965,129.535C45.432,129.543 42.39,129.564 40.011,127.164C38.057,125.197 37.778,122.831 37.72,122.16L30.149,124.839C29.557,125.073 28.603,125.543 27.699,126.448C26.59,127.552 26.103,128.739 25.89,129.377C25.895,138.589 24.545,150.577 19.111,163.223C17.957,165.918 16.707,168.423 15.415,170.735C17.87,172.177 20.324,173.614 22.778,175.052"
                    style="fill:none;stroke:currentColor;stroke-width:4.17px;" />
            </g>
            <g transform="matrix(-5.04167,0,0,5.04167,-139.056,33.9918)">
                <path d="M0,0.343C-0.254,0.413 -0.834,0.538 -1.516,0.335C-1.98,0.197 -2.308,-0.037 -2.495,-0.195"
                    style="fill:none;fill-rule:nonzero;stroke:currentColor;stroke-width:1px;" />
            </g>
            <g transform="matrix(-5.04167,0,0,5.04167,-138.061,46.8178)">
                <path d="M0.301,0.291C0.047,0.362 -0.834,0.537 -1.516,0.335C-1.98,0.197 -2.539,-0.193 -2.726,-0.351"
                    style="fill:none;fill-rule:nonzero;stroke:currentColor;stroke-width:1px;" />
            </g>
            <g transform="matrix(0,5.04167,-5.04167,0,-118.958,82.8727)">
                <path d="M-1.202,-1.218L1.202,-1.218"
                    style="fill:none;fill-rule:nonzero;stroke:currentColor;stroke-width:1px;" />
            </g>
            <g transform="matrix(0,5.04167,-5.04167,0,-128.844,85.2459)">
                <path d="M-1.202,-1.202L1.202,-1.202"
                    style="fill:none;fill-rule:nonzero;stroke:currentColor;stroke-width:1px;" />
            </g>
            <g transform="matrix(0,5.04167,-5.04167,0,-138.514,89.564)">
                <path d="M-1.187,-1.141L1.202,-1.118"
                    style="fill:none;fill-rule:nonzero;stroke:currentColor;stroke-width:1px;" />
            </g>
            <g transform="matrix(0,5.04167,-5.04167,0,-148.538,96.2498)">
                <path d="M-1.145,-1.149L1.259,-1.149"
                    style="fill:none;fill-rule:nonzero;stroke:currentColor;stroke-width:1px;" />
            </g>
            <g transform="matrix(1.21,0,0,1.21,-208,-143.125)">
                <path
                    d="M55.372,134.896C55.219,135.105 53.266,137.656 50,137.648C46.734,137.656 44.781,135.105 44.628,134.896"
                    style="fill:none;stroke:currentColor;stroke-width:4.17px;" />
            </g>
            <g transform="matrix(1.21,0,0,1.21,-208,-143.125)">
                <path d="M54.448,172.637L45.552,172.637" style="fill:none;stroke:currentColor;stroke-width:4.17px;" />
            </g>
            <g transform="matrix(5.04167,0,0,5.04167,-155.944,33.9918)">
                <path d="M0,0.343C-0.254,0.413 -0.834,0.538 -1.516,0.335C-1.98,0.197 -2.308,-0.037 -2.495,-0.195"
                    style="fill:none;fill-rule:nonzero;stroke:currentColor;stroke-width:1px;" />
            </g>
            <g transform="matrix(5.04167,0,0,5.04167,-156.939,46.8178)">
                <path d="M0.301,0.291C0.047,0.362 -0.834,0.537 -1.516,0.335C-1.98,0.197 -2.539,-0.193 -2.726,-0.351"
                    style="fill:none;fill-rule:nonzero;stroke:currentColor;stroke-width:1px;" />
            </g>
            <g transform="matrix(0,5.04167,5.04167,0,-176.042,82.8727)">
                <path d="M-1.202,-1.218L1.202,-1.218"
                    style="fill:none;fill-rule:nonzero;stroke:currentColor;stroke-width:1px;" />
            </g>
            <g transform="matrix(0,5.04167,5.04167,0,-166.156,85.2459)">
                <path d="M-1.202,-1.202L1.202,-1.202"
                    style="fill:none;fill-rule:nonzero;stroke:currentColor;stroke-width:1px;" />
            </g>
            <g transform="matrix(0,5.04167,5.04167,0,-156.486,89.564)">
                <path d="M-1.187,-1.141L1.202,-1.118"
                    style="fill:none;fill-rule:nonzero;stroke:currentColor;stroke-width:1px;" />
            </g>
            <g transform="matrix(0,5.04167,5.04167,0,-146.462,96.2498)">
                <path d="M-1.145,-1.149L1.259,-1.149"
                    style="fill:none;fill-rule:nonzero;stroke:currentColor;stroke-width:1px;" />
            </g>
        </g>
    </g>
</svg>