<svg xmlns="http://www.w3.org/2000/svg" fill-rule="evenodd" stroke-linecap="round" stroke-linejoin="round" stroke-miterlimit="10" clip-rule="evenodd" viewBox="0 0 24 24" xml:space="preserve"><path fill="none" d="M0-48h240v240H0z"/><g fill="none" stroke="currentColor"><path d="M7.722 6.471c.107.653.2 1.672-.044 2.854-.332 1.611-1.033 2.293-1.761 4.247a15.998 15.998 0 0 0-.796 3.024c.842.12 2.016.383 3.298.997 1.003.481 1.957 1.152 2.638 1.713.044-.792.073-1.868.014-3.132-.137-2.947-.622-4.179-.734-6.322-.071-1.367-.003-3.343.695-5.792-.128.002-.858.007-1.429-.569a1.96 1.96 0 0 1-.55-1.201l-1.817.643a1.738 1.738 0 0 0-.588.386c-.266.265-.383.55-.434.703.001 2.211-.323 5.088-1.627 8.123a19.167 19.167 0 0 1-.887 1.803l1.767 1.036m10.811-8.513c-.107.653-.2 1.672.044 2.854.332 1.611 1.033 2.293 1.761 4.247.256.686.581 1.708.796 3.024-.842.12-2.016.383-3.298.997-1.003.481-1.957 1.152-2.638 1.713a30.733 30.733 0 0 1-.014-3.132c.137-2.947.622-4.179.734-6.322.071-1.367.003-3.343-.695-5.792.128.002.858.007 1.429-.569a1.96 1.96 0 0 0 .55-1.201l1.817.643c.142.056.371.169.588.386.266.265.383.55.434.703-.001 2.211.323 5.088 1.627 8.123.277.647.577 1.248.887 1.803l-1.767 1.036"/><path d="M13.675 8.445c.254.07.834.195 1.516-.008.464-.138.792-.372.979-.53m-2.599 3.03c.254.071 1.135.246 1.817.044.464-.138 1.023-.528 1.21-.686m2.281 6.301V19m-1.977-1.934v2.404m-1.979-1.533-.023 2.39m-1.957-1.021v2.404m.346-16.363c-.036.05-.505.662-1.289.66-.784.002-1.253-.61-1.289-.66m2.357 9.058h-2.136m-.607-5.96c-.254.07-.834.195-1.516-.008a2.725 2.725 0 0 1-.979-.53m2.599 3.03c-.254.071-1.135.246-1.817.044-.464-.138-1.023-.528-1.21-.686m-2.281 6.301V19m1.977-1.934v2.404m1.979-1.533.023 2.39m1.957-1.021v2.404"/></g><path fill="none" stroke="currentColor" d="m32.199 3.202-1.629.686a1.73 1.73 0 0 0-1.065 1.597v10.838h.676"/></svg>