<svg xmlns="http://www.w3.org/2000/svg" width="24" height="24" viewBox="0 0 24 24"><title>Boho</title><path d="M5.12,16.62a11.5,11.5,0,0,1,3.3,1A13,13,0,0,1,11,19.28" fill="none" stroke="#000" stroke-linecap="round" stroke-linejoin="round" stroke-width="1.02"/><path d="M18.88,16.62a11.5,11.5,0,0,0-3.3,1A13,13,0,0,0,13,19.33" fill="none" stroke="#000" stroke-linecap="round" stroke-linejoin="round" stroke-width="1.02"/><path d="M9.05,2.32a2,2,0,0,0,.55,1.2A2,2,0,0,0,11,4.09a17.52,17.52,0,0,0-.69,5.79c.11,2.14.59,3.37.73,6.32.06,1.27,0,2.34,0,3.13" fill="none" stroke="#000" stroke-linecap="round" stroke-linejoin="round" stroke-width="1.02"/><path d="M7.72,6.5a7.82,7.82,0,0,1,0,2.85c-.33,1.61-1,2.3-1.76,4.25a16.19,16.19,0,0,0-.8,3" fill="none" stroke="#000" stroke-linecap="round" stroke-linejoin="round" stroke-width="1.02"/><path d="M9.05,2.32,7.24,3a1.82,1.82,0,0,0-1,1.09,20.53,20.53,0,0,1-1.62,8.12C4.31,12.82,4,13.42,3.7,14l1.77,1" fill="none" stroke="#000" stroke-linecap="round" stroke-linejoin="round" stroke-width="1.02"/><path d="M15,2.32a2,2,0,0,1-.55,1.2A2,2,0,0,1,13,4.09a17.52,17.52,0,0,1,.69,5.79c-.11,2.14-.59,3.37-.73,6.32-.06,1.27,0,2.34,0,3.13" fill="none" stroke="#000" stroke-linecap="round" stroke-linejoin="round" stroke-width="1.02"/><path d="M16.28,6.5a7.82,7.82,0,0,0,0,2.85c.33,1.61,1,2.3,1.76,4.25a16.19,16.19,0,0,1,.8,3" fill="none" stroke="#000" stroke-linecap="round" stroke-linejoin="round" stroke-width="1.02"/><path d="M15,2.32,16.76,3a1.28,1.28,0,0,1,.78.47,1.33,1.33,0,0,1,.25.62,20.53,20.53,0,0,0,1.62,8.12c.28.65.58,1.25.89,1.81l-1.77,1" fill="none" stroke="#000" stroke-linecap="round" stroke-linejoin="round" stroke-width="1.02"/><path d="M10.71,5.39A1.7,1.7,0,0,0,12.09,6a1.64,1.64,0,0,0,1.18-.64" fill="none" stroke="#000" stroke-linecap="round" stroke-linejoin="round" stroke-width="1.02"/><line x1="10.99" y1="14.44" x2="12.95" y2="14.44" fill="none" stroke="#000" stroke-linecap="round" stroke-linejoin="round" stroke-width="1.02"/><path d="M13.67,8.47a2.78,2.78,0,0,0,1.52,0,3,3,0,0,0,1-.53" fill="none" stroke="#000" stroke-linecap="round" stroke-linejoin="round" stroke-width="1.02"/><path d="M13.87,11a2.72,2.72,0,0,0,2.5-.54" fill="none" stroke="#000" stroke-linecap="round" stroke-linejoin="round" stroke-width="1.02"/><path d="M10.33,8.47a2.78,2.78,0,0,1-1.52,0,3,3,0,0,1-1-.53" fill="none" stroke="#000" stroke-linecap="round" stroke-linejoin="round" stroke-width="1.02"/><path d="M10.13,11a2.72,2.72,0,0,1-2.5-.54" fill="none" stroke="#000" stroke-linecap="round" stroke-linejoin="round" stroke-width="1.02"/><line x1="5.14" y1="16.62" x2="5.14" y2="19.03" fill="none" stroke="#000" stroke-linecap="round" stroke-linejoin="round" stroke-width="1.02"/><line x1="7.1" y1="17.09" x2="7.1" y2="19.5" fill="none" stroke="#000" stroke-linecap="round" stroke-linejoin="round" stroke-width="1.02"/><line x1="9.02" y1="17.95" x2="9.02" y2="20.36" fill="none" stroke="#000" stroke-linecap="round" stroke-linejoin="round" stroke-width="1.02"/><line x1="11" y1="19.28" x2="11" y2="21.68" fill="none" stroke="#000" stroke-linecap="round" stroke-linejoin="round" stroke-width="1.02"/><line x1="18.86" y1="16.62" x2="18.86" y2="19.03" fill="none" stroke="#000" stroke-linecap="round" stroke-linejoin="round" stroke-width="1.02"/><line x1="16.9" y1="17.09" x2="16.9" y2="19.5" fill="none" stroke="#000" stroke-linecap="round" stroke-linejoin="round" stroke-width="1.02"/><line x1="14.98" y1="17.95" x2="14.98" y2="20.36" fill="none" stroke="#000" stroke-linecap="round" stroke-linejoin="round" stroke-width="1.02"/><line x1="13" y1="19.28" x2="13" y2="21.68" fill="none" stroke="#000" stroke-linecap="round" stroke-linejoin="round" stroke-width="1.02"/></svg>