<?xml version="1.0" encoding="UTF-8" standalone="no"?>
<!DOCTYPE svg PUBLIC "-//W3C//DTD SVG 1.1//EN" "http://www.w3.org/Graphics/SVG/1.1/DTD/svg11.dtd">
<svg width="100%" height="100%" viewBox="0 0 24 24" version="1.1" xmlns="http://www.w3.org/2000/svg"
    xmlns:xlink="http://www.w3.org/1999/xlink" xml:space="preserve" xmlns:serif="http://www.serif.com/"
    style="fill-rule:evenodd;clip-rule:evenodd;stroke-linecap:round;stroke-linejoin:round;stroke-miterlimit:10;">
    <g transform="matrix(1,0,0,1,-80,-27)">
        <g id="bridal" transform="matrix(0.198347,0,0,0.198347,121.956,28.3884)">
            <rect x="-208" y="-7" width="121" height="121" style="fill:none;" />
            <g transform="matrix(5.04167,0,0,5.04167,-147.49,30.0739)">
                <path d="M0,5.272C-0.388,5.172 -1.001,4.965 -1.625,4.52C-2.362,3.993 -2.756,3.388 -2.945,3.042L-2.945,0"
                    style="fill:none;fill-rule:nonzero;stroke:currentColor;stroke-width:1px;" />
            </g>
            <g transform="matrix(5.04167,0,0,5.04167,-132.675,56.6536)">
                <path d="M0,-5.272L0,-2.23C-0.189,-1.884 -0.583,-1.279 -1.32,-0.752C-1.943,-0.307 -2.558,-0.1 -2.944,0"
                    style="fill:none;fill-rule:nonzero;stroke:currentColor;stroke-width:1px;" />
            </g>
            <g transform="matrix(5.04167,0,0,5.04167,-147.5,75.4444)">
                <path
                    d="M0,2.416C-0.091,2.081 -0.294,1.541 -0.777,1.062C-1.774,0.077 -3.606,-0.294 -4.452,0.391C-5.143,0.95 -5.372,1.527 -5.015,2.71"
                    style="fill:none;fill-rule:nonzero;stroke:currentColor;stroke-width:1px;" />
            </g>
            <g transform="matrix(5.04167,0,0,5.04167,-162.34,23.611)">
                <path d="M0,1.051C0.291,0.814 1.358,0 2.947,0.002C4.53,0.004 5.593,0.813 5.884,1.051"
                    style="fill:none;fill-rule:nonzero;stroke:currentColor;stroke-width:1px;" />
            </g>
            <g transform="matrix(5.04167,0,0,5.04167,-162.098,68.6452)">
                <path
                    d="M0.201,-11.196C-0.418,-10.339 -1.325,-8.842 -1.919,-7.419C-2.83,-5.232 -3.057,-4.453 -4.035,-2.835C-4.556,-1.975 -5.582,-0.912 -6.904,0"
                    style="fill:none;fill-rule:nonzero;stroke:currentColor;stroke-width:1px;" />
            </g>
            <g transform="matrix(0,-5.04167,-5.04167,0,-147.499,2.69966)">
                <ellipse cx="-1.017" cy="0" rx="1.018" ry="1.017"
                    style="fill:none;stroke:currentColor;stroke-width:1px;" />
            </g>
            <g transform="matrix(0,-5.04167,-5.04167,0,-136.585,5.40653)">
                <ellipse cx="-0.778" cy="0" rx="0.777" ry="0.778"
                    style="fill:none;stroke:currentColor;stroke-width:1px;" />
            </g>
            <g transform="matrix(0,-5.04167,-5.04167,0,-158.416,5.40653)">
                <ellipse cx="-0.778" cy="0" rx="0.777" ry="0.778"
                    style="fill:none;stroke:currentColor;stroke-width:1px;" />
            </g>
            <g transform="matrix(5.04167,0,0,5.04167,-132.902,68.6452)">
                <path
                    d="M-0.201,-11.197C0.418,-10.34 1.325,-8.842 1.919,-7.419C2.83,-5.232 3.057,-4.453 4.035,-2.835C4.556,-1.975 5.582,-0.912 6.904,0"
                    style="fill:none;fill-rule:nonzero;stroke:currentColor;stroke-width:1px;" />
            </g>
            <g transform="matrix(5.04167,0,0,5.04167,-155.57,104.303)">
                <path
                    d="M0,-10.187L0,-7.964C0,-7.964 -2.476,-7.656 -4.075,-7.457C-4.83,-7.363 -5.395,-6.718 -5.389,-5.957C-5.382,-4.905 -5.372,-3.613 -5.372,-3.613C-4.402,-3.367 -3.213,-2.974 -1.927,-2.332C-0.423,-1.581 0.76,-0.722 1.601,0"
                    style="fill:none;fill-rule:nonzero;stroke:currentColor;stroke-width:1px;" />
            </g>
            <g transform="matrix(-5.04167,0,0,5.04167,-174.672,104.303)">
                <path
                    d="M-6.99,-10.187L-6.99,-7.964C-6.99,-7.964 -9.466,-7.656 -11.065,-7.457C-11.82,-7.363 -12.385,-6.718 -12.38,-5.957C-12.372,-4.905 -12.362,-3.613 -12.362,-3.613C-11.392,-3.367 -10.203,-2.974 -8.917,-2.332C-7.413,-1.581 -6.231,-0.722 -5.39,0"
                    style="fill:none;fill-rule:nonzero;stroke:currentColor;stroke-width:1px;" />
            </g>
            <g transform="matrix(5.04167,0,0,5.04167,-147.5,75.4444)">
                <path
                    d="M0,2.416C0.091,2.081 0.294,1.541 0.777,1.062C1.774,0.077 3.606,-0.294 4.452,0.391C5.143,0.95 5.372,1.527 5.015,2.71"
                    style="fill:none;fill-rule:nonzero;stroke:currentColor;stroke-width:1px;" />
            </g>
        </g>
    </g>
</svg>