<svg xmlns="http://www.w3.org/2000/svg" fill-rule="evenodd" stroke-linecap="round" stroke-linejoin="round" stroke-miterlimit="10" clip-rule="evenodd" viewBox="0 0 24 24" xml:space="preserve"><path fill="none" d="M0-192h240V48H0z"/><g fill="none" stroke="currentColor"><path d="M12.002 12.626a4.923 4.923 0 0 1-1.625-.752 4.438 4.438 0 0 1-1.32-1.478V7.354"/><path d="M14.94 7.354v3.042a4.438 4.438 0 0 1-1.32 1.478 4.93 4.93 0 0 1-1.624.752M12 18.769a3.009 3.009 0 0 0-.777-1.354c-.997-.985-2.829-1.356-3.675-.671-.691.559-.92 1.136-.563 2.319m2.072-11.94a4.711 4.711 0 0 1 2.947-1.049 4.71 4.71 0 0 1 2.937 1.049M9.305 3.808c-.619.857-1.526 2.354-2.12 3.777-.911 2.187-1.138 2.966-2.116 4.584-.521.86-1.547 1.923-2.869 2.835"/><path d="M13.018 2.941A1.019 1.019 0 1 0 12 3.959c.562 0 1.018-.456 1.018-1.018zm1.924.297a.777.777 0 1 0-1.554 0 .777.777 0 0 0 1.554 0zm-4.33 0a.777.777 0 1 0-1.554 0 .777.777 0 0 0 1.554 0z"/><path d="M14.695 3.807c.619.857 1.526 2.355 2.12 3.778.911 2.187 1.138 2.966 2.116 4.584.521.86 1.547 1.923 2.869 2.835m-11.401-3.115v2.224l-4.074.507a1.499 1.499 0 0 0-1.315 1.499l.017 2.345A17.35 17.35 0 0 1 12 22.077m1.601-10.188v2.224l4.074.507a1.499 1.499 0 0 1 1.315 1.499l-.017 2.345A17.35 17.35 0 0 0 12 22.077"/><path d="M12 18.769c.091-.335.294-.875.777-1.354.997-.985 2.829-1.356 3.675-.671.691.559.92 1.136.563 2.319"/></g></svg>