<?xml version="1.0" encoding="UTF-8" standalone="no"?>
<!DOCTYPE svg PUBLIC "-//W3C//DTD SVG 1.1//EN" "http://www.w3.org/Graphics/SVG/1.1/DTD/svg11.dtd">
<svg width="100%" height="100%" viewBox="0 0 24 24" version="1.1" xmlns="http://www.w3.org/2000/svg"
    xmlns:xlink="http://www.w3.org/1999/xlink" xml:space="preserve" xmlns:serif="http://www.serif.com/"
    style="fill-rule:evenodd;clip-rule:evenodd;stroke-linecap:round;stroke-linejoin:round;stroke-miterlimit:10;">
    <g transform="matrix(1,0,0,1,-133,-27)">
        <g id="children" transform="matrix(0.198347,0,0,0.198347,175.222,28.3884)">
            <rect x="-208" y="-7" width="121" height="121" style="fill:none;" />
            <g transform="matrix(5.04167,0,0,5.04167,-128.978,42.5021)">
                <path d="M0,-0.595C-0.327,-1.058 -0.932,-1.198 -1.367,-0.963C-1.875,-0.69 -2.07,0.048 -1.69,0.603"
                    style="fill:none;fill-rule:nonzero;stroke:currentColor;stroke-width:1px;" />
            </g>
            <g transform="matrix(5.04167,0,0,5.04167,-137.5,55.5817)">
                <path d="M0,-1.991C-0.02,-1.942 -0.358,-1.054 0.162,-0.411C0.353,-0.176 0.59,-0.058 0.746,0"
                    style="fill:none;fill-rule:nonzero;stroke:currentColor;stroke-width:1px;" />
            </g>
            <g transform="matrix(5.04167,0,0,5.04167,-119.406,42.5021)">
                <path d="M0,-0.595C0.327,-1.058 0.932,-1.198 1.367,-0.963C1.875,-0.69 2.07,0.048 1.69,0.603"
                    style="fill:none;fill-rule:nonzero;stroke:currentColor;stroke-width:1px;" />
            </g>
            <g transform="matrix(5.04167,0,0,5.04167,-110.884,55.5817)">
                <path d="M0,-1.991C0.02,-1.942 0.358,-1.054 -0.162,-0.411C-0.353,-0.176 -0.589,-0.058 -0.746,0"
                    style="fill:none;fill-rule:nonzero;stroke:currentColor;stroke-width:1px;" />
            </g>
            <g transform="matrix(5.04167,0,0,5.04167,-128.978,39.5023)">
                <path d="M0,0L1.898,0" style="fill:none;fill-rule:nonzero;stroke:currentColor;stroke-width:1px;" />
            </g>
            <g transform="matrix(5.04167,0,0,5.04167,-133.739,57.0448)">
                <path d="M0,-0.29C0.456,-0.155 1.095,-0.019 1.862,-0.01C2.705,0 3.4,-0.148 3.88,-0.29"
                    style="fill:none;fill-rule:nonzero;stroke:currentColor;stroke-width:1px;" />
            </g>
            <g transform="matrix(5.04167,0,0,5.04167,-125.546,48.8718)">
                <path d="M0,0L0.538,0" style="fill:none;fill-rule:nonzero;stroke:currentColor;stroke-width:1px;" />
            </g>
            <g transform="matrix(0,-5.04167,-5.04167,0,-132.597,67.4226)">
                <circle cx="-0.883" cy="0" r="0.883" style="fill:none;stroke:currentColor;stroke-width:1px;" />
            </g>
            <g transform="matrix(0,-5.04167,-5.04167,0,-115.784,67.4226)">
                <circle cx="-0.883" cy="0" r="0.883" style="fill:none;stroke:currentColor;stroke-width:1px;" />
            </g>
            <g transform="matrix(5.04167,0,0,5.04167,-136.068,71.6621)">
                <path d="M0,-3.285C-0.109,-3.189 -0.53,-2.493 -0.525,-1.453C-0.521,-0.639 -0.373,-0.147 -0.245,0"
                    style="fill:none;fill-rule:nonzero;stroke:currentColor;stroke-width:1px;" />
            </g>
            <g transform="matrix(5.04167,0,0,5.04167,-112.317,71.4504)">
                <path d="M0,-3.285C0.11,-3.189 0.53,-2.493 0.525,-1.453C0.521,-0.639 0.373,-0.147 0.245,0"
                    style="fill:none;fill-rule:nonzero;stroke:currentColor;stroke-width:1px;" />
            </g>
            <g transform="matrix(5.04167,0,0,5.04167,-128.205,72.5883)">
                <path d="M0,0L1.592,0" style="fill:none;fill-rule:nonzero;stroke:currentColor;stroke-width:1px;" />
            </g>
            <g transform="matrix(5.04167,0,0,5.04167,-137.259,65.9302)">
                <path d="M0,-1.946C-0.688,-2.05 -1.276,-1.525 -1.285,-0.944C-1.292,-0.44 -0.864,0.047 -0.272,0.104"
                    style="fill:none;fill-rule:nonzero;stroke:currentColor;stroke-width:1px;" />
            </g>
            <g transform="matrix(5.04167,0,0,5.04167,-111.12,65.9302)">
                <path d="M0,-1.946C0.687,-2.05 1.275,-1.525 1.284,-0.944C1.292,-0.44 0.863,0.047 0.271,0.104"
                    style="fill:none;fill-rule:nonzero;stroke:currentColor;stroke-width:1px;" />
            </g>
            <g transform="matrix(5.04167,0,0,5.04167,-125.827,100.437)">
                <path d="M0,-3.235C-0.568,-3.08 -1.199,-2.846 -1.86,-2.526C-3.426,-1.769 -4.691,-0.673 -5.313,0"
                    style="fill:none;fill-rule:nonzero;stroke:currentColor;stroke-width:1px;" />
            </g>
            <g transform="matrix(5.04167,0,0,5.04167,-179.379,100.437)">
                <path d="M-0.004,-3.235C0.563,-3.081 1.196,-2.845 1.855,-2.526C3.421,-1.769 4.687,-0.673 5.309,0"
                    style="fill:none;fill-rule:nonzero;stroke:currentColor;stroke-width:1px;" />
            </g>
            <g transform="matrix(-0.173973,5.03866,5.03866,0.173973,-151.426,58.8425)">
                <path d="M-5.561,-5.372L5.204,-5.372"
                    style="fill:none;fill-rule:nonzero;stroke:currentColor;stroke-width:1px;" />
            </g>
            <g transform="matrix(5.04167,0,0,5.04167,-179.192,7.17313)">
                <path d="M-0.041,15.264L-2.214,15.264L-1.427,3.1L2.957,0"
                    style="fill:none;fill-rule:nonzero;stroke:currentColor;stroke-width:1px;" />
            </g>
            <g transform="matrix(0.174968,5.03863,5.03863,-0.174968,-120.302,77.9251)">
                <path d="M-1.099,-1.138L1.192,-1.138"
                    style="fill:none;fill-rule:nonzero;stroke:currentColor;stroke-width:1px;" />
            </g>
            <g transform="matrix(0.174384,5.03865,5.03865,-0.174384,-122.737,34.3615)">
                <path d="M-0.921,-0.953L0.987,-0.953"
                    style="fill:none;fill-rule:nonzero;stroke:currentColor;stroke-width:1px;" />
            </g>
            <g transform="matrix(5.04167,0,0,5.04167,-140.922,37.7922)">
                <path d="M0,-6.194L4.38,-2.973L4.572,0"
                    style="fill:none;fill-rule:nonzero;stroke:currentColor;stroke-width:1px;" />
            </g>
            <g transform="matrix(5.04167,0,0,5.04167,-178.115,69.3732)">
                <path d="M0,0L7.857,0" style="fill:none;fill-rule:nonzero;stroke:currentColor;stroke-width:1px;" />
            </g>
            <g transform="matrix(0,5.04167,5.04167,0,-126.744,43.0406)">
                <path d="M-5.422,-5.172L4.837,-5.172"
                    style="fill:none;fill-rule:nonzero;stroke:currentColor;stroke-width:1px;" />
            </g>
            <g transform="matrix(0,-5.04167,-5.04167,0,-161.571,31.9847)">
                <path
                    d="M-0.538,-0.538C-0.835,-0.538 -1.076,-0.297 -1.076,0C-1.076,0.297 -0.835,0.538 -0.538,0.538C-0.241,0.538 0,0.297 0,0C0,-0.297 -0.241,-0.538 -0.538,-0.538"
                    style="fill-rule:nonzero;" />
            </g>
            <g transform="matrix(0,-5.04167,-5.04167,0,-161.571,45.6179)">
                <path
                    d="M-0.538,-0.538C-0.835,-0.538 -1.076,-0.297 -1.076,0C-1.076,0.297 -0.835,0.538 -0.538,0.538C-0.241,0.538 0,0.297 0,0C0,-0.297 -0.241,-0.538 -0.538,-0.538"
                    style="fill-rule:nonzero;" />
            </g>
            <g transform="matrix(0,-5.04167,-5.04167,0,-161.568,59.2536)">
                <path
                    d="M-0.539,-0.538C-0.836,-0.538 -1.076,-0.297 -1.076,0.001C-1.076,0.298 -0.836,0.539 -0.539,0.539C-0.241,0.539 -0.001,0.298 -0.001,0.001C-0.001,-0.297 -0.241,-0.538 -0.539,-0.538"
                    style="fill-rule:nonzero;" />
            </g>
            <g transform="matrix(0,5.04167,5.04167,0,-145.01,90.8971)">
                <path d="M-1.507,-1.507L1.892,-1.507"
                    style="fill:none;fill-rule:nonzero;stroke:currentColor;stroke-width:1px;" />
            </g>
            <g transform="matrix(3.56327,3.56672,3.56672,-3.56327,-155.212,76.9982)">
                <path d="M-0.215,-0.518L1.25,-0.518"
                    style="fill:none;fill-rule:nonzero;stroke:currentColor;stroke-width:1px;" />
            </g>
            <g transform="matrix(-3.565,3.565,3.565,3.565,-149.994,84.383)">
                <path d="M-1.251,-0.518L0.215,-0.518"
                    style="fill:none;fill-rule:nonzero;stroke:currentColor;stroke-width:1px;" />
            </g>
            <g transform="matrix(5.04167,0,0,5.04167,-152.817,23.4814)">
                <path d="M0,-1.542L-1.367,0.322L-4.212,-1.864"
                    style="fill:none;fill-rule:nonzero;stroke:currentColor;stroke-width:1px;" />
            </g>
            <g transform="matrix(-4.04483,-3.00961,-3.00961,4.04483,-160.603,4.59806)">
                <path d="M-2.554,0.846L0.28,0.846"
                    style="fill:none;fill-rule:nonzero;stroke:currentColor;stroke-width:1px;" />
            </g>
            <g transform="matrix(3.99747,-3.07224,-3.07224,-3.99747,-148.801,18.3843)">
                <path d="M-0.308,0.907L2.667,0.907"
                    style="fill:none;fill-rule:nonzero;stroke:currentColor;stroke-width:1px;" />
            </g>
            <g transform="matrix(5.04167,0,0,5.04167,-152.817,23.4814)">
                <path d="M0,-1.542L1.367,0.322L4.212,-1.864"
                    style="fill:none;fill-rule:nonzero;stroke:currentColor;stroke-width:1px;" />
            </g>
        </g>
    </g>
</svg>