<svg xmlns="http://www.w3.org/2000/svg" fill-rule="evenodd" stroke-linecap="round" stroke-linejoin="round" stroke-miterlimit="10" clip-rule="evenodd" viewBox="0 0 24 24" xml:space="preserve"><path fill="none" d="M0-72h240v240H0z"/><g fill-rule="nonzero"><path fill="none" stroke="currentColor" d="M6.603 14.783a2.753 2.753 0 0 1-.978-.87c-.942-1.405-.423-3.771 1.279-5.917m4.285 1.775c-.314 2.721-1.619 4.761-3.28 5.087a2.733 2.733 0 0 1-1.306-.075m.301-6.787 4.285 1.775m-4.586 5.012-1.532 3.698M2.64 17.473l4.864 2.015"/><path fill="none" stroke="currentColor" d="M5.344 10.947c.359.389.91.85 1.634.926 1.082.114 1.761-.717 2.437-.408.281.128.61.473.743 1.475"/><path d="M7.599 13.653a.43.43 0 1 0-.794-.33.43.43 0 0 0 .794.33m1.514-.622a.43.43 0 1 0-.796-.33.43.43 0 0 0 .796.33m-.485-2.266a.43.43 0 1 0-.796-.329.43.43 0 0 0 .796.329"/><path fill="none" stroke="currentColor" d="M17.397 14.783c.495-.273.792-.595.978-.87.942-1.405.423-3.771-1.279-5.917M12.81 9.771c.314 2.721 1.619 4.761 3.28 5.087.325.064.763.082 1.307-.075m-.301-6.787-4.285 1.775m4.586 5.012 1.532 3.698m2.431-1.008-4.864 2.015"/><path fill="none" stroke="currentColor" d="M18.656 10.947c-.359.389-.91.85-1.634.926-1.082.114-1.761-.717-2.437-.408-.281.128-.61.473-.743 1.475"/><path d="M16.401 13.653a.43.43 0 1 1 .794-.33.43.43 0 0 1-.794.33m-1.514-.622a.43.43 0 1 1 .796-.33.43.43 0 0 1-.796.33m.485-2.266a.43.43 0 1 1 .796-.329.43.43 0 0 1-.796.329"/><path fill="none" stroke="currentColor" d="m10.883 5.501-.988-.989m3.222.989.988-.989m.22 2.423h1.398m-7.447 0h1.398"/></g></svg>