<svg xmlns="http://www.w3.org/2000/svg" viewBox="0 0 24 24"><title>Comic Con</title><path d="M12,21.68a17.18,17.18,0,0,0-3.5-2.33A17.13,17.13,0,0,0,5,18.06V15.13a.71.71,0,0,1,.16-.48.59.59,0,0,1,.44-.26l1-.14,3.81-.7V11.49" style="fill:none;stroke:#000;stroke-linecap:round;stroke-linejoin:round"/><path d="M12,12.21a4.83,4.83,0,0,0,1.62-.75A4.41,4.41,0,0,0,14.94,10V9.51" style="fill:none;stroke:#000;stroke-linecap:round;stroke-linejoin:round"/><path d="M12,21.68a17.39,17.39,0,0,1,7-3.62V15.13a.71.71,0,0,0-.16-.48.57.57,0,0,0-.43-.26l-1-.14-3.82-.7V11.49" style="fill:none;stroke:#000;stroke-linecap:round;stroke-linejoin:round"/><path d="M12,6.79,15.57,5A3.14,3.14,0,0,1,16,8.64C15.17,9.93,13.5,9.82,12,9.82" style="fill:none;stroke:#000;stroke-linecap:round;stroke-linejoin:round"/><path d="M12,12.21a4.83,4.83,0,0,1-1.62-.75A4.41,4.41,0,0,1,9.06,10V9.51" style="fill:none;stroke:#000;stroke-linecap:round;stroke-linejoin:round"/><path d="M12,6.79,8.43,5a3.12,3.12,0,0,0-.38,3.65C8.83,9.93,10.5,9.82,12,9.82" style="fill:none;stroke:#000;stroke-linecap:round;stroke-linejoin:round"/><line x1="14.48" y1="7.55" x2="13.04" y2="8.2" style="fill:none;stroke:#000;stroke-linecap:round;stroke-linejoin:round"/><line x1="9.5" y1="7.55" x2="10.95" y2="8.2" style="fill:none;stroke:#000;stroke-linecap:round;stroke-linejoin:round"/><path d="M9.68,5.62A4.32,4.32,0,0,1,12,4.93a4.37,4.37,0,0,1,2.29.69" style="fill:none;stroke:#000;stroke-linecap:round;stroke-linejoin:round"/><path d="M8.43,5A4.41,4.41,0,0,1,12,2.34c1.8-.11,2.53.37,4.08,1.89a1.38,1.38,0,0,0,1.63.31,2.32,2.32,0,0,1-.57,1.12,2.24,2.24,0,0,1-.86.58" style="fill:none;stroke:#000;stroke-linecap:round;stroke-linejoin:round"/><rect x="13.5" y="13.75" width="2.13" height="2.13" rx="1.06" ry="1.06" style="fill:none;stroke:#000;stroke-linecap:round;stroke-linejoin:round"/><path d="M13.62,11.46a5.59,5.59,0,0,1,2.69,1.38,6.1,6.1,0,0,1,1.09,1.41" style="fill:none;stroke:#000;stroke-linecap:round;stroke-linejoin:round"/><path d="M10.39,11.46A5.64,5.64,0,0,0,7.7,12.84a6.1,6.1,0,0,0-1.09,1.41" style="fill:none;stroke:#000;stroke-linecap:round;stroke-linejoin:round"/><path d="M13.85,15.6A2,2,0,0,1,12,17" style="fill:none;stroke:#000;stroke-linecap:round;stroke-linejoin:round"/><rect x="8.44" y="13.75" width="2.13" height="2.13" rx="1.06" ry="1.06" transform="translate(19 29.63) rotate(-180)" style="fill:none;stroke:#000;stroke-linecap:round;stroke-linejoin:round"/><path d="M10.21,15.6A2,2,0,0,0,12,17" style="fill:none;stroke:#000;stroke-linecap:round;stroke-linejoin:round"/></svg>