<svg xmlns="http://www.w3.org/2000/svg" viewBox="0 0 24 24"><title>Cosplay</title><path d="M12,21.89a17,17,0,0,0-3.51-2.33,17.36,17.36,0,0,0-3.44-1.28V15.35a.71.71,0,0,1,.16-.48.6.6,0,0,1,.43-.27l1-.14L9.3,14,10.42,13V11.7" style="fill:none;stroke:#000;stroke-linecap:round;stroke-linejoin:round"/><path d="M12,12.43a5,5,0,0,0,1.62-.75A4.5,4.5,0,0,0,15,10.2" style="fill:none;stroke:#000;stroke-linecap:round;stroke-linejoin:round"/><path d="M12,21.89a17,17,0,0,1,3.51-2.33A17.36,17.36,0,0,1,19,18.28V15.35a.71.71,0,0,0-.16-.48.6.6,0,0,0-.43-.27l-1-.14L14.72,14,13.59,13V11.7" style="fill:none;stroke:#000;stroke-linecap:round;stroke-linejoin:round"/><path d="M12,12.43a5,5,0,0,1-1.62-.75A4.5,4.5,0,0,1,9.07,10.2" style="fill:none;stroke:#000;stroke-linecap:round;stroke-linejoin:round"/><path d="M11.14,4.43a4.86,4.86,0,0,0-.07,2.21,3.28,3.28,0,0,0,1.06,1.83,9.43,9.43,0,0,1,.63-1.65c.12-.26.29-.55.42-.77" style="fill:none;stroke:#000;stroke-linecap:round;stroke-linejoin:round"/><path d="M12.86,5.69a1.81,1.81,0,0,0,.58.55,1.75,1.75,0,0,0,1.29.26" style="fill:none;stroke:#000;stroke-linecap:round;stroke-linejoin:round"/><path d="M14.31,5.44a7.26,7.26,0,0,1,.79,3.64A4.6,4.6,0,0,1,14,12c3-2.87,3.41-6.69,1.81-8.52A5,5,0,0,0,12,2.11" style="fill:none;stroke:#000;stroke-linecap:round;stroke-linejoin:round"/><path d="M15.62,3.21A2,2,0,0,1,17.21,3,3,3,0,0,1,19,6c0,1.54-1,2.43-1.5,5.18a8,8,0,0,0,.38,3.35" style="fill:none;stroke:#000;stroke-linecap:round;stroke-linejoin:round"/><path d="M8.41,3.21A2,2,0,0,0,6.83,3,3,3,0,0,0,5,6c0,1.54,1,2.43,1.5,5.18a8,8,0,0,1-.39,3.35" style="fill:none;stroke:#000;stroke-linecap:round;stroke-linejoin:round"/><path d="M9.23,6.11a8.76,8.76,0,0,0-.37,3.14A5.34,5.34,0,0,0,10,12C7,9.09,6.6,5.27,8.2,3.44A5,5,0,0,1,12,2.11" style="fill:none;stroke:#000;stroke-linecap:round;stroke-linejoin:round"/><path d="M11,5.3a5,5,0,0,1-1,1.31A8.52,8.52,0,0,1,9,7.32" style="fill:none;stroke:#000;stroke-linecap:round;stroke-linejoin:round"/><polyline points="10.42 13.03 12.01 13.9 11.22 15.55 9.29 13.97" style="fill:none;stroke:#000;stroke-linecap:round;stroke-linejoin:round"/><polyline points="11.22 15.55 11.56 16.38 12.03 16.38" style="fill:none;stroke:#000;stroke-linecap:round;stroke-linejoin:round"/><polyline points="11.56 16.38 11.12 18.42 11.43 21.41" style="fill:none;stroke:#000;stroke-linecap:round;stroke-linejoin:round"/><path d="M9.51,14.14a7.16,7.16,0,0,1-.15,1.77A7.36,7.36,0,0,1,7.75,19.2" style="fill:none;stroke:#000;stroke-linecap:round;stroke-linejoin:round"/><polyline points="13.59 13.03 12.01 13.9 12.8 15.55 14.72 13.97" style="fill:none;stroke:#000;stroke-linecap:round;stroke-linejoin:round"/><polyline points="12.8 15.55 12.46 16.38 11.99 16.38" style="fill:none;stroke:#000;stroke-linecap:round;stroke-linejoin:round"/><polyline points="12.46 16.38 12.9 18.42 12.59 21.41" style="fill:none;stroke:#000;stroke-linecap:round;stroke-linejoin:round"/><path d="M14.51,14.14a7.68,7.68,0,0,0,.15,1.77,7.36,7.36,0,0,0,1.61,3.29" style="fill:none;stroke:#000;stroke-linecap:round;stroke-linejoin:round"/></svg>