<?xml version="1.0" encoding="UTF-8" standalone="no"?>
<!DOCTYPE svg PUBLIC "-//W3C//DTD SVG 1.1//EN" "http://www.w3.org/Graphics/SVG/1.1/DTD/svg11.dtd">
<svg width="100%" height="100%" viewBox="0 0 24 24" version="1.1" xmlns="http://www.w3.org/2000/svg"
    xmlns:xlink="http://www.w3.org/1999/xlink" xml:space="preserve" xmlns:serif="http://www.serif.com/"
    style="fill-rule:evenodd;clip-rule:evenodd;stroke-linecap:round;stroke-linejoin:round;stroke-miterlimit:10;">
    <g transform="matrix(1,0,0,1,-161,0)">
        <g id="dance" transform="matrix(0.198347,0,0,0.198347,202.237,1.40406)">
            <rect x="-208" y="-7" width="121" height="121" style="fill:none;" />
            <g transform="matrix(5.04167,0,0,5.04167,-159.597,11.3779)">
                <path
                    d="M0,10.056L-1.575,2.674L-1.575,0.489C-1.387,0.179 -1.045,0 -0.694,0.027C-0.223,0.063 0.02,0.451 0.042,0.489L0.042,2.674"
                    style="fill:none;fill-rule:nonzero;stroke:currentColor;stroke-width:1px;" />
            </g>
            <g transform="matrix(5.04167,0,0,5.04167,-135.62,48.596)">
                <path
                    d="M0,-4.708L0,-6.894C0.023,-6.932 0.266,-7.319 0.737,-7.355C1.088,-7.382 1.43,-7.203 1.618,-6.894L1.618,-4.708L0.043,2.674"
                    style="fill:none;fill-rule:nonzero;stroke:currentColor;stroke-width:1px;" />
            </g>
            <g transform="matrix(5.04167,0,0,5.04167,-159.597,66.327)">
                <path d="M0,-0.843C0.253,-0.645 1.14,0 2.44,-0.014C3.689,-0.027 4.54,-0.64 4.799,-0.843"
                    style="fill:none;fill-rule:nonzero;stroke:currentColor;stroke-width:1px;" />
            </g>
            <g transform="matrix(5.04167,0,0,5.04167,-159.383,31.9383)">
                <path d="M0,-1.404C0.506,-0.529 1.448,0 2.447,-0.033C3.922,-0.081 4.67,-1.328 4.713,-1.404"
                    style="fill:none;fill-rule:nonzero;stroke:currentColor;stroke-width:1px;" />
            </g>
            <g transform="matrix(5.04167,0,0,5.04167,-1019.61,-7.0788)">
                <path
                    d="M172.981,18.595C172.293,18.602 171.729,18.759 171.53,19.354C171.286,19.884 170.878,20.061 170.148,19.931C169.535,19.843 169.259,19.57 169.261,19.133C169.313,18.88 169.319,18.615 168.671,18.204C168.139,17.979 167.678,17.957 167.36,18.352C167.061,18.8 166.739,18.883 166.181,18.643C165.647,18.307 165.563,17.956 165.737,17.598C165.841,17.356 165.862,17.074 165.538,16.631C165.099,16.18 164.755,16.163 164.46,16.369C164.013,16.585 163.634,16.416 163.331,15.821C163.137,15.088 163.465,14.861 164.005,14.84C164.39,14.735 164.533,14.494 164.579,14.197C164.645,13.928 164.527,13.678 164.242,13.443C164.026,13.182 163.942,12.875 164.287,12.42C164.621,12.149 164.947,12.091 165.259,12.453C165.523,12.666 165.814,12.646 166.137,12.352C166.33,12.121 166.37,11.876 166.202,11.615C166.105,11.392 166.165,11.179 166.529,10.981C166.85,10.849 167.097,10.91 167.257,11.198C167.477,11.519 167.751,11.543 168.056,11.404C168.322,11.239 168.422,11.036 168.359,10.796C168.307,10.576 168.374,10.366 168.774,10.182C169.089,10.118 169.352,10.177 169.483,10.549C169.579,10.794 169.748,10.906 169.981,10.902"
                    style="fill:none;stroke:currentColor;stroke-width:1px;stroke-miterlimit:1.5;" />
            </g>
            <g transform="matrix(5.04167,0,0,5.04167,-1019.61,-7.0788)">
                <path d="M169.261,19.133L170.997,16.46"
                    style="fill:none;stroke:currentColor;stroke-width:1px;stroke-miterlimit:1.5;" />
            </g>
            <g transform="matrix(5.04167,0,0,5.04167,-1019.61,-7.0788)">
                <path d="M165.737,17.598L168.441,15.7"
                    style="fill:none;stroke:currentColor;stroke-width:1px;stroke-miterlimit:1.5;" />
            </g>
            <g transform="matrix(5.04167,0,0,5.04167,-1019.61,-7.0788)">
                <path d="M164.005,14.84L167.089,14.348"
                    style="fill:none;stroke:currentColor;stroke-width:1px;stroke-miterlimit:1.5;" />
            </g>
            <g transform="matrix(-5.04167,0,0,5.04167,724.612,-7.0788)">
                <path
                    d="M172.981,18.595C172.293,18.602 171.729,18.759 171.53,19.354C171.286,19.884 170.878,20.061 170.148,19.931C169.535,19.843 169.259,19.57 169.261,19.133C169.313,18.88 169.319,18.615 168.671,18.204C168.139,17.979 167.678,17.957 167.36,18.352C167.061,18.8 166.739,18.883 166.181,18.643C165.647,18.307 165.563,17.956 165.737,17.598C165.841,17.356 165.862,17.074 165.538,16.631C165.099,16.18 164.755,16.163 164.46,16.369C164.013,16.585 163.634,16.416 163.331,15.821C163.137,15.088 163.465,14.861 164.005,14.84C164.39,14.735 164.533,14.494 164.579,14.197C164.645,13.928 164.527,13.678 164.242,13.443C164.026,13.182 163.942,12.875 164.287,12.42C164.621,12.149 164.947,12.091 165.259,12.453C165.523,12.666 165.814,12.646 166.137,12.352C166.33,12.121 166.37,11.876 166.202,11.615C166.105,11.392 166.165,11.179 166.529,10.981C166.85,10.849 167.097,10.91 167.257,11.198C167.477,11.519 167.751,11.543 168.056,11.404C168.322,11.239 168.422,11.036 168.359,10.796C168.307,10.576 168.374,10.366 168.774,10.182C169.089,10.118 169.352,10.177 169.483,10.549C169.579,10.794 169.748,10.906 169.981,10.902"
                    style="fill:none;stroke:currentColor;stroke-width:1px;stroke-miterlimit:1.5;" />
            </g>
            <g transform="matrix(-5.04167,0,0,5.04167,724.612,-7.0788)">
                <path d="M169.261,19.133L170.997,16.46"
                    style="fill:none;stroke:currentColor;stroke-width:1px;stroke-miterlimit:1.5;" />
            </g>
            <g transform="matrix(-5.04167,0,0,5.04167,724.612,-7.0788)">
                <path d="M165.737,17.598L168.441,15.7"
                    style="fill:none;stroke:currentColor;stroke-width:1px;stroke-miterlimit:1.5;" />
            </g>
            <g transform="matrix(-5.04167,0,0,5.04167,724.612,-7.0788)">
                <path d="M164.005,14.84L167.089,14.348"
                    style="fill:none;stroke:currentColor;stroke-width:1px;stroke-miterlimit:1.5;" />
            </g>
            <g transform="matrix(5.04167,0,0,5.04167,-1019.61,-7.0788)">
                <path d="M172.981,18.595L172.997,17.016"
                    style="fill:none;stroke:currentColor;stroke-width:1px;stroke-miterlimit:1.5;" />
            </g>
        </g>
    </g>
</svg>