<?xml version="1.0" encoding="UTF-8" standalone="no"?>
<!DOCTYPE svg PUBLIC "-//W3C//DTD SVG 1.1//EN" "http://www.w3.org/Graphics/SVG/1.1/DTD/svg11.dtd">
<svg width="100%" height="100%" viewBox="0 0 24 24" version="1.1" xmlns="http://www.w3.org/2000/svg"
    xmlns:xlink="http://www.w3.org/1999/xlink" xml:space="preserve" xmlns:serif="http://www.serif.com/"
    style="fill-rule:evenodd;clip-rule:evenodd;stroke-linecap:round;stroke-linejoin:round;stroke-miterlimit:10;">
    <g transform="matrix(1,0,0,1,-53,-27)">
        <g id="dress-to-impress" transform="matrix(0.198347,0,0,0.198347,94.956,28.3884)">
            <rect x="-208" y="-7" width="121" height="121" style="fill:none;" />
            <g transform="matrix(5.04167,0,0,5.04167,-147.5,68.2534)">
                <path
                    d="M0,-6.23C-1.729,-8.102 -3.458,-8.412 -4.678,-7.646C-5.942,-6.854 -6.349,-5.301 -6.23,-4.267C-5.738,0.014 -1.64,1.142 0,2.182"
                    style="fill:none;fill-rule:nonzero;stroke:currentColor;stroke-width:1px;" />
            </g>
            <g transform="matrix(5.04167,0,0,5.04167,-147.5,68.2534)">
                <path
                    d="M0,-6.23C1.729,-8.102 3.458,-8.412 4.678,-7.646C5.942,-6.854 6.349,-5.301 6.23,-4.267C5.738,0.014 1.64,1.142 0,2.182"
                    style="fill:none;fill-rule:nonzero;stroke:currentColor;stroke-width:1px;" />
            </g>
            <g transform="matrix(3.565,-3.565,-3.565,-3.565,-127.04,44.7621)">
                <path d="M-0.681,1.644L3.969,1.644"
                    style="fill:none;fill-rule:nonzero;stroke:currentColor;stroke-width:1px;" />
            </g>
            <g transform="matrix(3.565,-3.565,-3.565,-3.565,-170.348,85.2425)">
                <path d="M-0.517,1.247L3.012,1.247"
                    style="fill:none;fill-rule:nonzero;stroke:currentColor;stroke-width:1px;" />
            </g>
            <g transform="matrix(5.04167,0,0,5.04167,-109.688,29.5571)">
                <path d="M0,-2.751L-2.751,-2.014L-0.737,0L0,-2.751Z"
                    style="fill:none;fill-rule:nonzero;stroke:currentColor;stroke-width:1px;" />
            </g>
            <g transform="matrix(5.04167,0,0,5.04167,-167.957,81.6809)">
                <path d="M0,-1.532L-1.626,-1.722L-3.442,-0.056L-1.722,0.19"
                    style="fill:none;fill-rule:nonzero;stroke:currentColor;stroke-width:1px;" />
            </g>
            <g transform="matrix(5.04167,0,0,5.04167,-167.957,91.3105)">
                <path d="M0,-3.442L0.19,-1.816L-1.476,0L-1.722,-1.72"
                    style="fill:none;fill-rule:nonzero;stroke:currentColor;stroke-width:1px;" />
            </g>
        </g>
    </g>
</svg>