<svg xmlns="http://www.w3.org/2000/svg" viewBox="0 0 24 24"><title>Equestrian</title><path d="M6.69,18.25a11.14,11.14,0,0,1,1.86.7A12.26,12.26,0,0,1,12,21.48" style="fill:none;stroke:#000;stroke-linecap:round;stroke-linejoin:round"/><path d="M17.31,18.25a11.14,11.14,0,0,0-1.86.7A12.26,12.26,0,0,0,12,21.48" style="fill:none;stroke:#000;stroke-linecap:round;stroke-linejoin:round"/><polyline points="7.06 7.48 7.66 11.98 6.69 18.25" style="fill:none;stroke:#000;stroke-linecap:round;stroke-linejoin:round"/><polyline points="6.69 18.25 5.1 18.25 5.57 4.73 8.3 3.57 9.66 2.52 12 3.23 11 5.11 8.3 3.57" style="fill:none;stroke:#000;stroke-linecap:round;stroke-linejoin:round"/><line x1="12" y1="18.08" x2="12" y2="21.48" style="fill:none;stroke:#000;stroke-linecap:round;stroke-linejoin:round"/><line x1="10.96" y1="17.04" x2="12" y2="18.08" style="fill:none;stroke:#000;stroke-linecap:round;stroke-linejoin:round"/><path d="M7,16h4.11a1.13,1.13,0,0,0,.48-.27A1.25,1.25,0,0,0,12,15V9.91C10.77,7.79,9.53,5.68,8.3,3.57" style="fill:none;stroke:#000;stroke-linecap:round;stroke-linejoin:round"/><polyline points="16.94 7.48 16.34 11.98 17.31 18.25" style="fill:none;stroke:#000;stroke-linecap:round;stroke-linejoin:round"/><polyline points="17.31 18.25 18.9 18.25 18.43 4.73 15.7 3.57 14.34 2.52 12 3.23 13 5.11 15.7 3.57" style="fill:none;stroke:#000;stroke-linecap:round;stroke-linejoin:round"/><line x1="13.04" y1="17.04" x2="12" y2="18.08" style="fill:none;stroke:#000;stroke-linecap:round;stroke-linejoin:round"/><path d="M17,16H12.85a1.13,1.13,0,0,1-.48-.27A1.25,1.25,0,0,1,12,15" style="fill:none;stroke:#000;stroke-linecap:round;stroke-linejoin:round"/><path d="M12,3.23V9.91c1.23-2.12,2.47-4.23,3.7-6.34" style="fill:none;stroke:#000;stroke-linecap:round;stroke-linejoin:round"/><circle cx="10.22" cy="10.5" r="0.5"/><circle cx="10.22" cy="13.26" r="0.5"/></svg>