<svg xmlns="http://www.w3.org/2000/svg" viewBox="0 0 24 24"><defs><style>.a,.b{fill:none;stroke:#000;stroke-linecap:round;stroke-linejoin:round;}.b{fill-rule:evenodd;}</style></defs><title>Evening</title><path class="a" d="M6.53,14.74A10.41,10.41,0,0,0,7,11.23c-.06-1.29-.53-4.31-.25-5.47A2,2,0,0,1,7.05,5a3,3,0,0,1,.68-.68c.78-.34,2.07-.74,2.85-1.08a3.28,3.28,0,0,0,.09-1,3.09,3.09,0,0,0-.09-.57A2.92,2.92,0,0,0,12,2"/><path class="a" d="M8.55,6.08a1.82,1.82,0,0,0-.48,2.17,1.67,1.67,0,0,0,2.13.84"/><path class="a" d="M11.23,9.25a1.74,1.74,0,0,1,.85-.19,1.83,1.83,0,0,1,.76.19"/><path class="a" d="M9.24,9.17l.23,1.6A11.15,11.15,0,0,0,5.59,19"/><line class="a" x1="6.68" y1="8.04" x2="8.07" y2="8.25"/><path class="a" d="M5.76,6.44A11.7,11.7,0,0,1,8,6.1a12,12,0,0,1,4,.47"/><path class="a" d="M17.5,14.74a9.91,9.91,0,0,1-.43-3.51c.05-1.29.52-4.31.25-5.47A2.08,2.08,0,0,0,17,5a2.65,2.65,0,0,0-.68-.68c-.78-.34-2.07-.74-2.85-1.08a3.28,3.28,0,0,1-.09-1,4.27,4.27,0,0,1,.09-.57A2.89,2.89,0,0,1,12,2"/><path class="a" d="M15.47,6.08A1.82,1.82,0,0,1,16,8.25a1.66,1.66,0,0,1-2.12.84"/><path class="a" d="M14.78,9.17l-.23,1.6A11.15,11.15,0,0,1,18.43,19"/><line class="a" x1="17.35" y1="8.04" x2="15.95" y2="8.25"/><path class="a" d="M18.26,6.44a11.58,11.58,0,0,0-2.2-.34,12,12,0,0,0-4,.47"/><ellipse class="a" cx="12.01" cy="6.57" rx="0.34" ry="0.46"/><path class="b" d="M12,22.37A12.62,12.62,0,0,1,18.43,19"/><path class="b" d="M5.59,19A12.75,12.75,0,0,1,12,22.37"/><path class="b" d="M7.49,17.13A7.34,7.34,0,0,1,9,13.76a6.16,6.16,0,0,1,1.29-1.19,11,11,0,0,0-.88,3,10.66,10.66,0,0,0,0,3.08"/><path class="b" d="M16.59,17.13a7.46,7.46,0,0,0-1.49-3.37,6.41,6.41,0,0,0-1.29-1.19,11.34,11.34,0,0,1,.88,3,11,11,0,0,1,0,3.08"/><path class="b" d="M10.58,3.2A1.56,1.56,0,0,0,12.05,5,1.56,1.56,0,0,0,13.44,3.2"/></svg>