<svg xmlns="http://www.w3.org/2000/svg" fill-rule="evenodd" stroke-linecap="round" stroke-linejoin="round" stroke-miterlimit="10" clip-rule="evenodd" viewBox="0 0 24 24" xml:space="preserve"><path fill="none" d="M0-120h240v240H0z"/><g fill-rule="nonzero"><path fill="none" stroke="currentColor" d="M17.473 18.21a11.17 11.17 0 0 0-1.917.718c-1.613.78-2.917 1.91-3.558 2.603m-5.471-3.319c.585.159 1.233.388 1.913.716 1.613.78 2.916 1.91 3.558 2.603M6.622 7.112l-.383 11.072m.042.014H4l.81-12.535c.035-.214.137-.642.46-1.071.33-.438.723-.653.922-.744 1.046-.461 2.091-.921 3.137-1.379m7.756 12.712.104 3.002m-3.357-3.002h3.253m-10.584.001h3.643m.024-12.093v12.093"/><path d="M9.226 6.874a.555.555 0 1 1-1.11 0 .555.555 0 0 1 1.11 0m0 2.787a.555.555 0 1 1-1.11 0 .555.555 0 0 1 1.11 0m0 2.787a.554.554 0 1 1-1.108 0 .554.554 0 0 1 1.108 0"/><path fill="none" stroke="currentColor" d="M12 18.03v3.103m-1.067-4.171L12 18.03m1.067-1.068L12 18.03M10.168 4.958a3.056 3.056 0 0 1-2.08-1.6m2.08-.269a.962.962 0 0 1-.839-.62m8.049 4.643.383 11.072m-.042.014H20l-.81-12.535a2.455 2.455 0 0 0-.46-1.071 2.428 2.428 0 0 0-.922-.744 1425.21 1425.21 0 0 0-3.137-1.379m-.839.62v12.093"/><path fill="none" stroke="currentColor" d="M13.832 4.958a3.056 3.056 0 0 0 2.08-1.6m-2.08-.269a.962.962 0 0 0 .839-.62m-4.423 1.765c.19.153.81.613 1.727.634a2.892 2.892 0 0 0 1.856-.634m-3.663 9.323h3.664"/></g></svg>