<?xml version="1.0" encoding="UTF-8" standalone="no"?>
<!DOCTYPE svg PUBLIC "-//W3C//DTD SVG 1.1//EN" "http://www.w3.org/Graphics/SVG/1.1/DTD/svg11.dtd">
<svg width="100%" height="100%" viewBox="0 0 24 24" version="1.1" xmlns="http://www.w3.org/2000/svg"
    xmlns:xlink="http://www.w3.org/1999/xlink" xml:space="preserve" xmlns:serif="http://www.serif.com/"
    style="fill-rule:evenodd;clip-rule:evenodd;stroke-linecap:round;stroke-linejoin:round;stroke-miterlimit:10;">
    <g transform="matrix(1,0,0,1,0,-27)">
        <g id="everyday" transform="matrix(0.198347,0,0,0.198347,41.2562,28.3884)">
            <rect x="-208" y="-7" width="121" height="121" style="fill:none;" />
            <g transform="matrix(5.3818,0,0,5.3818,-119.908,101.551)">
                <path d="M0,-3.111C-0.549,-2.961 -1.158,-2.747 -1.796,-2.438C-3.307,-1.708 -4.528,-0.649 -5.129,0"
                    style="fill:none;fill-rule:nonzero;stroke:currentColor;stroke-width:0.94px;" />
            </g>
            <g transform="matrix(5.3818,0,0,5.3818,-175.092,101.55)">
                <path d="M0,-3.109C0.548,-2.96 1.155,-2.746 1.792,-2.438C3.303,-1.708 4.524,-0.649 5.125,0"
                    style="fill:none;fill-rule:nonzero;stroke:currentColor;stroke-width:0.94px;" />
            </g>
            <g transform="matrix(-0.186165,5.37858,5.37858,0.186165,-147.72,58.6972)">
                <path d="M-5.369,-5.186L5.01,-5.186"
                    style="fill:none;fill-rule:nonzero;stroke:currentColor;stroke-width:0.94px;" />
            </g>
            <g transform="matrix(5.3818,0,0,5.3818,-176.332,5.44922)">
                <path
                    d="M0,14.735L-2.137,14.735L-1.378,2.992C-1.345,2.791 -1.25,2.39 -0.947,1.988C-0.638,1.578 -0.27,1.377 -0.084,1.291C0.896,0.86 1.875,0.429 2.855,0"
                    style="fill:none;fill-rule:nonzero;stroke:currentColor;stroke-width:0.94px;" />
            </g>
            <g transform="matrix(0.185469,5.3786,5.3786,-0.185469,-114.046,76.5829)">
                <path d="M-1.359,-1.406L1.456,-1.406"
                    style="fill:none;fill-rule:nonzero;stroke:currentColor;stroke-width:0.94px;" />
            </g>
            <g transform="matrix(5.3818,0,0,5.3818,-138.266,69.5351)">
                <path d="M0,0L3.048,0" style="fill:none;fill-rule:nonzero;stroke:currentColor;stroke-width:0.94px;" />
            </g>
            <g transform="matrix(5.3818,0,0,5.3818,-175.224,69.5405)">
                <path d="M0,0L3.413,0" style="fill:none;fill-rule:nonzero;stroke:currentColor;stroke-width:0.94px;" />
            </g>
            <g transform="matrix(0,5.3818,5.3818,0,-126.252,39.0569)">
                <path d="M-5.664,-5.664L5.664,-5.664"
                    style="fill:none;fill-rule:nonzero;stroke:currentColor;stroke-width:0.94px;" />
            </g>
            <g transform="matrix(0,-5.3818,-5.3818,0,-164.281,24.8619)">
                <path
                    d="M-0.52,-0.52C-0.806,-0.52 -1.039,-0.288 -1.039,0.001C-1.039,0.288 -0.806,0.52 -0.52,0.52C-0.232,0.52 0.001,0.288 0.001,0.001C0.001,-0.288 -0.232,-0.52 -0.52,-0.52"
                    style="fill-rule:nonzero;" />
            </g>
            <g transform="matrix(0,-5.3818,-5.3818,0,-164.281,38.9105)">
                <path
                    d="M-0.52,-0.52C-0.807,-0.52 -1.039,-0.288 -1.039,0.001C-1.039,0.288 -0.807,0.52 -0.52,0.52C-0.232,0.52 0.001,0.288 0.001,0.001C0.001,-0.288 -0.232,-0.52 -0.52,-0.52"
                    style="fill-rule:nonzero;" />
            </g>
            <g transform="matrix(0,-5.3818,-5.3818,0,-164.278,52.9613)">
                <path
                    d="M-0.52,-0.519C-0.806,-0.519 -1.039,-0.287 -1.039,0.001C-1.039,0.288 -0.806,0.52 -0.52,0.52C-0.233,0.52 0,0.288 0,0.001C0,-0.287 -0.233,-0.519 -0.52,-0.519"
                    style="fill-rule:nonzero;" />
            </g>
            <g transform="matrix(0,5.3818,5.3818,0,-139.678,91.721)">
                <path d="M-1.454,-1.454L1.454,-1.454"
                    style="fill:none;fill-rule:nonzero;stroke:currentColor;stroke-width:0.94px;" />
            </g>
            <g transform="matrix(3.8055,3.8055,3.8055,-3.8055,-150.191,77.4022)">
                <path d="M-0.207,-0.5L1.207,-0.5"
                    style="fill:none;fill-rule:nonzero;stroke:currentColor;stroke-width:0.94px;" />
            </g>
            <g transform="matrix(-3.8055,3.8055,3.8055,3.8055,-144.809,85.0132)">
                <path d="M-1.207,-0.5L0.207,-0.5"
                    style="fill:none;fill-rule:nonzero;stroke:currentColor;stroke-width:0.94px;" />
            </g>
            <g transform="matrix(5.3818,0,0,5.3818,-156.734,9.93064)">
                <path d="M0,1.499C-0.254,1.444 -0.733,1.306 -1.205,0.922C-1.611,0.592 -1.836,0.223 -1.949,0"
                    style="fill:none;fill-rule:nonzero;stroke:currentColor;stroke-width:0.94px;" />
            </g>
            <g transform="matrix(5.3818,0,0,5.3818,-156.734,5.44761)">
                <path d="M0,0.581C-0.081,0.576 -0.273,0.554 -0.465,0.418C-0.674,0.269 -0.758,0.075 -0.786,0"
                    style="fill:none;fill-rule:nonzero;stroke:currentColor;stroke-width:0.94px;" />
            </g>
            <g transform="matrix(0.186165,5.37858,5.37858,-0.186165,-91.5601,54.8354)">
                <path d="M-5.01,-5.186L5.369,-5.186"
                    style="fill:none;fill-rule:nonzero;stroke:currentColor;stroke-width:0.94px;" />
            </g>
            <g transform="matrix(5.3818,0,0,5.3818,-118.668,5.44922)">
                <path
                    d="M0,14.735L2.137,14.735L1.378,2.992C1.345,2.791 1.25,2.39 0.947,1.988C0.638,1.578 0.27,1.377 0.084,1.291C-0.896,0.86 -1.875,0.429 -2.855,0"
                    style="fill:none;fill-rule:nonzero;stroke:currentColor;stroke-width:0.94px;" />
            </g>
            <g transform="matrix(0,5.3818,5.3818,0,-107.783,39.0569)">
                <path d="M-5.664,-5.664L5.664,-5.664"
                    style="fill:none;fill-rule:nonzero;stroke:currentColor;stroke-width:0.94px;" />
            </g>
            <g transform="matrix(5.3818,0,0,5.3818,-138.266,9.93064)">
                <path d="M0,1.499C0.254,1.444 0.733,1.306 1.205,0.922C1.611,0.592 1.836,0.223 1.949,0"
                    style="fill:none;fill-rule:nonzero;stroke:currentColor;stroke-width:0.94px;" />
            </g>
            <g transform="matrix(5.3818,0,0,5.3818,-138.266,5.44761)">
                <path d="M0,0.581C0.081,0.576 0.273,0.554 0.465,0.418C0.674,0.269 0.758,0.075 0.786,0"
                    style="fill:none;fill-rule:nonzero;stroke:currentColor;stroke-width:0.94px;" />
            </g>
            <g transform="matrix(5.3818,0,0,5.3818,-156.335,17.6551)">
                <path d="M0,-0.615C0.178,-0.472 0.759,-0.041 1.618,-0.021C2.554,0 3.189,-0.479 3.357,-0.615"
                    style="fill:none;fill-rule:nonzero;stroke:currentColor;stroke-width:0.94px;" />
            </g>
            <g transform="matrix(5.3818,0,0,5.3818,-156.734,61.3467)">
                <path d="M0,0L3.432,0" style="fill:none;fill-rule:nonzero;stroke:currentColor;stroke-width:0.94px;" />
            </g>
        </g>
    </g>
</svg>