<?xml version="1.0" encoding="UTF-8" standalone="no"?>
<!DOCTYPE svg PUBLIC "-//W3C//DTD SVG 1.1//EN" "http://www.w3.org/Graphics/SVG/1.1/DTD/svg11.dtd">
<svg width="100%" height="100%" viewBox="0 0 24 24" version="1.1" xmlns="http://www.w3.org/2000/svg"
    xmlns:xlink="http://www.w3.org/1999/xlink" xml:space="preserve" xmlns:serif="http://www.serif.com/"
    style="fill-rule:evenodd;clip-rule:evenodd;stroke-linecap:round;stroke-linejoin:round;stroke-miterlimit:10;">
    <g transform="matrix(1,0,0,1,-107,-27)">
        <g id="workwear" transform="matrix(0.198347,0,0,0.198347,148.538,28.3884)">
            <rect x="-208" y="-7" width="121" height="121" style="fill:none;" />
            <g transform="matrix(5.04167,0,0,5.04167,-127.171,99.5042)">
                <path d="M0,-3.158C-0.557,-3.007 -1.176,-2.789 -1.823,-2.475C-3.357,-1.733 -4.598,-0.659 -5.208,0"
                    style="fill:none;fill-rule:nonzero;stroke:currentColor;stroke-width:1px;" />
            </g>
            <g transform="matrix(5.04167,0,0,5.04167,-179.66,99.5042)">
                <path d="M0,-3.157C0.556,-3.005 1.173,-2.788 1.819,-2.475C3.353,-1.733 4.593,-0.659 5.203,0"
                    style="fill:none;fill-rule:nonzero;stroke:currentColor;stroke-width:1px;" />
            </g>
            <g transform="matrix(5.04167,0,0,5.04167,-179.478,8.09021)">
                <path d="M0,14.962L-2.17,14.962L-1.398,3.039L2.899,0"
                    style="fill:none;fill-rule:nonzero;stroke:currentColor;stroke-width:1px;" />
            </g>
            <g transform="matrix(5.04167,0,0,5.04167,-141.966,49.4465)">
                <path d="M0,-8.321L4.293,-5.164L4.627,0"
                    style="fill:none;fill-rule:nonzero;stroke:currentColor;stroke-width:1px;" />
            </g>
            <g transform="matrix(-0.0074953,-5.04166,-5.04166,0.0074953,-129.725,75.6959)">
                <path d="M-4.716,4.709L4.702,4.709"
                    style="fill:none;fill-rule:nonzero;stroke:currentColor;stroke-width:1px;" />
            </g>
            <g transform="matrix(-6.21433e-32,-4.78336,-4.78336,-6.21433e-32,-161.752,61.0944)">
                <path
                    d="M-0.528,-0.528C-0.819,-0.528 -1.055,-0.292 -1.055,0C-1.055,0.291 -0.819,0.528 -0.528,0.528C-0.236,0.528 0,0.291 0,0C0,-0.292 -0.236,-0.528 -0.528,-0.528"
                    style="fill-rule:nonzero;" />
            </g>
            <g transform="matrix(-6.21433e-32,-4.78336,-4.78336,-6.21433e-32,-161.752,74.4619)">
                <path
                    d="M-0.528,-0.528C-0.819,-0.528 -1.055,-0.292 -1.055,0C-1.055,0.291 -0.819,0.528 -0.528,0.528C-0.236,0.528 0,0.291 0,0C0,-0.292 -0.236,-0.528 -0.528,-0.528"
                    style="fill-rule:nonzero;" />
            </g>
            <g transform="matrix(-2.98146,4.06563,4.06563,2.98146,-155.904,30.2436)">
                <path d="M-2.472,-1.253L0.635,-1.253"
                    style="fill:none;fill-rule:nonzero;stroke:currentColor;stroke-width:1px;" />
            </g>
            <g transform="matrix(-4.04354,-3.01134,-3.01134,4.04354,-161.253,5.56353)">
                <path d="M-2.504,0.83L0.275,0.83"
                    style="fill:none;fill-rule:nonzero;stroke:currentColor;stroke-width:1px;" />
            </g>
            <g transform="matrix(3.99717,-3.07262,-3.07262,-3.99717,-149.688,19.0853)">
                <path d="M-0.302,0.889L2.615,0.889"
                    style="fill:none;fill-rule:nonzero;stroke:currentColor;stroke-width:1px;" />
            </g>
            <g transform="matrix(-1.9103,-4.66574,-4.66574,1.9103,-146.227,16.6053)">
                <path d="M-5.956,3.997L2.683,3.997"
                    style="fill:none;fill-rule:nonzero;stroke:currentColor;stroke-width:1px;" />
            </g>
            <g transform="matrix(2.98251,4.06485,4.06485,-2.98251,-146.39,15.3039)">
                <path d="M-0.634,-1.253L2.472,-1.253"
                    style="fill:none;fill-rule:nonzero;stroke:currentColor;stroke-width:1px;" />
            </g>
            <g transform="matrix(1.9103,-4.66574,-4.66574,-1.9103,-129.726,47.1473)">
                <path d="M-2.683,3.997L5.956,3.997"
                    style="fill:none;fill-rule:nonzero;stroke:currentColor;stroke-width:1px;" />
            </g>
            <g transform="matrix(5.04167,0,0,5.04167,-177.27,54.7221)">
                <path d="M0,-7.509L1.632,-4.13L1.601,-2.111L4.715,0"
                    style="fill:none;fill-rule:nonzero;stroke:currentColor;stroke-width:1px;" />
            </g>
            <g transform="matrix(5.04167,0,0,5.04167,-129.726,54.7221)">
                <path d="M0,-7.509L-1.632,-4.13L-1.602,-2.111L-4.715,0"
                    style="fill:none;fill-rule:nonzero;stroke:currentColor;stroke-width:1px;" />
            </g>
            <g transform="matrix(5.04167,0,0,5.04167,-179.66,83.5897)">
                <path d="M0,-8.478L0.791,-3.63L0,0"
                    style="fill:none;fill-rule:nonzero;stroke:currentColor;stroke-width:1px;" />
            </g>
            <g transform="matrix(-5.04167,0,0,5.04167,-37.3144,27.9539)">
                <rect x="13.342" y="6.033" width="7.171" height="5.001"
                    style="fill:none;stroke:currentColor;stroke-width:1px;" />
            </g>
            <g transform="matrix(-5.04167,0,0,5.04167,-37.3245,16.0757)">
                <rect x="15.027" y="8.386" width="3.799" height="2.651"
                    style="fill:none;stroke:currentColor;stroke-width:1px;" />
            </g>
            <g transform="matrix(-5.04167,0,0,5.04167,-37.3144,-6.19838)">
                <rect x="15.682" y="11.037" width="2.491" height="1.767"
                    style="fill:none;stroke:currentColor;stroke-width:1px;" />
            </g>
            <g transform="matrix(5.04167,0,0,5.04167,-123.572,65.0409)">
                <path d="M0,0L0.35,0" style="fill:none;fill-rule:nonzero;stroke:currentColor;stroke-width:1px;" />
            </g>
            <g transform="matrix(-0.355365,5.02913,5.02913,0.355365,-124.197,45.6193)">
                <path d="M-0.949,-0.884L0.824,-0.884"
                    style="fill:none;fill-rule:nonzero;stroke:currentColor;stroke-width:1px;" />
            </g>
        </g>
    </g>
</svg>