<svg xmlns="http://www.w3.org/2000/svg" viewBox="0 0 24 24"><defs><style>.a{fill:none;stroke:#000;stroke-linecap:round;stroke-linejoin:round;}</style></defs><title>Formal</title><path class="a" d="M6.89,19.14a12.61,12.61,0,0,1,1.79.66A12.2,12.2,0,0,1,12,22.25"/><path class="a" d="M7,17.08a.42.42,0,0,1-.23.06c-.31,0-.68-.53-.64-1.23a10.52,10.52,0,0,0,.57-4.05c-.06-1.36-.55-4.53-.27-5.75a2.18,2.18,0,0,1,.37-.85,3,3,0,0,1,.72-.72c.82-.36,2.17-.77,3-1.13a3.28,3.28,0,0,0,.1-1.06,3.12,3.12,0,0,0-.1-.6,3,3,0,0,0,1.52.4,3.1,3.1,0,0,0,1.5-.4,3.2,3.2,0,0,0-.1.77,3.16,3.16,0,0,0,.1.89c.82.36,2.17.77,3,1.13a3,3,0,0,1,.72.72,2.18,2.18,0,0,1,.37.85c.28,1.22-.21,4.39-.27,5.75a10.52,10.52,0,0,0,.57,4.05c0,.7-.33,1.2-.64,1.23a.42.42,0,0,1-.23-.06"/><path class="a" d="M17.11,19.14a12.61,12.61,0,0,0-1.79.66A12.2,12.2,0,0,0,12,22.25"/><path class="a" d="M12,6.63c-1.4,0-2.68-.71-3.68-.15a1.84,1.84,0,0,0-.47,2.24,1.77,1.77,0,0,0,2.24.89"/><path class="a" d="M11.18,9.77a2,2,0,0,1,.89-.2,2.1,2.1,0,0,1,.81.2"/><path class="a" d="M8.89,9.68a6.63,6.63,0,0,1-.12,2.68,28.11,28.11,0,0,1-1.4,3.23,8.42,8.42,0,0,0-.48,3.55"/><line class="a" x1="8.42" y1="6.34" x2="7.91" y2="4.37"/><path class="a" d="M12,6.63c1.48,0,2.68-.71,3.68-.15a1.84,1.84,0,0,1,.47,2.24,1.77,1.77,0,0,1-2.24.89"/><path class="a" d="M15.11,9.68a6.63,6.63,0,0,0,.12,2.68,28.11,28.11,0,0,0,1.4,3.23,8.42,8.42,0,0,1,.48,3.55"/><line class="a" x1="15.58" y1="6.34" x2="16.09" y2="4.37"/></svg>