<svg xmlns="http://www.w3.org/2000/svg" viewBox="0 0 24 24"><title>Graduation</title><polyline points="4.83 15.32 5.74 4.93 9.84 2.03" style="fill:none;stroke:#000;stroke-linecap:round;stroke-linejoin:round"/><line x1="11.97" y1="3.62" x2="10.73" y2="5.3" style="fill:none;stroke:#000;stroke-linecap:round;stroke-linejoin:round"/><line x1="11.97" y1="3.62" x2="9.84" y2="2.03" style="fill:none;stroke:#000;stroke-linecap:round;stroke-linejoin:round"/><line x1="12" y1="6.79" x2="8.66" y2="2.86" style="fill:none;stroke:#000;stroke-linecap:round;stroke-linejoin:round"/><line x1="12" y1="10.62" x2="6.62" y2="4.31" style="fill:none;stroke:#000;stroke-linecap:round;stroke-linejoin:round"/><path d="M7.42,7.54a56.8,56.8,0,0,1-.8,8.87c-.14.68-.33,1.53-.5,2.18" style="fill:none;stroke:#000;stroke-linecap:round;stroke-linejoin:round"/><path d="M4.84,15.32a1.56,1.56,0,0,0,.85.48,1.67,1.67,0,0,0,1.08-.15" style="fill:none;stroke:#000;stroke-linecap:round;stroke-linejoin:round"/><path d="M5,13.35a2,2,0,0,0,.94.49,1.87,1.87,0,0,0,1.1-.1" style="fill:none;stroke:#000;stroke-linecap:round;stroke-linejoin:round"/><polyline points="18.87 11.93 18.26 4.93 14.16 2.03" style="fill:none;stroke:#000;stroke-linecap:round;stroke-linejoin:round"/><line x1="12.03" y1="3.61" x2="13.27" y2="5.3" style="fill:none;stroke:#000;stroke-linecap:round;stroke-linejoin:round"/><line x1="12.03" y1="3.61" x2="14.16" y2="2.03" style="fill:none;stroke:#000;stroke-linecap:round;stroke-linejoin:round"/><line x1="12" y1="6.79" x2="15.34" y2="2.86" style="fill:none;stroke:#000;stroke-linecap:round;stroke-linejoin:round"/><line x1="12" y1="10.62" x2="17.38" y2="4.31" style="fill:none;stroke:#000;stroke-linecap:round;stroke-linejoin:round"/><path d="M17.1,14.89c.08.5.17,1,.28,1.52.15.68.34,1.53.5,2.18" style="fill:none;stroke:#000;stroke-linecap:round;stroke-linejoin:round"/><path d="M16.58,7.54c.07,1.12.11,2.26.16,3.42" style="fill:none;stroke:#000;stroke-linecap:round;stroke-linejoin:round"/><line x1="11.77" y1="12.8" x2="16.28" y2="10.75" style="fill:none;stroke:#000;stroke-linecap:round;stroke-linejoin:round"/><line x1="20.79" y1="12.8" x2="16.28" y2="10.75" style="fill:none;stroke:#000;stroke-linecap:round;stroke-linejoin:round"/><path d="M14.23,13.37a3.89,3.89,0,0,1,2-.57,4,4,0,0,1,2.07.6" style="fill:none;stroke:#000;stroke-linecap:round;stroke-linejoin:round"/><path d="M14.23,15.37a3.89,3.89,0,0,1,4.1,0" style="fill:none;stroke:#000;stroke-linecap:round;stroke-linejoin:round"/><line x1="14.23" y1="13.37" x2="14.23" y2="15.37" style="fill:none;stroke:#000;stroke-linecap:round;stroke-linejoin:round"/><line x1="18.33" y1="13.4" x2="18.33" y2="15.4" style="fill:none;stroke:#000;stroke-linecap:round;stroke-linejoin:round"/><line x1="14.23" y1="13.92" x2="11.77" y2="12.8" style="fill:none;stroke:#000;stroke-linecap:round;stroke-linejoin:round"/><line x1="18.33" y1="13.92" x2="20.79" y2="12.8" style="fill:none;stroke:#000;stroke-linecap:round;stroke-linejoin:round"/><line x1="20.79" y1="12.8" x2="20.79" y2="15.62" style="fill:none;stroke:#000;stroke-linecap:round;stroke-linejoin:round"/><path d="M21.39,16.72c0-.66-.34-1.1-.61-1.1s-.64.44-.62,1.1Z" style="stroke:#000;stroke-linecap:round;stroke-linejoin:round"/><path d="M12,22a13.26,13.26,0,0,1,5.88-3.39" style="fill:none;stroke:#000;stroke-linecap:round;stroke-linejoin:round;fill-rule:evenodd"/><path d="M6.12,18.59A13.36,13.36,0,0,1,12,22" style="fill:none;stroke:#000;stroke-linecap:round;stroke-linejoin:round;fill-rule:evenodd"/></svg>