<svg xmlns="http://www.w3.org/2000/svg" viewBox="0 0 24 24"><title>Halloween</title><path d="M12,11.68a4.8,4.8,0,0,1-1.62-.76A4.29,4.29,0,0,1,9.06,9.45v-3a1.48,1.48,0,0,1,2.94,0" style="fill:none;stroke:#000;stroke-linecap:round;stroke-linejoin:round"/><path d="M12,21.14a17.29,17.29,0,0,0-3.51-2.33A17,17,0,0,0,5,17.53V14.6a.69.69,0,0,1,.17-.48.59.59,0,0,1,.43-.27l1-.14,3.81-.7V11" style="fill:none;stroke:#000;stroke-linecap:round;stroke-linejoin:round"/><path d="M9.06,7.71,7,6.15a3.55,3.55,0,0,0,.87,2.48,3.43,3.43,0,0,0,1.19.82" style="fill:none;stroke:#000;stroke-linecap:round;stroke-linejoin:round"/><path d="M8,6.93A3.52,3.52,0,0,1,8.47,4.1,4.38,4.38,0,0,1,12,2.86" style="fill:none;stroke:#000;stroke-linecap:round;stroke-linejoin:round"/><path d="M7.87,8.63a2.77,2.77,0,0,0-1,.5A2.66,2.66,0,0,0,6,10.25a12.65,12.65,0,0,1,2.63,1.89A13.54,13.54,0,0,1,12,17" style="fill:none;stroke:#000;stroke-linecap:round;stroke-linejoin:round"/><path d="M12,11.68a4.8,4.8,0,0,0,1.62-.76,4.29,4.29,0,0,0,1.32-1.47v-3a1.48,1.48,0,0,0-2.94,0" style="fill:none;stroke:#000;stroke-linecap:round;stroke-linejoin:round"/><path d="M12,21.14a17.29,17.29,0,0,1,3.51-2.33A17,17,0,0,1,19,17.53V14.6a.69.69,0,0,0-.17-.48.59.59,0,0,0-.43-.27l-1-.14L13.59,13V11" style="fill:none;stroke:#000;stroke-linecap:round;stroke-linejoin:round"/><path d="M14.94,7.71,17,6.15a3.55,3.55,0,0,1-.87,2.48,3.43,3.43,0,0,1-1.19.82" style="fill:none;stroke:#000;stroke-linecap:round;stroke-linejoin:round"/><path d="M16,6.93a3.52,3.52,0,0,0-.44-2.83A4.38,4.38,0,0,0,12,2.86" style="fill:none;stroke:#000;stroke-linecap:round;stroke-linejoin:round"/><path d="M16.13,8.63a2.77,2.77,0,0,1,1,.5A2.66,2.66,0,0,1,18,10.25a12.65,12.65,0,0,0-2.63,1.89A13.67,13.67,0,0,0,12,17" style="fill:none;stroke:#000;stroke-linecap:round;stroke-linejoin:round"/><path d="M10.42,8.91A2.4,2.4,0,0,0,12,9.47" style="fill:none;stroke:#000;stroke-linecap:round;stroke-linejoin:round"/><line x1="10.89" y1="9.22" x2="10.89" y2="10" style="fill:none;stroke:#000;stroke-linecap:round;stroke-linejoin:round"/><path d="M13.63,8.91a2.36,2.36,0,0,1-1.6.56" style="fill:none;stroke:#000;stroke-linecap:round;stroke-linejoin:round"/><line x1="13.17" y1="9.22" x2="13.17" y2="10" style="fill:none;stroke:#000;stroke-linecap:round;stroke-linejoin:round"/></svg>