<svg xmlns="http://www.w3.org/2000/svg" fill-rule="evenodd" stroke-linecap="round" stroke-linejoin="round" stroke-miterlimit="10" clip-rule="evenodd" viewBox="0 0 24 24" xml:space="preserve"><path fill="none" d="M0-168h240V72H0z"/><path fill="none" stroke="currentColor" d="M12 8.697c-1.729-1.873-3.458-2.183-4.678-1.416-1.264.792-1.671 2.345-1.552 3.379.492 4.281 4.59 5.409 6.23 6.449m0-8.412c1.729-1.873 3.458-2.183 4.678-1.416 1.264.792 1.671 2.345 1.552 3.379-.492 4.281-4.59 5.409-6.23 6.449m2.414-7.523 3.288-3.288M6.22 17.78l2.496-2.495M19.5 4.5l-2.751.737 2.014 2.014L19.5 4.5zM7.942 16.058l-1.626-.19L4.5 17.534l1.72.246m1.722-1.722.19 1.626L6.466 19.5l-.246-1.72"/></svg>