<svg xmlns="http://www.w3.org/2000/svg" viewBox="0 0 24 24"><title>Hiking</title><path d="M6.85,19.43a14.14,14.14,0,0,1,1.82.68A11.85,11.85,0,0,1,12,22.55" style="fill:none;stroke:#000;stroke-linecap:round;stroke-linejoin:round"/><path d="M6.84,19.49h-2L5.51,8.23a2.36,2.36,0,0,1,.42-1,3.5,3.5,0,0,1,.83-.83C7.7,6,9.25,5.54,10.2,5.13" style="fill:none;stroke:#000;stroke-linecap:round;stroke-linejoin:round"/><line x1="7.22" y1="16.82" x2="12" y2="16.82" style="fill:none;stroke:#000;stroke-linecap:round;stroke-linejoin:round"/><line x1="11.04" y1="18.42" x2="12" y2="19.39" style="fill:none;stroke:#000;stroke-linecap:round;stroke-linejoin:round"/><path d="M10.2,5.13V3.5a3.25,3.25,0,0,0,1.8.67" style="fill:none;stroke:#000;stroke-linecap:round;stroke-linejoin:round"/><path d="M7.25,6.38a4.48,4.48,0,0,1,.2,2,4.64,4.64,0,0,1-.3,1.21c-.06,1.57.45,3.23.4,4.79,0,1.73-.63,3.36-.7,5.1v.06" style="fill:none;stroke:#000;stroke-linecap:round;stroke-linejoin:round"/><path d="M8.81,5.72a4,4,0,0,1,.3,2.39,4.26,4.26,0,0,1-1.89,2.83" style="fill:none;stroke:#000;stroke-linecap:round;stroke-linejoin:round"/><line x1="12" y1="19.39" x2="12" y2="22.55" style="fill:none;stroke:#000;stroke-linecap:round;stroke-linejoin:round"/><path d="M8.79,9.15A16.61,16.61,0,0,1,12,8.82" style="fill:none;stroke:#000;stroke-linecap:round;stroke-linejoin:round"/><path d="M7.22,10.94A35.4,35.4,0,0,1,12,10.62" style="fill:none;stroke:#000;stroke-linecap:round;stroke-linejoin:round"/><path d="M7.51,13.23a29.39,29.39,0,0,0,4.49.3" style="fill:none;stroke:#000;stroke-linecap:round;stroke-linejoin:round"/><path d="M7.51,15a33.79,33.79,0,0,0,4.49.24" style="fill:none;stroke:#000;stroke-linecap:round;stroke-linejoin:round"/><path d="M17.15,19.43a13.11,13.11,0,0,0-1.82.68A11.85,11.85,0,0,0,12,22.55" style="fill:none;stroke:#000;stroke-linecap:round;stroke-linejoin:round"/><path d="M17.15,19.49h2.06L18.48,8.23a2.18,2.18,0,0,0-.41-1,2.31,2.31,0,0,0-.83-.67c-.95-.41-2.5-1-3.44-1.46" style="fill:none;stroke:#000;stroke-linecap:round;stroke-linejoin:round"/><line x1="12.96" y1="18.42" x2="11.99" y2="19.39" style="fill:none;stroke:#000;stroke-linecap:round;stroke-linejoin:round"/><polyline points="12 15.23 12 16.82 16.78 16.82" style="fill:none;stroke:#000;stroke-linecap:round;stroke-linejoin:round"/><line x1="12" y1="10.62" x2="12" y2="13.53" style="fill:none;stroke:#000;stroke-linecap:round;stroke-linejoin:round"/><path d="M13.8,5.13V3.5a3.32,3.32,0,0,1-1.8.67V8.82" style="fill:none;stroke:#000;stroke-linecap:round;stroke-linejoin:round"/><path d="M16.74,6.38a4.81,4.81,0,0,0-.2,2,4.6,4.6,0,0,0,.31,1.21c0,1.57-.45,3.23-.41,4.79.06,1.75.65,3.4.71,5.16" style="fill:none;stroke:#000;stroke-linecap:round;stroke-linejoin:round"/><path d="M15.18,5.72a4.18,4.18,0,0,0-.3,2.39,4.26,4.26,0,0,0,1.9,2.83" style="fill:none;stroke:#000;stroke-linecap:round;stroke-linejoin:round"/><path d="M15.21,9.15A16.79,16.79,0,0,0,12,8.82" style="fill:none;stroke:#000;stroke-linecap:round;stroke-linejoin:round"/><path d="M16.78,10.94A35.51,35.51,0,0,0,12,10.62" style="fill:none;stroke:#000;stroke-linecap:round;stroke-linejoin:round"/><path d="M16.49,13.23a29.48,29.48,0,0,1-4.49.3" style="fill:none;stroke:#000;stroke-linecap:round;stroke-linejoin:round"/><path d="M16.49,15a34,34,0,0,1-4.49.24" style="fill:none;stroke:#000;stroke-linecap:round;stroke-linejoin:round"/><line x1="13.8" y1="3.5" x2="17.93" y2="3.5" style="fill:none;stroke:#000;stroke-linecap:round;stroke-linejoin:round"/><path d="M10.2,3.5H6.06a2.79,2.79,0,0,0-.68,1.91,2.87,2.87,0,0,0,.68,1.7" style="fill:none;stroke:#000;stroke-linecap:round;stroke-linejoin:round"/><path d="M17.93,3.5a2.85,2.85,0,0,0-.67,1.91,2.82,2.82,0,0,0,.67,1.7" style="fill:none;stroke:#000;stroke-linecap:round;stroke-linejoin:round"/><path d="M17.93,3.5a2.73,2.73,0,0,1,0,3.61" style="fill:none;stroke:#000;stroke-linecap:round;stroke-linejoin:round"/></svg>