<svg xmlns="http://www.w3.org/2000/svg" fill-rule="evenodd" stroke-linecap="round" stroke-linejoin="round" stroke-miterlimit="10" clip-rule="evenodd" viewBox="0 0 24 24" xml:space="preserve"><path fill="none" d="M-24-24h240v240H-24z"/><path fill="none" stroke="currentColor" d="M15.674 9.223c-.327-.463-.932-.603-1.367-.368-.508.273-.703 1.011-.323 1.566m-.001.001c-.02.049-.358.937.162 1.58.191.235.428.353.584.411m2.843-3.19c.327-.463.932-.603 1.367-.368.508.273.703 1.011.323 1.566m.001.001c.02.049.358.937-.162 1.58a1.357 1.357 0 0 1-.584.411m-2.843-3.19h1.898m-2.842 3.19a6.859 6.859 0 0 0 3.88 0m-2.255-1.331h.538m-1.054 4.563a.884.884 0 1 0-1.769 0 .884.884 0 0 0 1.769 0zm3.335 0a.884.884 0 1 0-1.769 0 .884.884 0 0 0 1.769 0zm-4.906-3.328c-.109.096-.53.792-.525 1.832.004.814.152 1.306.28 1.453m4.956-3.327c.11.096.53.792.525 1.832-.004.814-.152 1.306-.28 1.453m-3.397.226h1.592"/><path fill="none" stroke="currentColor" d="M14.031 12.519c-.688-.104-1.276.421-1.285 1.002-.007.504.421.991 1.013 1.048m5.457-2.05c.687-.104 1.275.421 1.284 1.002.008.504-.421.991-1.013 1.048m-3.188 3.506a10.9 10.9 0 0 0-1.86.709c-1.566.757-2.831 1.853-3.453 2.526m-5.313-3.235c.567.154 1.2.39 1.859.709 1.566.757 2.832 1.853 3.454 2.526M6.044 7.316l-.371 10.759m0 0H3.5l.787-12.164 4.384-3.1m7.549 12.975.079 2.289m-.372-10.759.066 1.907M13.305 2.69l4.38 3.221.192 2.973M5.928 15.148h7.857m-2.84-10.644v10.259"/><path fill-rule="nonzero" d="M9.747 8.27a.538.538 0 1 1-1.076 0 .538.538 0 0 1 1.076 0m0 2.704a.538.538 0 1 1-1.076 0 .538.538 0 0 1 1.076 0m0 2.706a.537.537 0 1 1-1.075 0 .537.537 0 0 1 1.075 0"/><path fill="none" stroke="currentColor" d="M10.987 17.911v3.399m-1.035-4.435 1.035 1.036m1.036-1.036-1.036 1.036m-.042-13.407L9.578 6.368 6.733 4.182m4.212.322L8.671 2.812m2.274 1.692 2.359-1.813m-2.359 1.813 1.367 1.864 2.845-2.186"/></svg>