<svg xmlns="http://www.w3.org/2000/svg" viewBox="0 0 24 24"><title>Mardi Gras</title><path d="M5.35,18.92c0-.94,0-1.84,0-2.77a.66.66,0,0,1,.16-.46.62.62,0,0,1,.41-.26l.92-.13,3.65-.66v-2" style="fill:none;stroke:#000;stroke-linecap:round;stroke-linejoin:round"/><path d="M12,22.45a17.18,17.18,0,0,0-3.5-2.33,17.13,17.13,0,0,0-3.14-1.2" style="fill:none;stroke:#000;stroke-linecap:round;stroke-linejoin:round"/><path d="M12,13.35a4.67,4.67,0,0,0,1.55-.71,3.67,3.67,0,0,0,1.18-1.3" style="fill:none;stroke:#000;stroke-linecap:round;stroke-linejoin:round"/><path d="M18.65,18.91V16.15a.69.69,0,0,0-.15-.46.63.63,0,0,0-.42-.26l-.92-.13-3.65-.66v-2" style="fill:none;stroke:#000;stroke-linecap:round;stroke-linejoin:round"/><path d="M12,22.45a17,17,0,0,1,3.51-2.33,17.25,17.25,0,0,1,3.14-1.21" style="fill:none;stroke:#000;stroke-linecap:round;stroke-linejoin:round"/><path d="M12,9.33a2.25,2.25,0,0,1,1.12-.87c.7-.25,1.42.61,2.81-.34A2.82,2.82,0,0,1,15.25,11c-.84.83-1.81.49-3.25.49" style="fill:none;stroke:#000;stroke-linecap:round;stroke-linejoin:round"/><line x1="13.17" y1="10.2" x2="14.03" y2="9.96" style="fill:none;stroke:#000;stroke-linecap:round;stroke-linejoin:round"/><path d="M15.39,6.53A.56.56,0,0,0,15.6,6a.61.61,0,0,0-.67-.59c-.65,0-.85.6-1.42,3" style="fill:none;stroke:#000;stroke-linecap:round;stroke-linejoin:round"/><path d="M12,13.35a4.67,4.67,0,0,1-1.55-.71,3.67,3.67,0,0,1-1.18-1.3" style="fill:none;stroke:#000;stroke-linecap:round;stroke-linejoin:round"/><path d="M12,9.33a2.25,2.25,0,0,0-1.12-.87c-.69-.25-1.42.61-2.81-.34A2.84,2.84,0,0,0,8.74,11c.84.83,1.82.49,3.25.49" style="fill:none;stroke:#000;stroke-linecap:round;stroke-linejoin:round"/><line x1="10.82" y1="10.2" x2="9.96" y2="9.96" style="fill:none;stroke:#000;stroke-linecap:round;stroke-linejoin:round"/><path d="M12,9.33A20.7,20.7,0,0,0,11.52,6a3.69,3.69,0,0,0-1.13-1.59" style="fill:none;stroke:#000;stroke-linecap:round;stroke-linejoin:round"/><path d="M12,9.33A20.7,20.7,0,0,1,12.48,6a3.69,3.69,0,0,1,1.13-1.59" style="fill:none;stroke:#000;stroke-linecap:round;stroke-linejoin:round"/><path d="M8.6,6.53A.58.58,0,0,1,8.39,6a.62.62,0,0,1,.68-.59c.64,0,.85.6,1.41,3" style="fill:none;stroke:#000;stroke-linecap:round;stroke-linejoin:round"/><path d="M8.66,5.52A1.55,1.55,0,0,1,8,3.63a1.56,1.56,0,0,1,2.06-.77,2.08,2.08,0,0,1,3.83,0A1.56,1.56,0,0,1,16,3.63a1.55,1.55,0,0,1-.64,1.89" style="fill:none;stroke:#000;stroke-linecap:round;stroke-linejoin:round"/><path d="M7.53,19.68a2.31,2.31,0,0,1,4.47,0" style="fill:none;stroke:#000;stroke-linecap:round;stroke-linejoin:round"/><path d="M10.48,14.64c-.4-1.75-1.47-2.77-2.42-2.78a1.47,1.47,0,0,0-1,.49,1,1,0,0,0,.18,1.44,1,1,0,0,0,1.27-.2" style="fill:none;stroke:#000;stroke-linecap:round;stroke-linejoin:round"/><path d="M6.9,13.25a2.12,2.12,0,0,0-1.23,1,2.07,2.07,0,0,0-.17,1.43" style="fill:none;stroke:#000;stroke-linecap:round;stroke-linejoin:round"/><path d="M16.47,19.68a2.31,2.31,0,0,0-4.47,0" style="fill:none;stroke:#000;stroke-linecap:round;stroke-linejoin:round"/><path d="M13.52,14.64c.4-1.75,1.47-2.77,2.42-2.78a1.47,1.47,0,0,1,1,.49,1,1,0,0,1-.18,1.44,1,1,0,0,1-1.27-.2" style="fill:none;stroke:#000;stroke-linecap:round;stroke-linejoin:round"/><path d="M17.1,13.25a2.12,2.12,0,0,1,1.23,1,2.07,2.07,0,0,1,.17,1.43" style="fill:none;stroke:#000;stroke-linecap:round;stroke-linejoin:round"/><path d="M9.32,8.57a1,1,0,0,1,.92-1.17" style="fill:none;stroke:#000;stroke-linecap:round;stroke-linejoin:round"/><path d="M14.68,8.57a1,1,0,0,0-.92-1.17" style="fill:none;stroke:#000;stroke-linecap:round;stroke-linejoin:round"/><circle cx="10.49" cy="16" r="0.5"/><circle cx="8.69" cy="16.5" r="0.5"/><circle cx="13.49" cy="16" r="0.5"/><circle cx="15.29" cy="16.5" r="0.5"/></svg>