<svg xmlns="http://www.w3.org/2000/svg" fill-rule="evenodd" stroke-linecap="round" stroke-linejoin="round" stroke-miterlimit="10" clip-rule="evenodd" viewBox="0 0 24 24" xml:space="preserve"><path fill="none" d="M0-24h240v240H0z"/><g fill="none" stroke="currentColor"><path d="M6.473 17.609c-.411.943-.731 1.676-.949 2.159m1.776.791 1.068-4.465m2.182 2.088-.593 3.416m1.46-12.8c.096-.048.325-.128.583-.123.258-.005.487.075.583.123"/><path d="m9.19 8.759.163 2.1c-1.18.788-1.896 1.615-2.326 2.217-.606.845-.801 1.454-1.939 4.063-.412.943-.754 1.706-.972 2.19h.002c-.068.214-.066.443.527.639.375.124.787-.048.827-.125.145-.275.604-.333 1.12-.167.516.165.716.863.708.881-.092.195-.012.936 1.035 1.285.592.197 1.739.295 1.632-.243.492-.607 1.04-1.091 2.033-1.018h0c.993-.073 1.541.411 2.033 1.018-.107.538 1.04.44 1.632.243 1.047-.349 1.127-1.09 1.035-1.285-.008-.018.192-.716.708-.881.516-.166.975-.108 1.12.167.04.077.452.249.827.125.593-.196.595-.425.527-.639h.002c-.218-.484-.56-1.247-.972-2.19-1.138-2.609-1.333-3.218-1.939-4.063-.43-.602-1.146-1.429-2.326-2.217l.163-2.1"/><path d="M10.161 8.716c-.827.263-1.697-.085-2.057-.753-.433-.804-.119-1.914.855-2.345.002-.286.043-1.487.982-2.499A3.718 3.718 0 0 1 12 2.001c-.096.058-1.309.835-1.336 2.18-.018.907.515 1.584.651 1.752.244.299.503.494.685.611.182-.117.441-.312.685-.611.136-.168.669-.845.651-1.752-.027-1.345-1.24-2.122-1.336-2.18a3.718 3.718 0 0 1 2.059 1.118c.939 1.012.98 2.213.982 2.499.974.431 1.288 1.541.855 2.345-.36.668-1.23 1.016-2.057.753m3.688 8.893c.411.943.731 1.676.949 2.159m-1.776.791-1.068-4.465m-2.182 2.088.593 3.416"/></g></svg>