<svg xmlns="http://www.w3.org/2000/svg" viewBox="0 0 24 24"><title>Oktoberfest</title><path d="M12,12.48a5.07,5.07,0,0,1-1.63-.75,4.52,4.52,0,0,1-1.32-1.48V8" style="fill:none;stroke:#000;stroke-linecap:round;stroke-linejoin:round"/><path d="M12,12.48a5,5,0,0,0,1.62-.75,4.41,4.41,0,0,0,1.32-1.48V8" style="fill:none;stroke:#000;stroke-linecap:round;stroke-linejoin:round"/><path d="M9.05,6a1.89,1.89,0,0,0,0,2h3.86l.78-1.73,1,1.73H15a2.93,2.93,0,0,0,.18-1.19A2.71,2.71,0,0,0,15,6" style="fill:none;stroke:#000;stroke-linecap:round;stroke-linejoin:round"/><line x1="7.68" y1="5.97" x2="16.21" y2="5.97" style="fill:none;stroke:#000;stroke-linecap:round;stroke-linejoin:round"/><rect x="8.78" y="4.65" width="6.33" height="1.32" style="fill:none;stroke:#000;stroke-linecap:round;stroke-linejoin:round"/><path d="M8.78,4.65c0-1.1-.1-2.06,1-2.4,1.56-.46,1.95.63,3.28.88" style="fill:none;stroke:#000;stroke-linecap:round;stroke-linejoin:round"/><path d="M15.11,4.65c0-1.51.05-2.34-.88-2.52S13,2.14,12,2.68" style="fill:none;stroke:#000;stroke-linecap:round;stroke-linejoin:round"/><path d="M8.28,14.21l-1.68.31-1,.13a.66.66,0,0,0-.44.27A.71.71,0,0,0,5,15.4v2.93a17.66,17.66,0,0,1,3.45,1.28A17.57,17.57,0,0,1,12,22" style="fill:none;stroke:#000;stroke-linecap:round;stroke-linejoin:round"/><path d="M9.05,10.25a1.91,1.91,0,0,0-.7,1.8,1.87,1.87,0,0,0,.7,1.1,1.42,1.42,0,0,0-.78,1.4,1.51,1.51,0,0,0,.78,1.1h1.4a1.66,1.66,0,0,0,.62-1.16,1.68,1.68,0,0,0-.64-1.34.94.94,0,0,0,.32-.57,1,1,0,0,0-.34-.82" style="fill:none;stroke:#000;stroke-linecap:round;stroke-linejoin:round"/><polyline points="9.05 15.65 8.68 17.65 9.75 17.65" style="fill:none;stroke:#000;stroke-linecap:round;stroke-linejoin:round"/><polyline points="10.45 15.65 10.82 17.65 9.75 17.65" style="fill:none;stroke:#000;stroke-linecap:round;stroke-linejoin:round"/><line x1="7.31" y1="14.39" x2="7.31" y2="19.08" style="fill:none;stroke:#000;stroke-linecap:round;stroke-linejoin:round"/><line x1="9.45" y1="17.65" x2="9.45" y2="20.13" style="fill:none;stroke:#000;stroke-linecap:round;stroke-linejoin:round"/><line x1="10.82" y1="17.65" x2="11.94" y2="17.65" style="fill:none;stroke:#000;stroke-linecap:round;stroke-linejoin:round"/><path d="M15.71,14.21l1.68.31,1,.13a.66.66,0,0,1,.44.27.71.71,0,0,1,.16.48v2.93a17.36,17.36,0,0,0-3.44,1.28A17,17,0,0,0,12,22" style="fill:none;stroke:#000;stroke-linecap:round;stroke-linejoin:round"/><path d="M14.94,10.25a1.91,1.91,0,0,1,.7,1.8,1.87,1.87,0,0,1-.7,1.1,1.42,1.42,0,0,1,.78,1.4,1.51,1.51,0,0,1-.78,1.1h-1.4a1.56,1.56,0,0,1,0-2.5.93.93,0,0,1-.33-.57,1,1,0,0,1,.34-.82" style="fill:none;stroke:#000;stroke-linecap:round;stroke-linejoin:round"/><polyline points="14.94 15.65 15.31 17.65 14.24 17.65" style="fill:none;stroke:#000;stroke-linecap:round;stroke-linejoin:round"/><polyline points="13.54 15.65 13.17 17.65 14.24 17.65" style="fill:none;stroke:#000;stroke-linecap:round;stroke-linejoin:round"/><line x1="16.69" y1="14.39" x2="16.69" y2="19.08" style="fill:none;stroke:#000;stroke-linecap:round;stroke-linejoin:round"/><line x1="14.54" y1="17.65" x2="14.54" y2="20.13" style="fill:none;stroke:#000;stroke-linecap:round;stroke-linejoin:round"/><line x1="13.17" y1="17.65" x2="11.94" y2="17.65" style="fill:none;stroke:#000;stroke-linecap:round;stroke-linejoin:round"/></svg>