<svg viewBox="0 0 24 24" xmlns="http://www.w3.org/2000/svg" xml:space="preserve" style="fill-rule:evenodd;clip-rule:evenodd;stroke-linecap:round;stroke-linejoin:round;stroke-miterlimit:10"><path style="fill:none" d="M-24 0h240v240H-24z"/><path d="M11.233 6.012s-.47 3.082-.685 4.508c.221.615.613 1.614.46 2.838-.237 1.885-.802 3.031-.545 4.227a5.292 5.292 0 0 1-.235 1.723H4.673a1.074 1.074 0 0 1-.211-.643s.009-.309.211-.585c.483-.656 1.492-.347 2.718-.905a1.328 1.328 0 0 0 .806-1.197l-.506-4.661a1.74 1.74 0 0 1-.615-1.083c-.1-.719.303-1.231.371-1.316l-.864-5.464c.575.158 1.213.383 1.88.706a12.698 12.698 0 0 1 2.77 1.852zm5.757 11.332c1.392.418 1.562.508 2.317.736.327.099.211.585.211.585.008.312-.142.546-.211.643h-5.555a5.991 5.991 0 0 1-.076-.266c-.135-.53-.131-1.266-.118-1.698h3.432" style="fill:none;stroke:currentColor;stroke-width:1px"/><path d="M14.808 15.951v1.393" style="fill:none;fill-rule:nonzero;stroke:currentColor;stroke-width:1px"/><path d="m15.783 15.951.506-4.635v.001a5.075 5.075 0 0 0-1.844.602c-.746.415-1.208 1.109-1.472 1.439h-.001c.133 1.06.381 1.859.518 2.593h2.293z" style="fill:none;stroke:currentColor;stroke-width:1px"/><path d="M15.525 12.7a.375.375 0 1 1-.75 0 .375.375 0 0 1 .75 0" style="fill-rule:nonzero"/><path d="M13.383 10.19c.277.079.712.208 1.412.021 1.06-.284 1.605-1.083 1.738-1.292v-.001l.866-5.47c-.576.158-1.216.384-1.887.708A12.794 12.794 0 0 0 12.75 6l.633 4.19z" style="fill:none;stroke:currentColor;stroke-width:1px"/><path d="M14.808 10.207v1.528" style="fill:none;fill-rule:nonzero;stroke:currentColor;stroke-width:1px"/><path d="M14.933 18.326a.375.375 0 1 1-.75 0 .375.375 0 0 1 .75 0" style="fill-rule:nonzero"/></svg>