<svg xmlns="http://www.w3.org/2000/svg" viewBox="0 0 24 24"><defs><style>.a{fill:none;stroke:#000;stroke-linecap:round;stroke-linejoin:round;}</style></defs><title>Purse</title><path class="a" d="M12,9.39H8.59c-1,0-1.4,0-1.89.41A2.6,2.6,0,0,0,6,11.16c-.6,2-2.15,4.61-1.33,6.59C5.8,20.59,9,19.64,12,19.64"/><path class="a" d="M4.77,14.37c0-2.09-.68-3.67.52-5.41,1-1.49,4.09-1.25,6.71-1.25"/><line class="a" x1="8.78" y1="7.72" x2="10.93" y2="5.28"/><circle cx="10.93" cy="5.28" r="1.07"/><path class="a" d="M12,9.39h3.41c1,0,1.4,0,1.89.41a2.6,2.6,0,0,1,.75,1.36c.6,2,2.15,4.61,1.33,6.59C18.2,20.59,15,19.64,12,19.64"/><path class="a" d="M19.23,14.37c0-2.09.68-3.67-.52-5.41-1-1.49-4.09-1.25-6.71-1.25"/><line class="a" x1="15.22" y1="7.72" x2="13.07" y2="5.28"/><circle cx="13.07" cy="5.28" r="1.07"/></svg>