<svg xmlns="http://www.w3.org/2000/svg" fill-rule="evenodd" stroke-linecap="round" stroke-linejoin="round" stroke-miterlimit="10" clip-rule="evenodd" viewBox="0 0 24 24" xml:space="preserve"><path fill="none" d="M0-144h240V96H0z"/><path fill="none" stroke="currentColor" d="M6.372 17.023a11.37 11.37 0 0 1 1.979.74c1.654.8 2.991 1.958 3.648 2.669m5.628-3.409c-.604.164-1.276.399-1.98.74-1.654.8-2.991 1.958-3.648 2.669M9 10.07l-2.628 6.944M15 10.07l2.627 6.944M8.999 10.07h6M4.998 13.61v2.94m14.003-2.94v2.94"/><path d="M20.001 12.61a1.001 1.001 0 0 0-2 0 1 1 0 0 0 2 0zm-14.002 0a1 1 0 1 0-2 0 1 1 0 0 0 2 0zM8.4 7.41a.748.748 0 0 0-.747-.75.749.749 0 0 0 0 1.5.748.748 0 0 0 .747-.75zm8.686.009a.75.75 0 0 0-.748-.75.749.749 0 0 0 0 1.5.75.75 0 0 0 .748-.75z"/><path fill="none" stroke="currentColor" d="M7.653 8.169v1.552m8.685-1.552v1.552M4.998 13.61c.404-.421.844-.808 1.253-1.462.887-1.415 1.245-3.045 1.402-3.979m11.348 5.441c-.403-.421-.849-.808-1.259-1.462-.886-1.415-1.248-3.045-1.404-3.979m-4.122-2.247a2.892 2.892 0 0 0 1.073-.895c.418-.55.61-1.14.694-1.459.098.346.315.963.765 1.533.387.489.785.739 1.034.865-.138.009-.728.068-1.216.715-.494.653-.538 1.448-.544 1.631-.027-.248-.123-.929-.55-1.534-.487-.689-1.081-.825-1.256-.856zm-3.717 9.004c.186-.088.521-.28.837-.698.327-.43.475-.89.541-1.14.078.271.247.752.598 1.197.302.381.613.577.807.675-.108.007-.568.053-.949.558-.385.511-.419 1.131-.425 1.273-.02-.193-.096-.724-.43-1.197-.379-.537-.842-.644-.979-.668z"/></svg>