<svg xmlns="http://www.w3.org/2000/svg" viewBox="0 0 24 24"><title>Riding</title><path d="M6.67,18a10.24,10.24,0,0,1,1.86.69A12.46,12.46,0,0,1,12,21.25" style="fill:none;stroke:#000;stroke-linecap:round;stroke-linejoin:round"/><polyline points="7.04 7.26 7.64 11.75 6.67 18.03" style="fill:none;stroke:#000;stroke-linecap:round;stroke-linejoin:round"/><path d="M6.67,18H5.08V8.73a3.3,3.3,0,0,1,0-2.65A3.27,3.27,0,0,1,7.38,4.37L9.66,2.75A3.93,3.93,0,0,0,12,3.54a3.88,3.88,0,0,0,2.31-.79l2.29,1.62a3.29,3.29,0,0,1,2.24,1.71,3.28,3.28,0,0,1,0,2.65v1.86" style="fill:none;stroke:#000;stroke-linecap:round;stroke-linejoin:round"/><line x1="12" y1="5.24" x2="12" y2="14.31" style="fill:none;stroke:#000;stroke-linecap:round;stroke-linejoin:round"/><line x1="11.98" y1="17.85" x2="11.98" y2="21.25" style="fill:none;stroke:#000;stroke-linecap:round;stroke-linejoin:round"/><line x1="10.95" y1="16.81" x2="11.98" y2="17.85" style="fill:none;stroke:#000;stroke-linecap:round;stroke-linejoin:round"/><line x1="5.09" y1="8.73" x2="7.38" y2="9.83" style="fill:none;stroke:#000;stroke-linecap:round;stroke-linejoin:round"/><line x1="5.09" y1="10.73" x2="7.62" y2="11.95" style="fill:none;stroke:#000;stroke-linecap:round;stroke-linejoin:round"/><polyline points="7.14 8 9.99 9.2 9.99 13.28 7.16 14.89" style="fill:none;stroke:#000;stroke-linecap:round;stroke-linejoin:round"/><path d="M16.92,18.14a10.45,10.45,0,0,0-1.48.58A12.54,12.54,0,0,0,12,21.25" style="fill:none;stroke:#000;stroke-linecap:round;stroke-linejoin:round"/><line x1="16.92" y1="7.26" x2="16.57" y2="9.84" style="fill:none;stroke:#000;stroke-linecap:round;stroke-linejoin:round"/><line x1="13.02" y1="16.81" x2="11.98" y2="17.85" style="fill:none;stroke:#000;stroke-linecap:round;stroke-linejoin:round"/><polyline points="16.82 8 13.97 9.2 13.98 12.77" style="fill:none;stroke:#000;stroke-linecap:round;stroke-linejoin:round"/><path d="M8.81,3.35A3.51,3.51,0,0,0,12,5.24a3.49,3.49,0,0,0,3.19-1.86" style="fill:none;stroke:#000;stroke-linecap:round;stroke-linejoin:round"/><path d="M16.92,18.14a4.89,4.89,0,0,1-1.62-.76A4.4,4.4,0,0,1,14,15.91V12.86a2.95,2.95,0,1,1,5.89,0v3.05a4.4,4.4,0,0,1-1.32,1.47,4.81,4.81,0,0,1-1.63.76" style="fill:none;stroke:#000;stroke-linecap:round;stroke-linejoin:round"/><path d="M14,12.86a6.15,6.15,0,0,1,5.89,0" style="fill:none;stroke:#000;stroke-linecap:round;stroke-linejoin:round"/><path d="M14,15a6.15,6.15,0,0,0,5.89,0" style="fill:none;stroke:#000;stroke-linecap:round;stroke-linejoin:round"/></svg>