<svg xmlns="http://www.w3.org/2000/svg" fill-rule="evenodd" stroke-linecap="round" stroke-linejoin="round" stroke-miterlimit="10" clip-rule="evenodd" viewBox="0 0 24 24" xml:space="preserve"><path fill="none" d="M-24-48h240v240H-24z"/><g fill="none" stroke="currentColor"><path d="M18.359 17.609a9.842 9.842 0 0 0-3.044 1.009 11.93 11.93 0 0 0-3.306 2.625m-1.989-10.74c0-.544.441-.985.985-.985h.001c.544 0 .985.441.985.985v1.03a.985.985 0 0 1-.985.985h-.001a.985.985 0 0 1-.985-.985v-1.03zm0-.484H7.925v1.998h2.095m1.971 0h4.086v-1.998h-4.086"/><path d="M11.991 12.017v9.258H10.02v-9.258"/><path d="M10.029 19.633a19.763 19.763 0 0 0-1.07-.627c-1.185-.621-3.299-1.397-3.299-1.397l2.265-5.592"/><path d="m18.359 17.609-2.282-5.592m-8.152-1.998-.419-2.442m8.571 2.442.42-2.442M8.199 3.202l4.787 6.817-4.787-6.817zm3.589 5.11 4.034-5.111m-7.623.001-1.629.686a1.73 1.73 0 0 0-1.065 1.597v10.838h.676m9.641-13.121 1.608.686a1.73 1.73 0 0 1 1.065 1.597v10.838h-.656"/></g><path fill="none" stroke="currentColor" d="M13.22 26.22a1.22 1.22 0 1 0-2.438 0 1.22 1.22 0 0 0 2.438 0z"/></svg>