<svg xmlns="http://www.w3.org/2000/svg" viewBox="0 0 24 24"><defs><style>.a{fill:none;stroke:#000;stroke-linecap:round;stroke-linejoin:round;}</style></defs><title>Scarf</title><path class="a" d="M12.34,15.73a1.2,1.2,0,1,1-1.7,1.7L3.18,10,6.57,6.57l4,4"/><path class="a" d="M9.79,11.44l3.1-3.09A1.79,1.79,0,0,1,14.08,8a1.82,1.82,0,0,1,1.1.43L20.82,14l-3.39,3.4-5.92-5.92"/><path class="a" d="M12.34,15.73,10,13.36a1.32,1.32,0,0,1-.28-1.8,1.32,1.32,0,0,1,1.83-.05"/><line class="a" x1="14.94" y1="14.94" x2="12.42" y2="17.46"/><line class="a" x1="20.82" y1="14.03" x2="21.84" y2="15.05"/><line class="a" x1="17.43" y1="17.43" x2="18.44" y2="18.44"/><line class="a" x1="19.68" y1="15.17" x2="20.7" y2="16.19"/><line class="a" x1="18.6" y1="16.26" x2="19.61" y2="17.27"/><line class="a" x1="5.56" y1="5.56" x2="6.57" y2="6.57"/><line class="a" x1="2.16" y1="8.95" x2="3.18" y2="9.97"/><line class="a" x1="4.42" y1="6.69" x2="5.44" y2="7.71"/><line class="a" x1="3.33" y1="7.78" x2="4.35" y2="8.8"/></svg>