<svg xmlns="http://www.w3.org/2000/svg" fill-rule="evenodd" stroke-linecap="round" stroke-linejoin="round" stroke-miterlimit="1.5" clip-rule="evenodd" viewBox="0 0 24 24" xml:space="preserve"><path fill="none" d="M0 0h240v240H0z"/><g fill="none" stroke="currentColor"><path d="M12 3.819C10.582 2.787 8.949 2.422 7.657 2.5 4.891 4.686 5.8 7.745 9.254 7.224M12 3.819c1.418-1.032 3.051-1.397 4.343-1.319 2.766 2.186 1.857 5.245-1.597 4.724"/><path d="M7.82 7.222c.137 3.224-5.207 4.383-2.997 11.613 2.802.469 5.171 1.679 7.177 3.64"/><path d="M16.173 7.216c-.136 3.224 5.207 4.382 2.998 11.613-2.802.469-5.172 1.692-7.177 3.652M10.571 7.283a3.862 3.862 0 0 1 2.858 0M12 22.475V17m0 0 1-1m-1 1-1-1"/><path d="M4.988 12.5c4.674 2.441 9.347 2.441 14.021 0"/></g></svg>