<?xml version="1.0" encoding="UTF-8" standalone="no"?>
<!DOCTYPE svg PUBLIC "-//W3C//DTD SVG 1.1//EN" "http://www.w3.org/Graphics/SVG/1.1/DTD/svg11.dtd">
<svg width="100%" height="100%" viewBox="0 0 24 24" version="1.1" xmlns="http://www.w3.org/2000/svg"
    xmlns:xlink="http://www.w3.org/1999/xlink" xml:space="preserve" xmlns:serif="http://www.serif.com/"
    style="fill-rule:evenodd;clip-rule:evenodd;stroke-linecap:round;stroke-linejoin:round;stroke-miterlimit:10;">
    <g transform="matrix(1,0,0,1,-134,0)">
        <g id="special-occasion" transform="matrix(0.198347,0,0,0.198347,175.227,1.40406)">
            <rect x="-208" y="-7" width="121" height="121" style="fill:none;" />
            <g transform="matrix(5.04167,0,0,5.04167,-174.707,33.3142)">
                <path d="M0,6.787C-0.495,6.514 -0.792,6.192 -0.978,5.917C-1.92,4.512 -1.401,2.146 0.301,0"
                    style="fill:none;fill-rule:nonzero;stroke:currentColor;stroke-width:1px;" />
            </g>
            <g transform="matrix(5.04167,0,0,5.04167,-151.586,68.325)">
                <path d="M0,-5.169C-0.314,-2.448 -1.619,-0.408 -3.28,-0.082C-3.605,-0.018 -4.043,0 -4.586,-0.157"
                    style="fill:none;fill-rule:nonzero;stroke:currentColor;stroke-width:1px;" />
            </g>
            <g transform="matrix(4.65786,1.92945,1.92945,-4.65786,-170.656,29.5205)">
                <path d="M-0.177,-0.887L4.462,-0.887"
                    style="fill:none;fill-rule:nonzero;stroke:currentColor;stroke-width:1px;" />
            </g>
            <g transform="matrix(-1.92962,4.65779,4.65779,1.92962,-171.435,83.9897)">
                <path d="M-2.767,-1.849L1.235,-1.849"
                    style="fill:none;fill-rule:nonzero;stroke:currentColor;stroke-width:1px;" />
            </g>
            <g transform="matrix(4.6578,1.92958,1.92958,-4.6578,-191.814,76.7901)">
                <path d="M-0.2,-1.007L5.064,-1.008"
                    style="fill:none;fill-rule:nonzero;stroke:currentColor;stroke-width:1px;" />
            </g>
            <g transform="matrix(5.04167,0,0,5.04167,-181.059,58.2407)">
                <path
                    d="M0,-1.993C0.359,-1.604 0.91,-1.143 1.634,-1.067C2.716,-0.953 3.395,-1.784 4.071,-1.475C4.352,-1.347 4.681,-1.002 4.814,0"
                    style="fill:none;fill-rule:nonzero;stroke:currentColor;stroke-width:1px;" />
            </g>
            <g transform="matrix(1.92994,-4.65766,-4.65766,-1.92994,-170.16,59.4744)">
                <path
                    d="M-0.397,-0.265C-0.159,-0.265 0.033,-0.073 0.033,0.164C0.033,0.401 -0.159,0.594 -0.397,0.594C-0.634,0.594 -0.827,0.401 -0.826,0.165C-0.826,-0.073 -0.634,-0.265 -0.397,-0.265"
                    style="fill-rule:nonzero;" />
            </g>
            <g transform="matrix(1.92994,-4.65766,-4.65766,-1.92994,-162.525,56.3362)">
                <path
                    d="M-0.397,-0.266C-0.159,-0.266 0.032,-0.072 0.033,0.164C0.032,0.401 -0.159,0.594 -0.397,0.594C-0.635,0.595 -0.827,0.401 -0.827,0.165C-0.827,-0.072 -0.634,-0.265 -0.397,-0.266"
                    style="fill-rule:nonzero;" />
            </g>
            <g transform="matrix(1.92786,-4.65851,-4.65851,-1.92786,-164.972,44.9126)">
                <path
                    d="M-0.398,-0.266C-0.159,-0.266 0.032,-0.073 0.033,0.165C0.032,0.401 -0.16,0.594 -0.398,0.595C-0.636,0.595 -0.827,0.402 -0.827,0.165C-0.827,-0.072 -0.636,-0.266 -0.398,-0.266"
                    style="fill-rule:nonzero;" />
            </g>
            <g transform="matrix(5.04167,0,0,5.04167,-120.293,33.3142)">
                <path d="M0,6.787C0.495,6.514 0.792,6.192 0.978,5.917C1.92,4.512 1.401,2.146 -0.301,0"
                    style="fill:none;fill-rule:nonzero;stroke:currentColor;stroke-width:1px;" />
            </g>
            <g transform="matrix(5.04167,0,0,5.04167,-143.414,68.325)">
                <path d="M0,-5.169C0.314,-2.448 1.619,-0.408 3.28,-0.082C3.605,-0.018 4.043,0 4.586,-0.157"
                    style="fill:none;fill-rule:nonzero;stroke:currentColor;stroke-width:1px;" />
            </g>
            <g transform="matrix(-4.65786,1.92945,1.92945,4.65786,-140.878,46.0558)">
                <path d="M-4.462,-0.887L0.177,-0.887"
                    style="fill:none;fill-rule:nonzero;stroke:currentColor;stroke-width:1px;" />
            </g>
            <g transform="matrix(1.92962,4.65779,4.65779,-1.92962,-109.297,69.7183)">
                <path d="M-1.235,-1.849L2.767,-1.849"
                    style="fill:none;fill-rule:nonzero;stroke:currentColor;stroke-width:1px;" />
            </g>
            <g transform="matrix(-4.6578,1.92958,1.92958,4.6578,-121.953,95.561)">
                <path d="M-5.064,-1.007L0.2,-1.007"
                    style="fill:none;fill-rule:nonzero;stroke:currentColor;stroke-width:1px;" />
            </g>
            <g transform="matrix(5.04167,0,0,5.04167,-113.941,58.2407)">
                <path
                    d="M0,-1.993C-0.359,-1.604 -0.91,-1.143 -1.634,-1.067C-2.716,-0.953 -3.395,-1.784 -4.071,-1.475C-4.352,-1.347 -4.681,-1.002 -4.814,0"
                    style="fill:none;fill-rule:nonzero;stroke:currentColor;stroke-width:1px;" />
            </g>
            <g transform="matrix(1.92994,4.65766,4.65766,-1.92994,-124.84,59.4744)">
                <path
                    d="M0.397,-0.265C0.159,-0.265 -0.033,-0.073 -0.033,0.164C-0.033,0.401 0.159,0.594 0.397,0.594C0.634,0.594 0.827,0.401 0.826,0.165C0.826,-0.073 0.634,-0.265 0.397,-0.265"
                    style="fill-rule:nonzero;" />
            </g>
            <g transform="matrix(1.92994,4.65766,4.65766,-1.92994,-132.475,56.3362)">
                <path
                    d="M0.397,-0.266C0.159,-0.266 -0.032,-0.072 -0.033,0.164C-0.032,0.401 0.159,0.594 0.397,0.594C0.635,0.595 0.827,0.401 0.827,0.165C0.827,-0.072 0.634,-0.265 0.397,-0.266"
                    style="fill-rule:nonzero;" />
            </g>
            <g transform="matrix(1.92786,4.65851,4.65851,-1.92786,-130.028,44.9126)">
                <path
                    d="M0.397,-0.266C0.159,-0.266 -0.032,-0.073 -0.033,0.165C-0.032,0.401 0.16,0.594 0.397,0.595C0.636,0.595 0.827,0.402 0.827,0.165C0.827,-0.072 0.636,-0.266 0.397,-0.266"
                    style="fill-rule:nonzero;" />
            </g>
            <g transform="matrix(-3.56319,-3.5668,-3.5668,3.56319,-155.62,14.7171)">
                <path d="M-1.193,0.495L0.205,0.495"
                    style="fill:none;fill-rule:nonzero;stroke:currentColor;stroke-width:1px;" />
            </g>
            <g transform="matrix(3.56319,-3.5668,-3.5668,-3.56319,-139.373,21.7651)">
                <path d="M-0.205,0.495L1.193,0.495"
                    style="fill:none;fill-rule:nonzero;stroke:currentColor;stroke-width:1px;" />
            </g>
            <g transform="matrix(5.04167,0,0,5.04167,-135.777,27.9665)">
                <path d="M0,0L1.398,0" style="fill:none;fill-rule:nonzero;stroke:currentColor;stroke-width:1px;" />
            </g>
            <g transform="matrix(5.04167,0,0,5.04167,-166.273,27.9665)">
                <path d="M0,0L1.398,0" style="fill:none;fill-rule:nonzero;stroke:currentColor;stroke-width:1px;" />
            </g>
        </g>
    </g>
</svg>