<svg xmlns="http://www.w3.org/2000/svg" viewBox="0 0 24 24"><title>Spring</title><path d="M12,12.58a4.83,4.83,0,0,1-1.62-.75,4.41,4.41,0,0,1-1.32-1.48v-3" style="fill:none;stroke:#000;stroke-linecap:round;stroke-linejoin:round"/><path d="M14.94,7.31v3a4.41,4.41,0,0,1-1.32,1.48,4.83,4.83,0,0,1-1.62.75" style="fill:none;stroke:#000;stroke-linecap:round;stroke-linejoin:round"/><path d="M9.06,7.31a4.64,4.64,0,0,1,5.88,0" style="fill:none;stroke:#000;stroke-linecap:round;stroke-linejoin:round"/><path d="M13.58,11.86v2.22l4.78.68a.66.66,0,0,1,.43.3.62.62,0,0,1,.16.44v2.93A17.39,17.39,0,0,0,12,22.05" style="fill:none;stroke:#000;stroke-linecap:round;stroke-linejoin:round"/><path d="M10.42,11.86v2.22l-4.78.68a.57.57,0,0,0-.43.26A.83.83,0,0,0,5,15.5v2.93a17.13,17.13,0,0,1,3.45,1.29A17.29,17.29,0,0,1,12,22.05" style="fill:none;stroke:#000;stroke-linecap:round;stroke-linejoin:round"/><path d="M8.4,14.37v2.39a6.38,6.38,0,0,1,1.36.39A6.06,6.06,0,0,1,12,18.8" style="fill:none;stroke:#000;stroke-linecap:round;stroke-linejoin:round"/><line x1="6.91" y1="14.58" x2="6.91" y2="19.02" style="fill:none;stroke:#000;stroke-linecap:round;stroke-linejoin:round"/><path d="M15.59,14.37v2.39a6.55,6.55,0,0,0-1.36.39A6,6,0,0,0,12,18.8" style="fill:none;stroke:#000;stroke-linecap:round;stroke-linejoin:round"/><line x1="17.09" y1="14.58" x2="17.09" y2="19.02" style="fill:none;stroke:#000;stroke-linecap:round;stroke-linejoin:round"/><path d="M10.42,11.86c-1.71.11-3.68-.74-4.14-2a3,3,0,0,1,1.6-3.78A8.85,8.85,0,0,1,12.07,5a8.81,8.81,0,0,1,4.05,1.16,3.44,3.44,0,0,1,1.77,2.41,2.75,2.75,0,0,1-.17,1.37c-.46,1.22-2.43,2.07-4.14,2" style="fill:none;stroke:#000;stroke-linecap:round;stroke-linejoin:round"/><circle cx="14.35" cy="3.96" r="0.81" style="fill:none;stroke:#000;stroke-linecap:round;stroke-linejoin:round"/><circle cx="15.58" cy="2.91" r="0.81" style="fill:none;stroke:#000;stroke-linecap:round;stroke-linejoin:round"/><circle cx="15.88" cy="4.5" r="0.81" style="fill:none;stroke:#000;stroke-linecap:round;stroke-linejoin:round"/><path d="M8.2,6a3.79,3.79,0,0,1,6.51-2.72" style="fill:none;stroke:#000;stroke-linecap:round;stroke-linejoin:round"/></svg>