<svg xmlns="http://www.w3.org/2000/svg" viewBox="0 0 24 24"><title>Steampunk</title><path d="M5.56,19V16.3a.66.66,0,0,1,.15-.45.62.62,0,0,1,.4-.25L7,15.48l3.54-.65V12.92" style="fill:none;stroke:#000;stroke-linecap:round;stroke-linejoin:round"/><path d="M12,22.49a17,17,0,0,0-3.51-2.33A17.77,17.77,0,0,0,5.56,19" style="fill:none;stroke:#000;stroke-linecap:round;stroke-linejoin:round"/><path d="M18.46,19V16.3a.81.81,0,0,0-.15-.45.63.63,0,0,0-.41-.25L17,15.48l-3.53-.65V12.92" style="fill:none;stroke:#000;stroke-linecap:round;stroke-linejoin:round"/><path d="M12,22.49a17,17,0,0,1,3.51-2.33A16.69,16.69,0,0,1,18.46,19" style="fill:none;stroke:#000;stroke-linecap:round;stroke-linejoin:round"/><line x1="8.07" y1="8.2" x2="15.95" y2="8.2" style="fill:none;stroke:#000;stroke-linecap:round;stroke-linejoin:round"/><rect x="9.33" y="2" width="5.34" height="6.2" style="fill:none;stroke:#000;stroke-linecap:round;stroke-linejoin:round"/><circle cx="10.81" cy="7.01" r="1.18" style="fill:none;stroke:#000;stroke-linecap:round;stroke-linejoin:round"/><circle cx="13.18" cy="7.01" r="1.18" style="fill:none;stroke:#000;stroke-linecap:round;stroke-linejoin:round"/><path d="M10.54,14.83l1.05.73.42-2a4.37,4.37,0,0,1-1.5-.7,4.05,4.05,0,0,1-1.23-1.37V8.2" style="fill:none;stroke:#000;stroke-linecap:round;stroke-linejoin:round"/><path d="M13.49,14.83l-1.06.73-.42-2a4.4,4.4,0,0,0,1.51-.7,4,4,0,0,0,1.22-1.37V8.2" style="fill:none;stroke:#000;stroke-linecap:round;stroke-linejoin:round"/><path d="M11.59,15.56a6.62,6.62,0,0,0,1.52.89,6.13,6.13,0,0,0,1.25.38c0,1.3,0,2.66,0,4" style="fill:none;stroke:#000;stroke-linecap:round;stroke-linejoin:round"/><path d="M7.59,15.37a10.69,10.69,0,0,1,.25,1.68,11.54,11.54,0,0,1-.14,2.74" style="fill:none;stroke:#000;stroke-linecap:round;stroke-linejoin:round"/><path d="M16.42,15.37a11.08,11.08,0,0,0-.08,4.41" style="fill:none;stroke:#000;stroke-linecap:round;stroke-linejoin:round"/><circle cx="10.59" cy="3.31" r="0.5"/><circle cx="10.59" cy="4.77" r="0.5"/><circle cx="12.72" cy="18.17" r="0.5"/><circle cx="12.72" cy="20" r="0.5"/></svg>