<svg xmlns="http://www.w3.org/2000/svg" viewBox="0 0 24 24"><title>Summer</title><path d="M14.63,5.37a2.67,2.67,0,1,0-5.31,0Z" style="fill:none;stroke:#000;stroke-linecap:round;stroke-linejoin:round"/><path d="M14.58,4.57c3,.78,4.19,1.5,4.19,2.5S18,8.42,17,8.57a6.78,6.78,0,0,1-2,.12c-2.47-.45-3.75-1.14-7-1.82C6.48,6.56,5,5.73,5.26,4.69,5.73,3,7.32,3.43,9.61,3.88" style="fill:none;stroke:#000;stroke-linecap:round;stroke-linejoin:round"/><path d="M11.23,8.47a.57.57,0,0,1-.49.67.57.57,0,0,1-.51-.67Z" style="fill:none;stroke:#000;stroke-linecap:round;stroke-linejoin:round"/><path d="M13.73,8.47a.52.52,0,1,1-1,0Z" style="fill:none;stroke:#000;stroke-linecap:round;stroke-linejoin:round"/><path d="M13.58,11.29v2.36l4.78.67a.81.81,0,0,1,.42.31.62.62,0,0,1,.17.44V18a17.36,17.36,0,0,0-3.44,1.28A17,17,0,0,0,12,21.61" style="fill:none;stroke:#000;stroke-linecap:round;stroke-linejoin:round"/><path d="M10.42,11.31v2.34l-4.78.67a.49.49,0,0,0-.4.23,1,1,0,0,0-.2.52V18a17.66,17.66,0,0,1,3.45,1.28A17.29,17.29,0,0,1,12,21.61" style="fill:none;stroke:#000;stroke-linecap:round;stroke-linejoin:round"/><path d="M6.85,14.15a6.37,6.37,0,0,1,.56,1.67,7.61,7.61,0,0,1-.08,2.94" style="fill:none;stroke:#000;stroke-linecap:round;stroke-linejoin:round"/><path d="M9.32,13.8A3.4,3.4,0,0,0,12,18" style="fill:none;stroke:#000;stroke-linecap:round;stroke-linejoin:round"/><path d="M17.14,14.15a6.79,6.79,0,0,0-.55,1.67,7.6,7.6,0,0,0,.08,2.94" style="fill:none;stroke:#000;stroke-linecap:round;stroke-linejoin:round"/><path d="M14.68,13.8A3.42,3.42,0,0,1,12,18" style="fill:none;stroke:#000;stroke-linecap:round;stroke-linejoin:round"/><path d="M12,12a4.83,4.83,0,0,1-1.62-.75A4.32,4.32,0,0,1,9,9.79V7.11" style="fill:none;stroke:#000;stroke-linecap:round;stroke-linejoin:round"/><path d="M14.92,8.68V9.79a4.32,4.32,0,0,1-1.32,1.48A4.74,4.74,0,0,1,12,12" style="fill:none;stroke:#000;stroke-linecap:round;stroke-linejoin:round"/></svg>