<svg xmlns="http://www.w3.org/2000/svg" viewBox="0 0 24 24"><title>Swimwear</title><path d="M6.86,17.59a14.14,14.14,0,0,1,1.82.68A11.85,11.85,0,0,1,12,20.71" style="fill:none;stroke:#000;stroke-linecap:round;stroke-linejoin:round"/><path d="M6.85,17.65h-2L5.52,6.39a2.41,2.41,0,0,1,.42-1,3.23,3.23,0,0,1,.83-.82c.94-.42,2.49-.9,3.44-1.31A2,2,0,0,0,12,4.36a2.08,2.08,0,0,0,1.83-1.07c.26.09,2.19.88,3.44,1.46a2.43,2.43,0,0,1,.83.67,2.23,2.23,0,0,1,.41,1l.73,11.26H17.16" style="fill:none;stroke:#000;stroke-linecap:round;stroke-linejoin:round"/><line x1="11.05" y1="16.59" x2="12.01" y2="17.55" style="fill:none;stroke:#000;stroke-linecap:round;stroke-linejoin:round"/><path d="M7.16,7.7c-.06,1.57.45,3.23.4,4.79,0,1.73-.63,3.36-.7,5.1v.06" style="fill:none;stroke:#000;stroke-linecap:round;stroke-linejoin:round"/><line x1="12.01" y1="17.55" x2="12.01" y2="20.71" style="fill:none;stroke:#000;stroke-linecap:round;stroke-linejoin:round"/><path d="M17.16,17.59a13.11,13.11,0,0,0-1.82.68A11.85,11.85,0,0,0,12,20.71" style="fill:none;stroke:#000;stroke-linecap:round;stroke-linejoin:round"/><line x1="12.97" y1="16.59" x2="12" y2="17.55" style="fill:none;stroke:#000;stroke-linecap:round;stroke-linejoin:round"/><path d="M16.86,7.7c.05,1.57-.45,3.23-.4,4.79.05,1.75.64,3.4.7,5.16" style="fill:none;stroke:#000;stroke-linecap:round;stroke-linejoin:round"/><line x1="12" y1="13.09" x2="12" y2="4.36" style="fill:none;stroke:#000;stroke-linecap:round;stroke-linejoin:round"/><path d="M7.16,7.7A3.22,3.22,0,0,1,9,9c1,1.55.4,4.22-1.79,6.33" style="fill:none;stroke:#000;stroke-linecap:round;stroke-linejoin:round"/><path d="M16.85,7.7A3.18,3.18,0,0,0,15.05,9c-1,1.55-.4,4.22,1.79,6.33" style="fill:none;stroke:#000;stroke-linecap:round;stroke-linejoin:round"/></svg>