<svg xmlns="http://www.w3.org/2000/svg" viewBox="0 0 24 24"><defs><style>.a{fill:none;stroke:#000;stroke-linecap:round;stroke-linejoin:round;}</style></defs><title>Tobacco Pouch</title><rect class="a" x="7.8" y="14.82" width="8.41" height="3.77"/><rect class="a" x="5.51" y="13.13" width="12.98" height="7.14"/><path class="a" d="M6.87,13.13l6.44-4.4a1.4,1.4,0,0,0,0,1.58,1.38,1.38,0,0,0,1.47.55l-3.33,2.27"/><path class="a" d="M13.31,8.73a1.37,1.37,0,0,1,1.45,2.13"/><path class="a" d="M11.22,10.17a1.36,1.36,0,0,0,1.45,2.12"/><path class="a" d="M15.47,8.37c.9-.84-1.38-1.62-.38-3.17.48-.73,2.42-1.91,1.95-1-.94,1.69.19,1.87.37,2.6C17.8,8.33,15.57,8.4,15.47,8.37Z"/><polyline class="a" points="17.46 7.17 18.08 7.17 18.08 13.16 5.92 13.16 5.92 7.17 15.32 7.17"/><circle cx="7.68" cy="8.87" r="0.7"/><circle cx="16.33" cy="8.87" r="0.7"/></svg>