<svg xmlns="http://www.w3.org/2000/svg" fill-rule="evenodd" stroke-linecap="round" stroke-linejoin="round" stroke-miterlimit="10" clip-rule="evenodd" viewBox="0 0 24 24" xml:space="preserve"><path fill="none" d="M0-96h240v240H0z"/><g fill="none" stroke="currentColor"><path d="M9.601 13.888 8.026 6.506V4.321a.952.952 0 0 1 .881-.462c.471.036.714.424.736.462v2.185m4.713 0V4.32c.023-.038.266-.425.737-.461a.953.953 0 0 1 .881.461v2.186l-1.575 7.382m-4.798 0c.253.198 1.14.843 2.44.829a3.935 3.935 0 0 0 2.359-.829M9.643 6.506a2.732 2.732 0 0 0 2.447 1.371c1.475-.048 2.223-1.295 2.266-1.371"/><path stroke-miterlimit="1.5" d="M12 18.766c-.688.008-1.252.164-1.451.759-.244.531-.652.708-1.382.578-.613-.089-.889-.362-.887-.798.053-.254.058-.518-.59-.93-.532-.225-.993-.246-1.311.148-.299.448-.621.531-1.179.292-.534-.337-.618-.687-.444-1.046.104-.242.125-.523-.199-.967-.439-.45-.783-.468-1.078-.262-.447.217-.826.047-1.129-.548-.194-.733.134-.96.674-.98.385-.105.528-.347.574-.644.067-.268-.052-.519-.337-.754-.216-.261-.3-.568.045-1.023.334-.27.66-.328.972.033.264.213.555.194.878-.101.193-.231.233-.475.065-.737-.097-.222-.037-.436.327-.633.321-.132.568-.072.728.216.22.321.494.345.799.206.266-.165.366-.368.304-.608-.053-.219.014-.429.414-.613.315-.065.578-.006.709.367.096.245.265.357.498.352m-.72 8.232 1.736-2.674m-5.26 1.138 2.704-1.898m-4.436-.859 3.084-.493M12 18.766c.688.008 1.252.164 1.451.759.244.531.652.708 1.382.578.613-.089.889-.362.887-.798-.053-.254-.058-.518.59-.93.532-.225.993-.246 1.311.148.299.448.621.531 1.179.292.534-.337.618-.687.444-1.046-.104-.242-.125-.523.199-.967.439-.45.783-.468 1.078-.262.447.217.826.047 1.129-.548.194-.733-.134-.96-.674-.98-.385-.105-.528-.347-.574-.644-.067-.268.052-.519.337-.754.216-.261.3-.568-.045-1.023-.334-.27-.66-.328-.972.033-.264.213-.555.194-.878-.101-.193-.231-.233-.475-.065-.737.097-.222.037-.436-.327-.633-.321-.132-.568-.072-.728.216-.22.321-.494.345-.799.206-.266-.165-.366-.368-.304-.608.053-.219-.014-.429-.414-.613-.315-.065-.578-.006-.709.367-.096.245-.265.357-.498.352m.72 8.232-1.736-2.674m5.26 1.138-2.704-1.898m4.436-.859-3.084-.493M12 18.766l.016-1.578"/></g></svg>