<?xml version="1.0" encoding="UTF-8" standalone="no"?>
<!DOCTYPE svg PUBLIC "-//W3C//DTD SVG 1.1//EN" "http://www.w3.org/Graphics/SVG/1.1/DTD/svg11.dtd">
<svg width="100%" height="100%" viewBox="0 0 24 24" version="1.1" xmlns="http://www.w3.org/2000/svg"
    xmlns:xlink="http://www.w3.org/1999/xlink" xml:space="preserve" xmlns:serif="http://www.serif.com/"
    style="fill-rule:evenodd;clip-rule:evenodd;stroke-linecap:round;stroke-linejoin:round;stroke-miterlimit:10;">
    <g transform="matrix(1,0,0,1,-107,0)">
        <g id="vintage" transform="matrix(0.198347,0,0,0.198347,148.106,1.40406)">
            <rect x="-208" y="-7" width="121" height="121" style="fill:none;" />
            <g transform="matrix(-2.15258,4.85089,4.85089,2.15258,-173.76,89.2474)">
                <path d="M-1.599,-1.04C-0.622,-1.034 0.138,-1.03 0.642,-1.033"
                    style="fill:none;fill-rule:nonzero;stroke:currentColor;stroke-width:0.95px;" />
            </g>
            <g transform="matrix(1.23498,-5.16135,-5.16135,-1.23498,-158.181,88.1079)">
                <path d="M-1.673,2.121L2.688,2.121"
                    style="fill:none;fill-rule:nonzero;stroke:currentColor;stroke-width:0.95px;" />
            </g>
            <g transform="matrix(-0.86017,5.23687,5.23687,0.86017,-147.955,93.5397)">
                <path d="M-1.911,-1.623L1.383,-1.653"
                    style="fill:none;fill-rule:nonzero;stroke:currentColor;stroke-width:0.95px;" />
            </g>
            <g transform="matrix(1.27369,0,0,1.27369,-211.185,-299.285)">
                <path
                    d="M47.693,262.317C48.072,262.13 48.981,261.813 50.002,261.834C51.022,261.813 51.931,262.13 52.31,262.317"
                    style="fill:none;stroke:currentColor;stroke-width:3.96px;" />
            </g>
            <g transform="matrix(1.27369,0,0,1.27369,-211.185,-299.285)">
                <path
                    d="M38.879,262.163L39.523,270.477C34.853,273.598 32.019,276.869 30.315,279.252C27.919,282.598 27.148,285.006 22.64,295.335C21.011,299.069 19.657,302.09 18.794,304.002L18.801,304.005C18.535,304.851 18.543,305.757 20.889,306.535C22.371,307.026 24.005,306.341 24.164,306.039C24.735,304.948 26.552,304.719 28.597,305.376C30.639,306.032 31.43,308.794 31.397,308.864C31.033,309.635 31.348,312.572 35.493,313.951C37.836,314.731 42.376,315.121 41.955,312.989C43.901,310.585 46.07,308.67 50.001,308.96L50.002,308.96C53.933,308.67 56.103,310.585 58.048,312.989C57.627,315.121 62.167,314.731 64.51,313.951C68.655,312.572 68.97,309.635 68.606,308.864C68.573,308.794 69.364,306.032 71.406,305.376C73.451,304.719 75.269,304.948 75.84,306.039C75.998,306.341 77.633,307.026 79.115,306.535C81.461,305.757 81.469,304.851 81.202,304.005L81.209,304.002C80.347,302.09 78.992,299.069 77.363,295.335C72.855,285.006 72.084,282.598 69.688,279.252C67.984,276.869 65.151,273.598 60.48,270.477L61.125,262.163"
                    style="fill:none;stroke:currentColor;stroke-width:3.96px;" />
            </g>
            <g transform="matrix(1.27369,0,0,1.27369,-211.185,-299.285)">
                <path
                    d="M42.72,261.995C39.45,263.037 36.004,261.658 34.579,259.012C32.866,255.833 34.11,251.439 37.964,249.731C37.973,248.598 38.135,243.848 41.852,239.839C44.968,236.481 48.731,235.639 50.002,235.414C49.622,235.643 44.818,238.718 44.714,244.043C44.643,247.635 46.752,250.314 47.289,250.977C48.256,252.16 49.281,252.935 50.002,253.398C50.722,252.935 51.747,252.16 52.714,250.977C53.252,250.314 55.36,247.635 55.289,244.043C55.185,238.718 50.381,235.643 50.002,235.414C51.272,235.639 55.035,236.481 58.152,239.839C61.868,243.848 62.031,248.598 62.039,249.731C65.893,251.439 67.137,255.833 65.425,259.012C64,261.658 60.554,263.037 57.283,261.995"
                    style="fill:none;stroke:currentColor;stroke-width:3.96px;" />
            </g>
            <g transform="matrix(2.15258,4.85089,-4.85089,2.15258,-121.236,89.2474)">
                <path d="M-1.599,-1.04C-0.622,-1.034 0.138,-1.03 0.642,-1.033"
                    style="fill:none;fill-rule:nonzero;stroke:currentColor;stroke-width:0.95px;" />
            </g>
            <g transform="matrix(-1.23498,-5.16135,5.16135,-1.23498,-136.815,88.1079)">
                <path d="M-1.673,2.121L2.688,2.121"
                    style="fill:none;fill-rule:nonzero;stroke:currentColor;stroke-width:0.95px;" />
            </g>
            <g transform="matrix(0.86017,5.23687,-5.23687,0.86017,-147.041,93.5397)">
                <path d="M-1.911,-1.623L1.383,-1.653"
                    style="fill:none;fill-rule:nonzero;stroke:currentColor;stroke-width:0.95px;" />
            </g>
        </g>
    </g>
</svg>