<svg xmlns="http://www.w3.org/2000/svg" fill-rule="evenodd" stroke-linecap="round" stroke-linejoin="round" stroke-miterlimit="10" clip-rule="evenodd" viewBox="0 0 24 24" xml:space="preserve"><path fill="none" d="M-24-72h240v240H-24z"/><g fill="none" stroke="currentColor"><path d="m9.714 12.484-1.294.628v1.936c.198.231 1.602 1.551 3.584 1.643H12c1.982-.092 3.385-1.412 3.583-1.643v-1.936l-1.294-.628"/><path d="m15.582 15.049-.002 5.356h-2.546v-3.876"/><path d="M9.347 9.19s1.215-1.013 2.706-.993a4.098 4.098 0 0 1 2.601.994V9.19v2.741a3.99 3.99 0 0 1-1.19 1.333c-.562.4-1.115.588-1.464.677a4.447 4.447 0 0 1-1.464-.678 3.993 3.993 0 0 1-1.189-1.332V9.19zm9.032 6.843.621.673v2.643c-.856.123-2.05.393-3.355 1.024-1.653.799-2.989 1.955-3.645 2.666v.001c-.656-.711-1.992-1.867-3.645-2.666A11.422 11.422 0 0 0 5 19.35v-2.644l.621-.673"/><path d="M9.469 12.138c-.216.356-.639.608-1.049.597-.433.012-.88-.27-1.083-.657V6.557C8.115 4.604 9.921 3.396 12 3.441h.004c2.079-.045 3.885 1.163 4.663 3.116v5.521c-.203.387-.65.669-1.083.657-.41.011-.833-.241-1.049-.597"/><path d="M13.22 2.22a1.22 1.22 0 1 0-2.438 0 1.22 1.22 0 0 0 2.438 0z"/><path stroke-miterlimit="1.5" d="M12.004 19.429c-.129.267-.527.343-.887.169-.361-.175-.549-.533-.42-.8-.129.267-.526.343-.887.169-.36-.174-.549-.532-.42-.799-.098.279-.484.399-.862.266-.378-.132-.605-.467-.507-.746-.143.259-.544.313-.894.12-.351-.192-.52-.56-.377-.82-.222.197-.618.113-.883-.186-.266-.3-.302-.702-.08-.899h0c-.296 0-.537-.325-.537-.726 0-.4.241-.725.537-.725-.209-.21-.15-.61.133-.893.283-.283.683-.343.893-.133l-.003-.004c-.18-.236-.067-.624.252-.867a.873.873 0 0 1 .494-.185m4.448 7.059c.128.267.526.343.886.169a.93.93 0 0 0 .144-.086m2.546-1.119c.316-.153.495-.452.406-.705.143.259.544.313.894.12.351-.192.52-.56.377-.82.222.197.618.113.883-.186.266-.3.302-.702.08-.899h0c.297 0 .537-.325.537-.726 0-.4-.241-.725-.537-.725.21-.21.15-.61-.133-.893-.283-.283-.683-.343-.893-.133l.003-.004c.18-.236.067-.624-.252-.867a.873.873 0 0 0-.494-.185"/><path d="m7.562 6.066 1.261 1.015 1.036-1.309 1.05.567 1.092-1.093h.003l1.092 1.093 1.05-.567 1.036 1.309 1.261-1.015"/></g></svg>