<?xml version="1.0" encoding="UTF-8" standalone="no"?>
<!DOCTYPE svg PUBLIC "-//W3C//DTD SVG 1.1//EN" "http://www.w3.org/Graphics/SVG/1.1/DTD/svg11.dtd">
<svg width="100%" height="100%" viewBox="0 0 24 24" version="1.1" xmlns="http://www.w3.org/2000/svg"
    xmlns:xlink="http://www.w3.org/1999/xlink" xml:space="preserve" xmlns:serif="http://www.serif.com/"
    style="fill-rule:evenodd;clip-rule:evenodd;stroke-linecap:round;stroke-linejoin:round;stroke-miterlimit:10;">
    <g transform="matrix(1,0,0,1,-53,0)">
        <g id="winter" transform="matrix(0.198347,0,0,0.198347,94.6243,1.40406)">
            <rect x="-208" y="-7" width="121" height="121" style="fill:none;" />
            <g transform="matrix(1.21,0,0,1.21,-344.125,-7)">
                <path
                    d="M152.977,52.261L147.585,54.877L147.585,62.943C148.41,63.906 154.257,69.408 162.515,69.792L162.5,69.792C170.758,69.408 176.605,63.906 177.43,62.943L177.43,54.877L172.038,52.261"
                    style="fill:none;stroke:currentColor;stroke-width:4.17px;" />
            </g>
            <g transform="matrix(5.04167,0,0,5.04167,-129.45,95.1764)">
                <path d="M0.002,-5.158L0,0.197L-2.546,0.197L-2.546,-3.678"
                    style="fill:none;fill-rule:nonzero;stroke:currentColor;stroke-width:1px;" />
            </g>
            <g transform="matrix(1.21,0,0,1.21,-344.125,-7)">
                <path
                    d="M151.448,38.537C151.448,38.537 156.507,34.314 162.72,34.397C168.653,34.476 172.564,37.671 173.56,38.542L173.56,38.537L173.56,49.958C172.848,51.262 171.373,53.533 168.602,55.512C166.26,57.179 163.956,57.962 162.502,58.333C161.048,57.958 158.748,57.179 156.402,55.508C153.635,53.529 152.156,51.258 151.448,49.958L151.448,38.537Z"
                    style="fill:none;stroke:currentColor;stroke-width:4.17px;" />
            </g>
            <g transform="matrix(1.21,0,0,1.21,-344.125,-7)">
                <path
                    d="M189.079,67.051L191.667,69.855L191.667,80.867C188.1,81.38 183.125,82.505 177.687,85.134C170.8,88.463 165.233,93.28 162.5,96.242L162.5,96.244C159.767,93.282 154.2,88.465 147.312,85.136C141.875,82.503 136.9,81.382 133.333,80.869L133.333,69.855L135.921,67.051"
                    style="fill:none;stroke:currentColor;stroke-width:4.17px;" />
            </g>
            <g transform="matrix(1.21,0,0,1.21,-344.125,-7)">
                <path
                    d="M151.953,50.82C151.053,52.302 149.292,53.354 147.583,53.306C145.779,53.356 143.916,52.181 143.07,50.569L143.07,27.565C146.312,19.427 153.838,14.396 162.5,14.583L162.515,14.583C171.177,14.396 178.703,19.427 181.944,27.565L181.944,50.569C181.099,52.181 179.236,53.356 177.432,53.306C175.723,53.354 173.962,52.302 173.062,50.82"
                    style="fill:none;stroke:currentColor;stroke-width:4.17px;" />
            </g>
            <g transform="matrix(0,-5.04167,-5.04167,0,-147.499,-2.45191)">
                <ellipse cx="-1.377" cy="0" rx="1.22" ry="1.219"
                    style="fill:none;stroke:currentColor;stroke-width:1px;" />
            </g>
            <g transform="matrix(1.21,0,0,1.21,-343.492,-6.84055)">
                <path
                    d="M161.992,81.068C161.455,82.18 159.799,82.495 158.297,81.769C156.794,81.044 156.011,79.552 156.547,78.44C156.011,79.552 154.355,79.867 152.852,79.141C151.35,78.416 150.566,76.924 151.103,75.812C150.694,76.978 149.084,77.476 147.51,76.923C145.936,76.371 144.99,74.977 145.398,73.811C144.803,74.894 143.133,75.119 141.671,74.315C140.21,73.511 139.506,71.98 140.101,70.898C139.177,71.717 137.529,71.369 136.421,70.121C135.314,68.873 135.166,67.194 136.09,66.375L136.09,66.375C134.855,66.375 133.852,65.02 133.852,63.352C133.852,61.684 134.855,60.329 136.09,60.329C135.216,59.456 135.465,57.789 136.645,56.61C137.824,55.43 139.491,55.181 140.365,56.055L140.351,56.038C139.603,55.055 140.074,53.437 141.402,52.427C142.053,51.932 142.791,51.674 143.461,51.656"
                    style="fill:none;stroke:currentColor;stroke-width:4.17px;stroke-miterlimit:1.5;" />
            </g>
            <g transform="matrix(-1.21,0,0,1.21,48.5281,-6.84055)">
                <path
                    d="M161.992,81.068C161.455,82.18 159.799,82.495 158.297,81.769C158.082,81.666 157.882,81.546 157.698,81.415"
                    style="fill:none;stroke:currentColor;stroke-width:4.17px;stroke-miterlimit:1.5;" />
            </g>
            <g transform="matrix(-1.21,0,0,1.21,48.5281,-6.84055)">
                <path
                    d="M147.09,76.749C145.772,76.115 145.027,74.869 145.398,73.811C144.803,74.894 143.133,75.119 141.671,74.315C140.21,73.511 139.506,71.98 140.101,70.898C139.177,71.717 137.529,71.369 136.421,70.121C135.314,68.873 135.166,67.194 136.09,66.375L136.09,66.375C134.855,66.375 133.852,65.02 133.852,63.352C133.852,61.684 134.855,60.329 136.09,60.329C135.216,59.456 135.465,57.789 136.645,56.61C137.824,55.43 139.491,55.181 140.365,56.055L140.351,56.038C139.603,55.055 140.074,53.437 141.402,52.427C142.053,51.932 142.791,51.674 143.461,51.656"
                    style="fill:none;stroke:currentColor;stroke-width:4.17px;stroke-miterlimit:1.5;" />
            </g>
            <g transform="matrix(1.21,0,0,1.21,-344.125,-7)">
                <path
                    d="M144.007,25.521L149.264,29.749L153.58,24.295L157.955,26.657L162.505,22.103L162.515,22.103L167.065,26.657L171.44,24.295L175.757,29.749L181.013,25.521"
                    style="fill:none;stroke:currentColor;stroke-width:4.17px;" />
            </g>
        </g>
    </g>
</svg>