<svg xmlns="http://www.w3.org/2000/svg" fill-rule="evenodd" stroke-linecap="round" stroke-linejoin="round" stroke-miterlimit="10" clip-rule="evenodd" viewBox="0 0 24 24" xml:space="preserve"><path fill="none" d="M0-216h240V24H0z"/><path fill="none" stroke="currentColor" d="M16.032 17.967c-.557.151-1.176.369-1.823.683-1.534.742-2.775 1.816-3.385 2.475m-5.203-3.157c.556.152 1.173.369 1.819.682 1.534.742 2.774 1.816 3.384 2.475m-5.167-3.17h-2.17l.772-11.923 4.297-3.039m4.542-.118 4.293 3.157.334 5.164m-6.901 9.929-.014-9.417"/><path fill-rule="nonzero" d="M9.674 14.007a.5.5 0 1 1-1 0 .5.5 0 0 1 1 0m0 2.651a.5.5 0 1 1-1 0 .5.5 0 0 1 1 0"/><path fill="none" stroke="currentColor" d="M10.785 4.653 8.948 7.158m1.837-2.505-2.229-1.66m2.229 1.66 2.313-1.778m-2.288 8.833L7.537 3.714m3.298.939 1.838 2.505m-1.863 4.55 3.273-7.994M6.095 4.733l1.632 3.379-.031 2.019 3.114 2.111m4.715-7.509-1.632 3.379.03 2.019-3.113 2.111M5.621 9.49l.791 4.848-.791 3.63m7.721-5.002h7.171v5.001h-7.171z"/><path fill="none" stroke="currentColor" d="M15.027 12.963h3.799v2.651h-3.799zm.655-1.767h2.491v1.767h-2.491zm1.064 3.093h.35m-1.289-4.861-.125 1.769"/></svg>