<svg xmlns="http://www.w3.org/2000/svg" xmlns:xlink="http://www.w3.org/1999/xlink" viewBox="0 0 1158.97 1408"><defs><clipPath id="a" transform="translate(-120.52 -96)"><rect width="1400" height="1600" style="fill:none"/></clipPath></defs><title>community_driven</title><g style="clip-path:url(#a)"><path d="M661.13,788c-18.94,27.08-41.44,58.22-61.5,85.68" transform="translate(-120.52 -96)" style="fill:none;stroke:#000;stroke-linecap:round;stroke-linejoin:round;stroke-width:8px"/><path d="M657.8,714.11,675.34,696s26.6-46.79,31.26-45.43c5,1.55-11.07,41.74-11.07,41.74s20.87,10.16,18.2,29.7c-2.3,16.8-21.69,20.79-32.76,37.1l-3.13,4.64" transform="translate(-120.52 -96)" style="fill:none;stroke:#000;stroke-linecap:round;stroke-linejoin:round;stroke-width:8px"/><line x1="419.5" y1="739.79" x2="493.25" y2="663.6" style="fill:none;stroke:#000;stroke-linecap:round;stroke-linejoin:round;stroke-width:8px"/></g><path d="M817.07,621.89a40.61,40.61,0,0,0-48.16,11.34L732.7,479.42a39.41,39.41,0,0,1,48.16-11.34Z" transform="translate(-120.52 -96)" style="fill:none;stroke:#000;stroke-linejoin:round;stroke-width:8px"/><path d="M817.07,621.89a40.62,40.62,0,0,1-48.16,11.34" transform="translate(-120.52 -96)" style="fill:none;stroke:#000;stroke-linejoin:round;stroke-width:8px"/><path d="M768.91,633.23C733.68,658,694.4,619.46,650.33,661.15l-36.2-153.73c29-44.3,76.43-2.93,118.58-27.92Z" transform="translate(-120.52 -96)" style="fill:none;stroke:#000;stroke-linejoin:round;stroke-width:8px"/><path d="M782.87,556.73" transform="translate(-120.52 -96)" style="fill:none;stroke:#000;stroke-linejoin:round;stroke-width:8px"/><line x1="669.96" y1="552.81" x2="665.24" y2="540.81" style="fill:none;stroke:#000;stroke-linejoin:round;stroke-width:8px"/><g style="clip-path:url(#a)"><path d="M896.17,390.25" transform="translate(-120.52 -96)" style="fill:none;stroke:#000;stroke-linecap:round;stroke-linejoin:round;stroke-width:8px"/><path d="M912.57,420.68c5.94-2.18,12.55-6.09,12.47-12.64-.09-7.81-10.94-12.74-19.31-15.37" transform="translate(-120.52 -96)" style="fill:none;stroke:#000;stroke-linecap:round;stroke-linejoin:round;stroke-width:8px"/><path d="M590.67,130.41H710.1a23.3,23.3,0,0,1,23.3,23.3V381.65A23.3,23.3,0,0,1,710.1,405H365.47a23.3,23.3,0,0,1-23.3-23.3V153.71a23.3,23.3,0,0,1,23.3-23.3H529.85" transform="translate(-120.52 -96)" style="fill:none;stroke:#000;stroke-linecap:round;stroke-linejoin:round;stroke-width:8px"/><path d="M1017,522.59c-9.77,13.94-24.4,38-24.44,57.49-.07,29.07,22.28,33.08,40.55,24.86" transform="translate(-120.52 -96)" style="fill:none;stroke:#000;stroke-linecap:round;stroke-linejoin:round;stroke-width:8px"/><path d="M636.21,194.66c5.18,14.5,2.77,68.85-16.74,68.77-9.34.85-23.81-5.86-35.22-14.93" transform="translate(-120.52 -96)" style="fill:none;stroke:#000;stroke-linecap:round;stroke-linejoin:round;stroke-width:8px"/><path d="M1143.76,776.76s9-75.91-8.46-111c-8.78-17.65-34.38-27.45-63.47-31.43,0,0-15.76,25.59-40.72,22.43-19.33-2.44-12.15-24.07-12.15-24.07-22.88,1.43-39.61,5.8-51,12.1-20.58,11.26-84.85,66.79-84.85,66.79l-44.46-64.46-48.15,1.74s48.73,150.48,94.16,150.09c19.42-.2,59.42-48,59.42-48l-8.34,25.82Z" transform="translate(-120.52 -96)" style="fill:none;stroke:#000;stroke-linecap:round;stroke-linejoin:round;stroke-width:8px"/><path d="M892.22,724.15c-3.69-4.47-13.4-19-13.4-19" transform="translate(-120.52 -96)" style="fill:none;stroke:#000;stroke-linecap:round;stroke-linejoin:round;stroke-width:8px"/><path d="M466.43,966.1c82.67,27.49,213.05,71.89,216.1,79.57,5.63,14,17.28,90.87,32.42,161.35,21.36,99.4,39.61,200,39.61,200l88.92,56.5-153.58-3.11-1.55-56.3S644.66,1333,619,1247.4c-9.13-30.68-26.8-124.26-26.8-124.26s-3.16-.64-8.76-1.87" transform="translate(-120.52 -96)" style="fill:none;stroke:#000;stroke-linecap:round;stroke-linejoin:round;stroke-width:8px"/><path d="M524.07,811c8.47,13.42,15.94,24.82,15.94,24.82" transform="translate(-120.52 -96)" style="fill:none;stroke:#000;stroke-linecap:round;stroke-linejoin:round;stroke-width:8px"/><path d="M546,946.26l-134.35-1.74s-14.95,37.27,8.73,54.94c32.62,24.47,157.27,87,163.48,123.68,5.05,30.29-139.6,324.83-139.6,324.83l96.5,52-163.29-4.27s6.8-137.66,25.05-207.94c12.62-49.13,50.09-129.51,50.09-129.51s-117.66-60.19-132.22-66.4c-85.23-36.7-44.46-141-44.46-141s-71.64,6-65.82-52.42c5.63-58.25,41-141.15,70.28-169.5,9.74-9.35,41.75-12.7,71.8-13.69,0,0,38.75,27.64,57.72,23.31,9.37-2.14-1.82-23.52-1.82-23.52s22.62-6.63,48.27,6.65" transform="translate(-120.52 -96)" style="fill:none;stroke:#000;stroke-linecap:round;stroke-linejoin:round;stroke-width:8px"/><path d="M319.65,795.79c-2.92,10.29-24.27,74-20,84.85,2.68,6.7,125.08,8.49,158.45,8.85" transform="translate(-120.52 -96)" style="fill:none;stroke:#000;stroke-linecap:round;stroke-linejoin:round;stroke-width:8px"/><path d="M302.37,846.08c-1.56,1-73.4-9.71-76.7-12.23" transform="translate(-120.52 -96)" style="fill:none;stroke:#000;stroke-linecap:round;stroke-linejoin:round;stroke-width:8px"/><path d="M470.31,1391.08s-68.92-5.44-80.77-6.6" transform="translate(-120.52 -96)" style="fill:none;stroke:#000;stroke-linecap:round;stroke-linejoin:round;stroke-width:8px"/><line x1="622.59" y1="1260.71" x2="545.51" y2="1264.01" style="fill:none;stroke:#000;stroke-linecap:round;stroke-linejoin:round;stroke-width:8px"/><path d="M407.79,962.57a43.7,43.7,0,0,0,5.83,23.88c7,12,22.13,24.27,22.13,24.27l103.1,64.08-78.8-90.29,39.81-7.24L466.43,966.1Z" transform="translate(-120.52 -96)" style="fill-rule:evenodd"/><path d="M401,585.32c16.31,21.55,36.3,48,40.19,75.34,4.52,31.29-28.33,35.76-50,24" transform="translate(-120.52 -96)" style="fill:none;stroke:#000;stroke-linecap:round;stroke-linejoin:round;stroke-width:8px"/><path d="M379,645.74c1.47-7.62,3.16-14.9,5.74-20.14,7.13-14.53,25.61-15,33.56-29.48s7.93-30.09-2.17-34.94c-20.91-10-41.11,14.46-41.11,14.46s-14.8-9.42-27.88,3.5c-14.45,14.27-3.07,27.63-3.07,27.63s-31.25,12.64-14.45,49.13c5.41,11.76,24.2,29.26,35.94,26.82,4.45-.92,7.09-6.93,9.11-15l-3.26-4-3.2-8.89,1.46-5.76,4.66-3.44Z" transform="translate(-120.52 -96)" style="fill-rule:evenodd"/><line x1="236.55" y1="585.75" x2="231.7" y2="619.31" style="fill:none;stroke:#000;stroke-linecap:round;stroke-linejoin:round;stroke-width:8px"/><line x1="287.6" y1="619.1" x2="285.49" y2="593.82" style="fill:none;stroke:#000;stroke-linecap:round;stroke-linejoin:round;stroke-width:8px"/><path d="M382.79,647.26c-2.91-1.58-8.3-3.53-12.28.72-7.22,7.68,3.84,23.41,11.08,23.41,6.63,0,8-6.55,8-6.55" transform="translate(-120.52 -96)" style="fill:none;stroke:#000;stroke-linecap:round;stroke-linejoin:round;stroke-width:8px"/><path d="M317.92,801.48s-6.12,75,20.1,84.57L320.9,884.8l-17-2.28-4.27-1.88,1.29-18.34Z" transform="translate(-120.52 -96)" style="fill-rule:evenodd"/><path d="M762.71,928.21H143.54a19,19,0,0,0,0,38H762.71a19,19,0,1,0,0-38" transform="translate(-120.52 -96)" style="fill-rule:evenodd"/><path d="M762.71,928.21H143.54a19,19,0,0,0,0,38H762.71a19,19,0,1,0,0-38Z" transform="translate(-120.52 -96)" style="fill:none;stroke:#000;stroke-linecap:round;stroke-linejoin:round;stroke-width:8px"/><path d="M1047.18,558.53c-.36-4.27-1.13-8-2.8-10.81-8.26-13.73-35.31-23.48-35.31-41.9,0-16.84,11.88-21.14,22.17-21.14,17,0,22.71,17.54,22.71,17.54s12.63-5.7,23.56,4.35c9,8.27,4.2,21.67,4.2,21.67s17.35,4.66,16.09,28.23-19.42,43.39-34,43.39c-11.89,0-15-8.72-15.83-19.34" transform="translate(-120.52 -96)" style="fill:none;stroke:#000;stroke-linecap:round;stroke-linejoin:round;stroke-width:8px"/><path d="M1041.76,558.27c26-1.4,13.69,31-6.15,21.52" transform="translate(-120.52 -96)" style="fill:none;stroke:#000;stroke-linecap:round;stroke-linejoin:round;stroke-width:8px"/><line x1="969.24" y1="646.05" x2="963.82" y2="680.76" style="fill:#fff"/><line x1="969.24" y1="646.05" x2="963.82" y2="680.76" style="fill:none;stroke:#000;stroke-linecap:round;stroke-linejoin:round;stroke-width:8px"/><line x1="898.44" y1="536.64" x2="905.07" y2="511.56" style="fill:#fff"/><line x1="898.44" y1="536.64" x2="905.07" y2="511.56" style="fill:none;stroke:#000;stroke-linecap:round;stroke-linejoin:round;stroke-width:8px"/><line x1="951.31" y1="538.28" x2="946.75" y2="503.49" style="fill:#fff"/><line x1="951.31" y1="538.28" x2="946.75" y2="503.49" style="fill:none;stroke:#000;stroke-linecap:round;stroke-linejoin:round;stroke-width:8px"/><path d="M1019,632.64l6.63-25.08h0c-16.33,4.05-33-2.34-33-27.48,0-19.48,14.7-43.61,24.48-57.53-4.67-4.88-8-10.27-8-16.73a31.36,31.36,0,0,1,.22-3.6H907.55a23.3,23.3,0,0,0-23.29,23.3v185c8.64-7.43,64.7-55.4,83.68-65.78,11.41-6.3,28.14-10.67,51-12.1" transform="translate(-120.52 -96)"/><path d="M1019,632.64l6.63-25.08h0c-16.33,4.05-33-2.34-33-27.48,0-19.48,14.7-43.61,24.48-57.53-4.67-4.88-8-10.27-8-16.73a31.36,31.36,0,0,1,.22-3.6H907.55a23.3,23.3,0,0,0-23.29,23.3v185c8.64-7.43,64.7-55.4,83.68-65.78C979.35,638.44,996.08,634.07,1019,632.64Z" transform="translate(-120.52 -96)" style="fill:none;stroke:#000;stroke-linecap:round;stroke-linejoin:round;stroke-width:8px"/><path d="M1252.18,502.22H1070.72a22.71,22.71,0,0,1,6.79,4.35c9,8.27,4.2,21.67,4.2,21.67s17.35,4.66,16.09,28.23c-1.17,21.72-16.67,40.24-30.54,43l4.57,34.79c29.09,4,54.69,13.78,63.47,31.42,17.48,35.15,8.46,111.06,8.46,111.06h108.42a23.3,23.3,0,0,0,23.3-23.3V525.52a23.3,23.3,0,0,0-23.3-23.3" transform="translate(-120.52 -96)"/><path d="M1252.18,502.22H1070.72a22.71,22.71,0,0,1,6.79,4.35c9,8.27,4.2,21.67,4.2,21.67s17.35,4.66,16.09,28.23c-1.17,21.72-16.67,40.24-30.54,43l4.57,34.79c29.09,4,54.69,13.78,63.47,31.42,17.48,35.15,8.46,111.06,8.46,111.06h108.42a23.3,23.3,0,0,0,23.3-23.3V525.52A23.3,23.3,0,0,0,1252.18,502.22Z" transform="translate(-120.52 -96)" style="fill:none;stroke:#000;stroke-linecap:round;stroke-linejoin:round;stroke-width:8px"/><path d="M966.94,694.73s-14.55,30.39-22.88,56.21" transform="translate(-120.52 -96)" style="fill:none;stroke:#000;stroke-linecap:round;stroke-linejoin:round;stroke-width:8px"/><line x1="815.2" y1="680.76" x2="799.1" y2="680.76" style="fill:none;stroke:#000;stroke-linecap:round;stroke-linejoin:round;stroke-width:8px"/><polygon points="823.54 654.94 799.1 680.76 815.2 680.76 823.54 654.94"/><path d="M833.11,647.27c-11-27.17-6.32-42.3-8.13-60.91-1.26-13-13-40.16-20.22-35.85s4.68,39,4.68,39" transform="translate(-120.52 -96)" style="fill:none;stroke:#000;stroke-linecap:round;stroke-linejoin:round;stroke-width:8px"/><line x1="473.86" y1="175.56" x2="473.86" y2="159.44"/><line x1="473.86" y1="175.56" x2="473.86" y2="159.44" style="fill:none;stroke:#000;stroke-linecap:round;stroke-linejoin:round;stroke-width:8px"/><line x1="418.72" y1="174.21" x2="431.15" y2="136.17"/><line x1="418.72" y1="174.21" x2="431.15" y2="136.17" style="fill:none;stroke:#000;stroke-linecap:round;stroke-linejoin:round;stroke-width:8px"/><path d="M594.38,206.83c-1.8-3.92-5.21-8.84-10.66-7.14-8.71,2.71-10.54,19.93-4.31,25.21,4.84,4.09,10.12-.57,10.12-.57" transform="translate(-120.52 -96)" style="fill:none;stroke:#000;stroke-linecap:round;stroke-linejoin:round;stroke-width:8px"/><path d="M583,226.58c-3.88,5.69-9.26,9.67-17.44,9.67-27.09,0-30.31-34.76-19.86-56.08,9.66-19.69,25.45-30.1,39.38-35.4,31.52-12,68.64,9.66,68.26,33-.18,11.14-6.29,16.8-17.09,16.93s-19.66-11.42-34.08-6.58c-4.58,1.54-7.12,7.85-9.64,15.43" transform="translate(-120.52 -96)" style="fill:none;stroke:#000;stroke-linecap:round;stroke-linejoin:round;stroke-width:8px"/><path d="M559.6,160.82a30.4,30.4,0,1,1,27.92-16.92" transform="translate(-120.52 -96)" style="fill:none;stroke:#000;stroke-linecap:round;stroke-linejoin:round;stroke-width:8px"/><path d="M751.45,382.24s-71.14-82.42-99.8-99c-17.89-10.37-57.27-11.64-57.27-11.64L580.2,303.21l-41-33s-47,14.17-54.95,30.09c-17.47,35.34-8.93,104.85-8.93,104.85l47.52,0,4.27-44.88a4,4,0,1,1,8,.76l-4.2,44.12,161.8-.15a104.36,104.36,0,0,0,41.85,22.91c39,10.49,97.27,0,97.27,0l14.18-47Zm-70,22.71c-6.79-6.7-13.08-12.37-19.6-18.27-4.82-4.34-9.77-8.82-15.24-14-.08.18-.14.36-.22.53-4.19,9.11-13,15.2-24.77,17.14a3.68,3.68,0,0,1-.66.06,4,4,0,0,1-.64-7.95c9.21-1.52,15.71-5.88,18.8-12.59,3.68-8,2.12-18.66-4.29-29.25a4,4,0,0,1,6.84-4.14c5.62,9.28,8.07,18.82,7.21,27.33,6.72,6.42,12.62,11.76,18.33,16.91,8.36,7.55,16.34,14.75,25.51,24.2Z" transform="translate(-120.52 -96)" style="fill-rule:evenodd"/><path d="M846,384.44s31.62-6.23,38.25-2.17c1.55,1,4,2.48,6.74,4.34s6,4.2,9,6.59h0c3.77,3,7.16,6.25,9,9.14,1.28,2,1.81,3.87,1.17,5.4-3,7.11-34.43-8.4-34.43-8.4" transform="translate(-120.52 -96)" style="fill:none;stroke:#000;stroke-linecap:round;stroke-linejoin:round;stroke-width:8px"/><path d="M833.44,422.55c26.58-2.89,36.06,8.22,59.6,3.28l11.24-2.75" transform="translate(-120.52 -96)" style="fill:none;stroke:#000;stroke-linecap:round;stroke-linejoin:round;stroke-width:8px"/><path d="M475.36,405.15s-8.54-69.51,8.93-104.85c8-15.92,54.95-30.09,54.95-30.09l41,33,14.18-31.65s39.38,1.28,57.27,11.65c28.66,16.61,99.8,99,99.8,99L846,380.88l-14.18,47s-58.24,10.49-97.27,0A104.42,104.42,0,0,1,692.71,405Z" transform="translate(-120.52 -96)" style="fill:none;stroke:#000;stroke-linecap:round;stroke-linejoin:round;stroke-width:8px"/></g><polygon points="1002.31 798.82 774.16 962.14 1029.62 1077.91 1002.31 798.82" style="fill:none;stroke:#000;stroke-linecap:round;stroke-linejoin:round;stroke-width:8px"/><g style="clip-path:url(#a)"><path d="M289.67,1221.4a31.28,31.28,0,1,1-43.56-7.74,31.28,31.28,0,0,1,43.56,7.74" transform="translate(-120.52 -96)" style="fill-rule:evenodd"/><path d="M289.67,1221.4a31.28,31.28,0,1,1-43.56-7.74A31.28,31.28,0,0,1,289.67,1221.4Z" transform="translate(-120.52 -96)" style="fill:none;stroke:#000;stroke-linecap:round;stroke-linejoin:round;stroke-width:8px"/></g><path d="M883.61,329.28c95.44,2.73,161.62,151.05,196-57.76,8.48-51.55-152,212.75,96.7,109.31" transform="translate(-120.52 -96)" style="fill:none;stroke:#000;stroke-linecap:round;stroke-linejoin:round;stroke-width:8px"/><path d="M813,354.81c20.43-16.72,40-24,58.53-25.38" transform="translate(-120.52 -96)" style="fill:none;stroke:#000;stroke-linecap:round;stroke-linejoin:round;stroke-width:8px"/><path d="M907.69,400.53c-4.68-18.91-9.52-37.39-13.69-50.94-3-9.67-12.68-40.41-19-37.61s4.26,36.14,7.16,45.93c2.46,8.31,5.73,18.34,9.39,29.07" transform="translate(-120.52 -96)" style="fill:none;stroke:#000;stroke-linecap:round;stroke-linejoin:round;stroke-width:8px"/><path d="M899,408.5c13.35,37.55,28,75.5,28,75.5s-8.09-37.35-17.36-75.49" transform="translate(-120.52 -96)" style="fill:none;stroke:#000;stroke-linecap:round;stroke-linejoin:round;stroke-width:8px"/><path d="M677.84,759.8V741.1a28.18,28.18,0,0,0-28.18-28.18H458.1V873.64" transform="translate(-120.52 -96)" style="fill:none;stroke:#000;stroke-linecap:round;stroke-width:8px"/><path d="M523.92,873.64c0-39.36-2.47-91.41,8.35-103.31,14.4-15.82,48.41-10.53,100-10.53" transform="translate(-120.52 -96)" style="fill:none;stroke:#000;stroke-linecap:round;stroke-width:8px"/><path d="M639.14,759.8H671a6.88,6.88,0,0,1,6.88,6.88V788a0,0,0,0,1,0,0H632.26a0,0,0,0,1,0,0V766.68a6.88,6.88,0,0,1,6.88-6.88Z" transform="translate(1189.58 1451.76) rotate(180)" style="fill:none;stroke:#000;stroke-linecap:round;stroke-width:8px"/><path d="M458.1,873.64H713.61a0,0,0,0,1,0,0v54.57a0,0,0,0,1,0,0H492.5a34.4,34.4,0,0,1-34.4-34.4V873.64A0,0,0,0,1,458.1,873.64Z" transform="translate(1051.19 1705.86) rotate(-180)" style="fill:none;stroke:#000;stroke-linecap:round;stroke-width:8px"/><line x1="534.53" y1="691.96" x2="534.53" y2="716.9" style="fill:none;stroke:#000;stroke-linecap:round;stroke-width:8px"/><circle cx="373.47" cy="647.64" r="16.16" style="fill:none;stroke:#000;stroke-linecap:round;stroke-width:8px"/><circle cx="373.47" cy="693.53" r="10.9" style="fill:none;stroke:#000;stroke-linecap:round;stroke-width:8px"/><rect x="485.03" y="678.96" width="17.92" height="33.95" rx="3.44" ry="3.44" transform="translate(867.45 1295.88) rotate(-180)" style="fill:none;stroke:#000;stroke-linecap:round;stroke-width:8px"/><rect x="523.48" y="686.59" width="17.92" height="26.32" rx="3.03" ry="3.03" transform="translate(944.37 1303.51) rotate(-180)" style="fill:none;stroke:#000;stroke-linecap:round;stroke-width:8px"/></svg>