<svg xmlns="http://www.w3.org/2000/svg" xmlns:xlink="http://www.w3.org/1999/xlink" viewBox="0 0 1404 1083.24"><defs><style>.a,.c,.e,.f{fill:none;}.b{clip-path:url(#a);}.c,.e,.f{stroke:#000;stroke-width:8px;}.c,.f{stroke-linecap:round;}.c{stroke-linejoin:round;}.d{fill-rule:evenodd;}.e,.f{stroke-miterlimit:10;}</style><clipPath id="a" transform="translate(-100 -109.06)"><rect class="a" y="-1.32" width="1600" height="1300"/></clipPath></defs><title>eco_friendly</title><g class="b"><path class="c" d="M834.61,425.14c118.75-48.55,390.39-106.43,452.63-70.72,40.59,23.34,61.2,104.31,79.7,143.64,67.3,141.33,82.66,437.86,82.66,437.86l49,161.5a33.89,33.89,0,0,1-12.3,37c-11.45,8.49-25.27,17.09-32.87,15.77-32.39-5-62.18-113-62.18-113s-37.93-26.18-42.13-51.42,7.36-54.26,7.36-54.26-38.27-88.17-69.52-166.63" transform="translate(-100 -109.06)"/><path class="c" d="M952.43,458.3c82.27,2.36,164.51,7.32,246.48,14.1,59.09,5.05,128.5,33.44,150.37,65.83,34.07,50.26,36.17,135-47.11,212.2-71.3,65.83-306.42,314-306.42,314s-3.79,49.21,19.56,74c11.2,11.9,24.29,21.58,34.87,28.43a10.16,10.16,0,0,1-4,18.6c-10.11,1.45-24.34,2.6-44.29,2.81-40.85.43-84.88-45.28-109.07-74.88a33.46,33.46,0,0,1,2.47-45.15l24.47-23.88S959,900,1018.88,801.53C1072.51,714.05,1175.35,640,1175.35,640s-155.92,60.55-355.76,71.5c-23.09,1.27-92.47-13.08-116.82-46.8" transform="translate(-100 -109.06)"/><path class="c" d="M716.15,560.47l-121,29.07s-13.41-65.82-28.59-120.36" transform="translate(-100 -109.06)"/><path class="c" d="M757.89,635.57c66.16-26.81,119-53.6,119-53.6s65.2,67.06,72.56,63.7-15.15-33.41-15.15-33.41,43,31.87,56.23,17c11-12.37-32.8-62-61.2-91.7-13.62-14.25-38.25-19-57.42-14.39" transform="translate(-100 -109.06)"/><path class="c" d="M470.18,316.6c-13.85,1.87-24.74,14.49-26.28,37.19-2.94,43.53,75.29,329.55,89.8,332.92a88.57,88.57,0,0,0,9.17,1.64" transform="translate(-100 -109.06)"/><path class="c" d="M355.57,203.42c18.09,30.7,32.18,69.19,58.89,94,38.69,36,97.37,23.13,85.8-36.39" transform="translate(-100 -109.06)"/><path class="d" d="M454.43,422.69l-10.53-68.9,5.32-21.13L462.83,320l-13-3.81-22.66-9.13-29-28.33-31-54.2-7.64-14.34a71.48,71.48,0,0,0,14.84,2.86c19,1.79,56.11,7.06,89.41-6.85l-.87-11.11,7.35-7.29,7.15-1.76,8.33,2.1c3.23-7.75,3.89-17.51.93-29.77-17.42-72.09-82-53.18-119.62-19-73.54,6.29-22.29,162.24-13.71,236.47,8.41,71.51-40.8,131,33.65,184.86,28.37,20.56,67,16.89,101.58-.21Z" transform="translate(-100 -109.06)"/><path class="c" d="M492.48,307.1s18.09.21,32.18,8" transform="translate(-100 -109.06)"/><path class="d" d="M952.43,456.84s153.52,12.2,188,12.62,113.15,13.46,113.15,13.46l-49.8-50.1Z" transform="translate(-100 -109.06)"/><polygon class="d" points="1186.91 655.82 1229.2 758.63 1236.85 602.47 1186.91 655.82"/><path class="c" d="M470.18,316.6l53.64,53.8,12,82.23s38.26,33,88.51,17.75" transform="translate(-100 -109.06)"/><path class="c" d="M322.09,720.74c23.63-99-36.84-229.53,17.88-317.68" transform="translate(-100 -109.06)"/><path class="c" d="M175.59,549.76c65.16,46.42,113.49,135.85,133.08,171.62" transform="translate(-100 -109.06)"/><path class="d" d="M142.52,403.5c-43,61.23,77.84,46.52,65.6-18.28,21,18.87,58.85,23,60.2-11.73C269,355.83,250,345,231.06,342c19.74-17.18,35.61-38.65,21.72-54.29-18.53-20.83-42.63-2-53.83,23.73-7-16.76-19.77-30.24-33.26-30.33-26.84-.12-24.19,32.44-12.1,58.26-82.15-16.48-56.66,66.12-11.07,64.15m63.55-69.09c29.92,8.37-10,57.26-32.72,50.94-26-7.25,15.06-56,32.72-50.94" transform="translate(-100 -109.06)"/><path class="c" d="M353.2,454.17c9.4-7.63,21.84-11.36,28.29.42,20.44,37.05-31.51,80.48-38.32,113.91-1.92,8.73,24.69-17.89,29.59,2.13C380,599.37,356.15,706.69,330.82,719c-15.33,7.45-44.08-111.36-39.39-130.31C294.83,574.68,310,587,310,587s-36.41-109.66-29.6-138.41c4.47-17.88,21.93-5.74,21.93-5.74S285.68,356,331.45,338.54c14.48-5.53,37.05-12.56,43.44,7.24C383.2,372,363.64,430.75,353.2,454.17Z" transform="translate(-100 -109.06)"/><path class="c" d="M295.26,627.48c-10.65-18.74-29.81-6.39-29.81-6.39s-11.07-66.43-21.08-78.78c-15.12-18.31-24.49,25.55-24.49,25.55s-86-86.23-109.23-51.74c-14.48,21.72,92,76.65,92,76.65S163,590.65,166.44,616c2.13,16,45.14,20.87,72.61,29.81,1.49,53,26,62,78.35,78.57" transform="translate(-100 -109.06)"/><path class="c" d="M208.12,385.22s41.65,57.2,83.31,203.51" transform="translate(-100 -109.06)"/><path class="c" d="M834.61,425.14s221.67-85.36,263.14-110c0,0-18.39,28.25-9.39,80.17,5.48,31.63,46.47,61.5,46.36,122-.07,40-70.22,113.08-50.07,202.14" transform="translate(-100 -109.06)"/><path class="c" d="M1097.75,315.09c19.17-9.63,28.25,36.08,28.25,36.08" transform="translate(-100 -109.06)"/><line class="c" x1="466.52" y1="360.12" x2="578.97" y2="460.34"/><path class="c" d="M463.7,206.24s-6-18.45,13.63-20.16,24.88,24.46,19.23,32.49-15.62,5.8-15.62,5.8" transform="translate(-100 -109.06)"/><path class="c" d="M956.11,1030.29s-27,6.46-17.61,29.35" transform="translate(-100 -109.06)"/><path class="c" d="M497.94,203.42l44.81,26.5s72.76-61.17,143.43-29.53c83.7,37.47,202.18,341.46,192,356.13C842,609.1,611.52,701,611.52,701s20.82,37.43,14.72,55.1c-6.1,17.87-38.7,16-38.7,16l-32.39-39.75s32.39,82.65,16,89c-6.1,2.11-54.89-106.2-44-118,35.76-38.7,245.64-182.13,245.64-182.13s-103.42-158-131.7-247.44a288.28,288.28,0,0,1-23.29-79.81" transform="translate(-100 -109.06)"/><polygon class="d" points="466.52 360.13 532.68 419.09 509.18 365.36 489.81 365.36 466.52 360.13"/></g><path class="e" d="M507.7,309q23,33.72,36.27,30.24,22.83-6,16.87-122" transform="translate(-100 -109.06)"/><g class="b"><circle class="c" cx="291.74" cy="912.77" r="49.54"/></g><g class="b"><path class="d" d="M853.39,205.33A24.34,24.34,0,1,1,829.06,181a24.33,24.33,0,0,1,24.33,24.34" transform="translate(-100 -109.06)"/></g><path class="f" d="M804.12,667.71" transform="translate(-100 -109.06)"/><path class="f" d="M139.42,781.66a1955.56,1955.56,0,0,1,392.87-95.95" transform="translate(-100 -109.06)"/><path d="M426.25,784.7a148.74,148.74,0,0,0-41.54,70.24c-1.63,6.23,8,8.89,9.65,2.66a138.86,138.86,0,0,1,39-65.83C438,787.34,430.92,780.27,426.25,784.7Z" transform="translate(-100 -109.06)"/><path d="M444.11,808.59l-15.65,18.33c-4.16,4.87,2.88,12,7.07,7.07l15.65-18.33C455.33,810.79,448.29,803.69,444.11,808.59Z" transform="translate(-100 -109.06)"/><path d="M735.85,814.32A134.75,134.75,0,0,0,689,879c-2.07,6.1,7.58,8.73,9.64,2.65A123.13,123.13,0,0,1,740.9,823C746,819.12,741,810.44,735.85,814.32Z" transform="translate(-100 -109.06)"/><path d="M744.45,836.61a110.26,110.26,0,0,0-30.21,42c-2.47,5.94,7.2,8.53,9.64,2.66a99.83,99.83,0,0,1,27.64-37.58C756.43,839.5,749.32,832.45,744.45,836.61Z" transform="translate(-100 -109.06)"/><path d="M918,883.87A244.36,244.36,0,0,0,897.32,931c-2,6.14,7.7,8.77,9.65,2.65a231.35,231.35,0,0,1,19.71-44.77C929.88,883.33,921.24,878.28,918,883.87Z" transform="translate(-100 -109.06)"/><path d="M953,865a166.89,166.89,0,0,0-29.16,53.56c-2,6.14,7.66,8.77,9.64,2.66a153.63,153.63,0,0,1,26.59-49.15C964.09,867.09,957.06,860,953,865Z" transform="translate(-100 -109.06)"/><path d="M1215.41,999.22a165.31,165.31,0,0,0-29,53.56c-2,6.14,7.68,8.77,9.64,2.66a152.23,152.23,0,0,1,26.42-49.15C1226.48,1001.33,1219.45,994.21,1215.41,999.22Z" transform="translate(-100 -109.06)"/><path d="M1221.11,1031c-8.07,6.25-12.59,15.45-13.52,25.51-.59,6.41,9.42,6.37,10,0,.7-7.53,4.68-13.86,10.59-18.44C1233.26,1034.16,1226.13,1027.13,1221.11,1031Z" transform="translate(-100 -109.06)"/><path d="M575.93,968.12a121.47,121.47,0,0,0-18,92c1.29,6.3,10.93,3.64,9.64-2.66a111.34,111.34,0,0,1,17-84.28C588.17,967.82,579.51,962.81,575.93,968.12Z" transform="translate(-100 -109.06)"/><path d="M605.58,1001.9a137.17,137.17,0,0,0-16.39,37.3c-1.69,6.21,7.95,8.87,9.64,2.66A127.47,127.47,0,0,1,614.22,1007C617.67,1001.49,609,996.47,605.58,1001.9Z" transform="translate(-100 -109.06)"/><path d="M271.76,876.15a45.62,45.62,0,0,0-7.45,37.7c1.47,6.26,11.12,3.61,9.64-2.66a36,36,0,0,1,6.44-30C284.22,876,275.54,871,271.76,876.15Z" transform="translate(-100 -109.06)"/></svg>