<svg xmlns="http://www.w3.org/2000/svg" xmlns:xlink="http://www.w3.org/1999/xlink" viewBox="0 0 1296.09 1408"><defs><style>.a,.c,.e{fill:none;}.b{clip-path:url(#a);}.c,.e{stroke:#000;stroke-width:8px;}.c{stroke-linecap:round;stroke-linejoin:round;}.d{fill-rule:evenodd;}.e{stroke-miterlimit:10;}</style><clipPath id="a" transform="translate(-117.91 -96.45)"><rect class="a" width="1500" height="1600"/></clipPath></defs><title>made_for_you</title><g class="b"><path class="c" d="M323.91,281.48c10.19-12.21,37.85-43.27,57.38-45.67,12.63-1.38,26.88,20.68,26.88,42.28,0,5.05-15.39,12.64-31.71,19.3-3.21,1.15,28.49,9.42,24.82,14.47-4.12,5.71-32.73,3.11-50.09.94" transform="translate(-117.91 -96.45)"/><path class="c" d="M575.81,441.29c5.48-18.1,13.44-50.39,6.06-65.78-5.51-11.72-31.94-11.95-50.09-.46-4.36,2.76-2.52,19.76.46,37,.69,3.45-23-19.07-25.5-13.32-2.68,6.46,14.43,29.25,25.44,42.93" transform="translate(-117.91 -96.45)"/><path class="c" d="M341.34,541.13c1.71,16.08,3.33,35.27,3.33,35.27l13.64,8" transform="translate(-117.91 -96.45)"/><path class="c" d="M278.81,587s7.62-31.57,13.47-55.87" transform="translate(-117.91 -96.45)"/><path class="c" d="M336.48,439.61c15.86,20.91,35.39,46.65,39.29,73.3,4.72,32.82-33.22,35.2-53.61,20" transform="translate(-117.91 -96.45)"/><path class="d" d="M318.08,495.83c.13-10.29.94-19.88,9.44-24.51,24.82-13.55,50.78-50.78,8.73-54.91-20.67-3-38.27.82-53.21,15.29-22.28,21.8-11.81,55.48-10.89,63.29,2.53,19.53,27.25,59.91,43.1,25.44l-4.69-1.21-5.28-4.06L302,508l.24-5.23,2.78-4.53,6.29-2.79Z" transform="translate(-117.91 -96.45)"/><path class="c" d="M318.88,496c-26.92-5.58-19,30.53,3.28,23.64" transform="translate(-117.91 -96.45)"/><path class="c" d="M188.22,918.41l54.75,218s-30.1,53.18-37.91,141.87c-5.52,62,2.3,171.86,2.3,171.86l-1.61,50.34H353.89l10.52-21.9-77.33-40.84s46-211.62,54-302.37c6-68.7,3.36-151.57,3.36-151.57L457.11,1146.6s-28.26,41.12-31.71,121.54c-2.3,52.16,5.29,156.7,5.29,156.7l-3.3,51,156.7,1,5.69-18.63c-20.19-13.52-59.68-31.43-85.8-38.45,26.88-85,59.51-280.31,59.51-280.31L434.7,833.16" transform="translate(-117.91 -96.45)"/><path class="c" d="M528.11,441.68s-6.67,116-21.37,121.32c-60,21.59-148.43,21.37-148.43,21.37L318.1,657.2l-43-76.74L265.72,540,247.79,433.18S335.56,336,349.35,322s-37.45-49.62-37.45-49.62-140.85,111.43-141.08,165c-.12,27.7,45.65,319,43.55,322-3.21,4.59-41,157.49-41,157.49,122.42,15.88,127.06-50,191.62-81.56,38.14-18.84,69.73-2.11,69.73-2.11s-24.64-49.45-30.05-95.42c-.73-6.22,17.31-90.42,17.31-90.42s100.63,1.15,131.88-28,30.79-178.07,30.79-178.07Z" transform="translate(-117.91 -96.45)"/><polyline class="c" points="182.65 815.54 180.89 1039.8 141.03 1345.63"/><path class="c" d="M232.17,1446.25s2.76-105,11-181.1,22.06-125.45,22.06-125.45l-22-204.05" transform="translate(-117.91 -96.45)"/><path class="c" d="M391.94,827l144.44,313.4s-17,56.29-30.56,125.45-24.94,155.61-24.94,155.61" transform="translate(-117.91 -96.45)"/><path class="c" d="M451.59,1423.46s2.3-96.27,13.1-167c11-71,30.56-116.49,30.56-116.49L343.14,871.2" transform="translate(-117.91 -96.45)"/><line class="c" x1="312.78" y1="1328.61" x2="386.07" y2="1323.33"/><path class="d" d="M278.81,497.53c9.28-14,26.39-27.64,20.68-29.89-11.72-4.59-20.68-9.19-34.69-7.12-40.44,5.74-29.18,53.77-47.56,75.13-20.91,24.13-55.84,31.48-77.66,57-31.71,37.22-34,105,29.87,105,46.87,0,82-29.41,105.69-67.78,11.47-18.68,10.66-37.8,7.15-57.22l10-41.49Z" transform="translate(-117.91 -96.45)"/><path class="c" d="M256.76,710.75c16.54,10.33,30.09,3.9,44.11-3.45" transform="translate(-117.91 -96.45)"/><circle class="c" cx="1056.93" cy="602.58" r="36.63"/><path d="M532.69,593.16a70.31,70.31,0,1,1-70.3,70.31,70.31,70.31,0,0,1,70.3-70.31" transform="translate(-117.91 -96.45)"/><path class="d" d="M391.94,827c-36.68,19.44-54.19,59.39-88.49,83-58.9,40.62-111.06,25-111.06,25l-4.17-16.61,37.91,0,45.7-12.65L301.69,885l31.44-28.58L361.77,837Z" transform="translate(-117.91 -96.45)"/><line class="c" x1="226.54" y1="887.32" x2="226.54" y2="852.05"/><line class="c" x1="89.45" y1="1353.66" x2="169.18" y2="1341.25"/><path class="c" d="M373.42,238.05a83.23,83.23,0,0,0-24.68-26.71c-44.31-31.56-141.33-6.5-141.33-6.5" transform="translate(-117.91 -96.45)"/><path class="c" d="M529.56,392.64a172,172,0,0,1-27.5-12.54c-76.79-43.2-28.66-111.12-7.89-97.59,30.71,20-37.83,69.92-77.69,32.87a103.92,103.92,0,0,1-20.9-26.68" transform="translate(-117.91 -96.45)"/><path d="M921.31,1190.33c40.34,2.46,93.75.22,140.45-5.67-45.63-11.49-98-19.68-138.62-21.53a119.34,119.34,0,0,0-2,21.45c0,1.93.06,3.84.15,5.75" transform="translate(-117.91 -96.45)"/><path d="M1084.84,1181.36c29.21-4.72,53.94-11,68.37-18.43.83-.44,1.62-.87,2.37-1.31a117.47,117.47,0,0,0-7.94-25.06c-13.21-7.15-33.38-14.81-57.42-21.9-43.19,11.09-106.62,17.8-156.1,16.1a117.31,117.31,0,0,0-9,23.27c45.89,2.26,106.12,12.34,155.14,26,1.5.42,3,.84,4.53,1.28" transform="translate(-117.91 -96.45)"/><path d="M1140.3,1122.61a119,119,0,0,0-15.53-20,129.05,129.05,0,0,1-18,7.27,305.42,305.42,0,0,1,33.54,12.75" transform="translate(-117.91 -96.45)"/><path d="M939.24,1121.75a580.2,580.2,0,0,0,60.48-2.23,625.19,625.19,0,0,0,71.65-10.1,733.42,733.42,0,0,0-103.28-19.19,119,119,0,0,0-28.85,31.52" transform="translate(-117.91 -96.45)"/><path d="M1070.11,1260.82c32.68-4.58,55.25-9.63,70.11-14.15a118,118,0,0,0,12.38-27.24c-11.91-8.54-33.59-18.53-68.48-28.71a813.84,813.84,0,0,1-82.1,8.52c-26.08,1.45-54.68,1.82-79.88.32a117.8,117.8,0,0,0,8.92,32.4c37.07,4.92,84.58,16.22,126.48,30.52,4.21-.52,8.41-1.08,12.57-1.66" transform="translate(-117.91 -96.45)"/><path d="M1106.57,1282a118.71,118.71,0,0,0,25.3-23.56,554.5,554.5,0,0,1-55.67,10.72c10.83,4.12,21.06,8.42,30.37,12.84" transform="translate(-117.91 -96.45)"/><path d="M1155.05,1210a117.83,117.83,0,0,0,2-38.76c-11.59,5.91-30.14,11.38-53.24,16,19.25,6.37,38,14,51.23,22.81" transform="translate(-117.91 -96.45)"/><path d="M967.55,1278.5a118.32,118.32,0,0,0,129.26,9.6c-12.25-5.51-26.11-11-40.9-16.18-28.77,3.53-59.62,5.9-88.36,6.58" transform="translate(-117.91 -96.45)"/><path d="M1117.67,1095.79a118.24,118.24,0,0,0-138.11-13.23c36.08,4.66,76.44,12.55,111,22.39a174.9,174.9,0,0,0,27.13-9.16" transform="translate(-117.91 -96.45)"/><path d="M957.1,1269.46c24.16-.23,51.08-1.75,78-4.46-32.54-10.26-67.76-18.78-99.23-23.24a118.51,118.51,0,0,0,21.2,27.7" transform="translate(-117.91 -96.45)"/></g><g class="b"><path class="c" d="M712,270c-10.16,11.19-20.44,35.76-28.74,52.8-22.87,47-58.32,72.9-98.69,77" transform="translate(-117.91 -96.45)"/><path class="c" d="M1340.63,721.9c17,22.3,39.35,41.25,69.37,55.1" transform="translate(-117.91 -96.45)"/><path class="c" d="M1225.3,388c61.69,78.48,45.59,219.51,102.5,314.91" transform="translate(-117.91 -96.45)"/><path class="c" d="M965,503.42c-65.29,52.87-140.58-35-80-117.42,72-98,229-95,320-19q3.46,2.89,6.69,6" transform="translate(-117.91 -96.45)"/><path class="c" d="M745.49,252.33C938,146,1077.23,288.11,1004,449c-7.25,15.92-15.22,28.79-23.58,38.95" transform="translate(-117.91 -96.45)"/></g><g class="b"><path class="c" d="M1123.84,1468.21s93.49-431.79,155.42-633c14-45.52,59.71-190.28,89.5-177.11s-20,170.21-33.72,216.29C1277.11,1070.21,1123.84,1468.21,1123.84,1468.21Z" transform="translate(-117.91 -96.45)"/><path class="c" d="M1327.58,780.58c-9.62-4.23,20.73-86.73,27.17-81.29S1345.59,788.62,1327.58,780.58Z" transform="translate(-117.91 -96.45)"/></g><g class="b"><path class="c" d="M836.5,904c72.45-126.75,197-341.06,276.78-458.89,26.73-39.51,113-164.67,137.67-143.34s-69.16,157.2-95.85,197.36C1075.54,619.3,921,822,836.82,931Z" transform="translate(-117.91 -96.45)"/><path class="c" d="M1175.66,407c-8-6.86,45.26-76.92,49.91-69.93S1190.47,420,1175.66,407Z" transform="translate(-117.91 -96.45)"/><path class="c" d="M1097.85,1085.6c-18.91-120.66-46.42-287.6-70.71-406.09" transform="translate(-117.91 -96.45)"/><path class="c" d="M978.38,745.38c27.38,105.47,63.47,231.55,92.06,328.75" transform="translate(-117.91 -96.45)"/><path class="c" d="M963.34,685.91c-6-24.27-11.26-47-15.72-67.6-10.13-46.52-41.14-195.14-8.72-198.25,29-2.8,58.67,125.12,72.3,186.13" transform="translate(-117.91 -96.45)"/><path class="c" d="M963,547c-10.46,1-24.4-85.77-16.12-84.18S982.63,545.2,963,547Z" transform="translate(-117.91 -96.45)"/><polygon class="d" points="909.24 583.06 860.47 648.93 868.18 678.37 911.21 592.75 909.24 583.06"/></g><g class="b"><path class="c" d="M837.14,1449.19S736,750.94,716.28,415.49c-4.36-75.82-16.77-318,35.16-315,51.92,3.22,65,265.84,70.3,342.58,10.2,147.24,14.32,367.48,15.77,564.4C839.27,1245.34,837.14,1449.19,837.14,1449.19Z" transform="translate(-117.91 -96.45)"/><path class="c" d="M758.33,306.58c-16.77-1.15-17.46-141.3-4.83-136.94C766.14,174.24,789.58,308.65,758.33,306.58Z" transform="translate(-117.91 -96.45)"/><path class="d" d="M777.53,264.29c-.94,26.51-3.5,73.44-16,73s-19.09-78.82-19.09-78.82l7,29.27L755,304.29h8.44l6.8-8.18,3.25-17.46.39-8.95Z" transform="translate(-117.91 -96.45)"/></g><path class="e" d="M278.81,587c68.73,215.92,41.86,254.83-7,318.77" transform="translate(-117.91 -96.45)"/><path class="e" d="M358.31,584.37c-17.89,149.72-5.38,185.53,23.34,248.91" transform="translate(-117.91 -96.45)"/></svg>