<svg xmlns="http://www.w3.org/2000/svg" fill-rule="evenodd" stroke-linecap="round" stroke-linejoin="round" stroke-miterlimit="1.5" clip-rule="evenodd" viewBox="0 0 736 2210"><path fill="none" d="M0 0h736v2209.9968H0z"/><path fill="#fff" stroke="#7f7f7f" stroke-width="3" d="M368 1094.41c-3.109.16-7.06.18-10-.41 8.96 76.04 1.833 349.83-8 431-1.768 14.59-2.5 32.83-3 44-.496 11.07-4.664 21.94-4 33 5.5 91.67 1.017 120.59-11 349-2.361 44.88 28.969 185.62 10 213-4.816 6.95-72.428-7.85-72-23 .907-32.05 22.946-119.13 18-151-25.717-165.72-51.2-198.83-29.324-392.67 3.376-29.92 1.027-46.29-1.676-72.33-28.933-278.66-135.171-394.43-5-700-4.57-59.448-25.783-153.708-41-208-14.699 42.383-25.791 120.157-40 184-8.077 113.352-32.833 148.333-57 246-6.157 24.88 25.868 48.49 26 70-8.844 37.09 2.666 74.51-4 74-19.667-1.5-12.206-68.67-36-71-25.321 39.58 40.167 106.83 35 116-3.95 7.01-65.817-64.71-66-79-.741-58.03-.9-75.72 5-115 11.167-74.333 4.946-187.183 14-211 50.726-133.435 47.94-384.879 87-399 53.641-19.392 72.696-12.696 135-48 10.6-6.006 12.242-45 13.677-96.255 12.063 17.437 26.597 26.987 44.323 27.249"/><path fill="#fff" stroke="gray" stroke-linecap="butt" stroke-width="3" d="M368 231.07c-11.026 1.365-21.917 1.93-32 1.93-52.708 0-50.5-24.426-56.5-91-5.796-64.313 35.792-105 88.5-105"/><path fill="#fff" stroke="#7f7f7f" stroke-linecap="butt" stroke-width="3" d="M368 314.994c-21.362-.316-37.974-14.12-51.48-38.965-11.776-21.663-21.118-37.233-21.52-68.529-.387-30.151-1.789-77.773 9.287-99.125 13.66-26.332 41.03-38.201 63.713-38.373"/><path fill="none" stroke="gray" stroke-width="3" d="M368 968.666c-5.5-.01-11-.576-16.5-1.666M274 871c6.569 1.304 13.474 1.979 20.729 2M335 1554c-.289-3.98 3.902-6.48 2-11M268 902c5.122 1.853 9.953 3.804 20 4M262.349 613c4.093-4.083 6.028-3.938 10.651 1M368 186.909c-19.206.312-38.457-1.668-57.75-5.909M368 268.842c-7.833.002-15.667-1.276-23.5-3.842M364 277c1.333-.661 2.667-.989 4-.988M360 236c-.625 1.908 1.94 1.663 2 1M279 1547c.813-11.25-5.12-11.57-2-25"/><g><path fill="#fff" stroke="#7f7f7f" stroke-width="3" d="M368 1094.41c-3.109.16-7.06.18-10-.41 8.96 76.04 1.833 349.83-8 431-1.768 14.59-2.5 32.83-3 44-.496 11.07-4.664 21.94-4 33 5.5 91.67 1.017 120.59-11 349-2.361 44.88 28.969 185.62 10 213-4.816 6.95-72.428-7.85-72-23 .907-32.05 22.946-119.13 18-151-25.717-165.72-51.2-198.83-29.324-392.67 3.376-29.92 1.027-46.29-1.676-72.33-28.933-278.66-135.171-394.43-5-700-4.57-59.448-25.783-153.708-41-208-14.699 42.383-25.791 120.157-40 184-8.077 113.352-32.833 148.333-57 246-6.157 24.88 25.868 48.49 26 70-8.844 37.09 2.666 74.51-4 74-19.667-1.5-12.206-68.67-36-71-25.321 39.58 40.167 106.83 35 116-3.95 7.01-65.817-64.71-66-79-.741-58.03-.9-75.72 5-115 11.167-74.333 4.946-187.183 14-211 50.726-133.435 47.94-384.879 87-399 53.641-19.392 72.696-12.696 135-48 10.6-6.006 12.242-45 13.677-96.255 12.063 17.437 26.597 26.987 44.323 27.249" transform="matrix(-1 0 0 1 736 0)"/><path fill="#fff" stroke="gray" stroke-linecap="butt" stroke-width="3" d="M368 231.07c-11.026 1.365-21.917 1.93-32 1.93-52.708 0-50.5-24.426-56.5-91-5.796-64.313 35.792-105 88.5-105" transform="matrix(-1 0 0 1 736 0)"/><path fill="#fff" stroke="#7f7f7f" stroke-linecap="butt" stroke-width="3" d="M368 314.994c-21.362-.316-37.974-14.12-51.48-38.965-11.776-21.663-21.118-37.233-21.52-68.529-.387-30.151-1.789-77.773 9.287-99.125 13.66-26.332 41.03-38.201 63.713-38.373" transform="matrix(-1 0 0 1 736 0)"/><g><path fill="none" stroke="gray" stroke-width="3" d="M368 968.666c-5.5-.01-11-.576-16.5-1.666M274 871c6.569 1.304 13.474 1.979 20.729 2M335 1554c-.289-3.98 3.902-6.48 2-11M268 902c5.122 1.853 9.953 3.804 20 4M262.349 613c4.093-4.083 6.028-3.938 10.651 1M368 186.909c-19.206.312-38.457-1.668-57.75-5.909M368 268.842c-7.833.002-15.667-1.276-23.5-3.842M364 277c1.333-.661 2.667-.989 4-.988M360 236c-.625 1.908 1.94 1.663 2 1M279 1547c.813-11.25-5.12-11.57-2-25" transform="matrix(-1 0 0 1 736 0)"/></g></g><g><path fill="none" stroke="#000" stroke-dasharray="15 7.5 0 0" stroke-width="1.5" d="M276.236 657.302c-5.884-24.984-16.32-48.535-8.236-94.187M208.646 595.877C264.141 531.39 310.517 580.942 368 587M252 825c21.591 7.014 63.945 9.147 116 9M265.965 1000c6.923-55.321 16.594-126.234 30.069-168M211 617c-9.281-84.489-19.222-163.428-36-185M310 384c2.439 23.684 18.889 40.995 58 48M74 1042c10.702 8.16 24.168 9.5 40 5M202.966 973.127C280.796 997.991 330.987 1039.16 358 1094M211 617c46.76 83.404 136.544 12.278 157 8M296.034 832c-9.743-56.578-16.302-114.832-19.798-174.698"/></g><g><path fill="none" stroke="#000" stroke-dasharray="15 7.5 0 0" stroke-width="1.5" d="M276.236 657.302c-5.884-24.984-16.32-48.535-8.236-94.187M208.646 595.877C264.141 531.39 310.517 580.942 368 587M252 825c21.591 7.014 63.945 9.147 116 9M265.965 1000c6.923-55.321 16.594-126.234 30.069-168M211 617c-9.281-84.489-19.222-163.428-36-185M310 384c2.439 23.684 18.889 40.995 58 48M74 1042c10.702 8.16 24.168 9.5 40 5M202.966 973.127C280.796 997.991 330.987 1039.16 358 1094M211 617c46.76 83.404 136.544 12.278 157 8M296.034 832c-9.743-56.578-16.302-114.832-19.798-174.698" transform="matrix(-1 0 0 1 736 0)"/></g></svg>