<svg xmlns="http://www.w3.org/2000/svg" xmlns:xlink="http://www.w3.org/1999/xlink" viewBox="0 0 1355.39 1437.71"><defs><style>.a,.b,.c,.h,.i{fill:none;}.b{stroke:#231f20;}.b,.c,.h{stroke-miterlimit:10;}.b,.h{stroke-width:83px;}.c,.h{stroke:#fff;}.c{stroke-width:65px;}.d,.e,.f,.g{fill:#fff;}.d,.i{stroke:#000;}.d,.e,.f,.g,.i{stroke-linecap:round;stroke-linejoin:round;stroke-width:8px;}.e{stroke:#565656;}.f{stroke:#919191;}.g{stroke:#e2e2e2;}.j{clip-path:url(#a);}</style><clipPath id="a" transform="translate(-40.79 -66.29)"><rect class="a" width="1500" height="1600"/></clipPath></defs><title>modern</title><path class="b" d="M410.6,90.26l-5.67,8C264.07,285.46,269.62,378.75,290.18,434.88c71.38,194.83,798.44,95.78,801.92,289.82,3.83,213-823.4,84.39-823.4,437.92,0,319.91,826.16,131.54,1010.83,95l8.68-1.87" transform="translate(-40.79 -66.29)"/><path class="c" d="M404.93,98.27C264.07,285.46,269.62,378.75,290.18,434.88c71.38,194.83,798.44,95.78,801.92,289.82,3.83,213-823.4,84.39-823.4,437.92,0,319.91,826.16,131.54,1010.83,95" transform="translate(-40.79 -66.29)"/><line class="d" x1="323.54" y1="31.27" x2="353.02" y2="54.53"/><line class="d" x1="305.93" y1="48.72" x2="320.67" y2="60.35"/><line class="e" x1="292.75" y1="71.52" x2="323.53" y2="93.03"/><line class="e" x1="276.82" y1="93.03" x2="292.22" y2="103.78"/><line class="f" x1="262.44" y1="119.19" x2="295.77" y2="136.5"/><line class="f" x1="249.7" y1="139.63" x2="266.36" y2="148.29"/><line class="g" x1="239.76" y1="164.51" x2="258.03" y2="172.69"/><line class="g" x1="228.16" y1="188.62" x2="245.29" y2="196.29"/><line class="d" x1="1221.31" y1="1229.74" x2="1213.1" y2="1193.1"/><line class="d" x1="1197.96" y1="1238.07" x2="1193.85" y2="1219.74"/><line class="e" x1="1172.18" y1="1240" x2="1165.15" y2="1203.11"/><line class="e" x1="1145.42" y1="1245.13" x2="1142.39" y2="1226.61"/><line class="f" x1="1120.53" y1="1249.1" x2="1113.53" y2="1212.2"/><line class="f" x1="1094.36" y1="1256.89" x2="1091.37" y2="1238.35"/><path class="b" d="M1284.08,1255.71" transform="translate(-40.79 -66.29)"/><line class="h" x1="322" y1="160.39" x2="277.71" y2="326.23"/><line class="h" x1="607.88" y1="467.63" x2="909.44" y2="515.45"/><line class="h" x1="552.76" y1="1241.24" x2="639.54" y2="1241.24"/><line class="h" x1="564.49" y1="1317.14" x2="657.94" y2="1317.14"/><line class="h" x1="928.4" y1="1211.29" x2="1069.22" y2="1187.55"/><line class="h" x1="1007.14" y1="1275.26" x2="1069.22" y2="1263.11"/><path class="i" d="M379.08,74.38C312.15,159.32,268.7,230.8,245.21,331.75" transform="translate(-40.79 -66.29)"/><line class="d" x1="1249.46" y1="1226.61" x2="1073.94" y2="1261.29"/><g class="j"><path d="M810.2,167c-110.21,0-126,156.11-126,156.11q23.13,6.1,44.45,10.49l-2.36-9.37,1.19-24.68,9.16-36.74,7.48-17.25c44.65-11.05,89.22,20.74,89.22,20.74l8.81-1.25,4.62,3.47,2.57,13.28L846.43,296l-6.83,10.4-10.18,4.26,11.05,37.75c49.55,2.59,78-1.69,78-1.69S914.72,167,810.2,167" transform="translate(-40.79 -66.29)"/><path class="i" d="M528.1,886.48c82.33-74.26,215.43-172,215.43-172" transform="translate(-40.79 -66.29)"/><path class="i" d="M667.74,1156.23c1.56,8.58,3,17.57,4.23,27,6.14,46.68,14.58,171.67,14.58,171.67s35.53,56.52,27.48,71.88c-8.72,16.59-56.88,13.14-56.88,13.14s-119,74.65-127,57.51,93.75-136.28,93.75-136.28S472.47,1105.5,463.72,986.35" transform="translate(-40.79 -66.29)"/><path class="i" d="M643.57,992.8c-27.63,5.23-46,7.89-46,7.89s11.52,9.16,25.81,32" transform="translate(-40.79 -66.29)"/><path class="i" d="M755.91,229c-21.69,18.74-47.23,110.61-12.84,123.57,16.13,6.08,36.91-3.63,52.79-14" transform="translate(-40.79 -66.29)"/><path class="i" d="M598.72,557.92S680.88,403.8,711,399.06l52-8.19s2.66,45,26.65,50.64c32.1,7.61,65.18-44.18,65.18-44.18s65,19.31,85.94,32.07c42.18,25.68,154.7,216.88,154.7,216.88s155.42,130.63,184.85,146.82c21.15,11.64,88.37,11.7,105.18,40.48,13.54,23.19,3.8,56.8-4.71,57.37-16.79,1.13-12-38.87-23.49-45.51s-40.83-10-43.48.07,37.71,10.1,39.14,19.87c2.67,18.3-42.88,9.37-95.56-16.73" transform="translate(-40.79 -66.29)"/><path class="i" d="M402.41,338.28l-1.13-8.23a10.46,10.46,0,0,1,19.59-6.33c60,118.93,159.59,216.86,177.85,234.2" transform="translate(-40.79 -66.29)"/><path class="i" d="M321.86,394.69a33.13,33.13,0,0,1-16.83-27l-.81-14.23L315.53,355" transform="translate(-40.79 -66.29)"/><path class="i" d="M706.79,595.3s-70.7,60.23-124.54,60.23C534.07,655.53,406.17,424,406.17,424L347.4,404" transform="translate(-40.79 -66.29)"/><polyline class="i" points="897.63 524.49 881.8 641.14 702.74 648.23 665.99 529.01"/><path class="i" d="M938.42,590.79s57.22,101,83,119.59,235.95,138.27,235.95,138.27" transform="translate(-40.79 -66.29)"/><line class="i" x1="722.18" y1="324.57" x2="726.44" y2="287.05"/><path class="i" d="M817.3,300.28c2.09,5.25,7,13,16.92,9.36,14.55-5.3,18.22-31.45,12.51-41.15s-22.05,2.63-22.05,2.63" transform="translate(-40.79 -66.29)"/><line class="i" x1="814" y1="331.04" x2="788.63" y2="244.34"/><path class="i" d="M759.86,1068.71s71.13-10.43,184,70.63c38.26,27.46,135.19,106.82,135.19,106.82s56.75,9.8,54.12,27.2c-2.75,17.57-20.25,50.55-20.25,50.55s-17.56,129.25-34.4,125.21-37.81-153-37.81-153S611,1196.62,611,1081.81c0-40,37-101.1,74.47-152.71" transform="translate(-40.79 -66.29)"/><path class="i" d="M958.05,873.52c-30.55,106.93-169.16,196.25-169.16,196.25" transform="translate(-40.79 -66.29)"/><path class="i" d="M922.6,707.44s27.31,37.17,37.55,88.31" transform="translate(-40.79 -66.29)"/><path class="i" d="M459.45,987.71c-9.47,94,45.35,227.09,57.95,358.76,0,0,111.08-11.18,196.69-58.51l-40.29-127" transform="translate(-40.79 -66.29)"/><path class="i" d="M673.8,1160.92l240.92,224.41s82.65-61.88,128.65-168.18" transform="translate(-40.79 -66.29)"/><path d="M1095.44,646.28S982.92,455.08,940.74,429.4c-21-12.76-86-32.07-86-32.07s-33.07,51.79-65.17,44.18c-24-5.68-26.65-50.64-26.65-50.64l-52,8.19c-30.09,4.74-112.25,158.86-112.25,158.86-13.41-12.74-70.68-69-123.94-145l-49.84,43.93c37.34,63.87,120.54,198.72,157.31,198.72,53.84,0,124.54-60.23,124.54-60.23l36.74,119.23,179.07-7.09,15.82-116.65s57.22,101,83,119.59c21.23,15.34,167.56,99.22,218.51,128.32l28.2-53.53c-46.51-32.84-172.69-138.89-172.69-138.89M702.51,593.21a4,4,0,0,1-5.5,1.32c-14.16-8.68-38.56-28.17-42.83-61.22a4.05,4.05,0,0,1,.24-2l23.68-59.94a4,4,0,1,1,7.44,2.94l-23.29,59c4.21,29.14,26.14,46.57,38.94,54.41a4,4,0,0,1,1.32,5.5m233-7.37a4,4,0,0,1-5.47-1.42l-25.8-43.81a4,4,0,1,1,6.89-4.06l25.8,43.81a4,4,0,0,1-1.42,5.48" transform="translate(-40.79 -66.29)"/></g><path class="i" d="M402.41,338.27,409.19,380A14,14,0,0,1,397.53,396l-59.77,9.5a14,14,0,0,1-16.06-11.65L299,251A14,14,0,0,1,310.66,235l59.77-9.5a14,14,0,0,1,16.06,11.66l15,94.13" transform="translate(-40.79 -66.29)"/><line class="i" x1="284.52" y1="211.84" x2="329.08" y2="204.76"/><line class="i" x1="294.67" y1="227.14" x2="324.18" y2="222.45"/><rect x="1082.81" y="941.49" width="100.98" height="100.98" transform="translate(-407.51 790.19) rotate(-36.03)"/><rect class="i" x="1082.81" y="941.49" width="100.98" height="100.98" transform="translate(-407.51 790.19) rotate(-36.03)"/><polygon class="i" points="302.58 554.53 4 665.14 249.07 868.23 302.58 554.53"/><circle class="i" cx="1106.8" cy="278.3" r="66.6"/></svg>