<svg width="81" height="88" viewBox="0 0 81 88" fill="none" xmlns="http://www.w3.org/2000/svg">
<path d="M40.5197 84.875V86.875V84.875ZM80.0897 79.465L76.3397 68.175C76.4059 68.1253 76.4662 68.0683 76.5197 68.005C76.7307 67.6206 76.8632 67.1982 76.9095 66.7621C76.9559 66.3261 76.9151 65.8852 76.7897 65.465L75.9697 62.595C75.8205 62.0498 75.5308 61.5532 75.1297 61.155L74.9097 60.485C74.3497 58.735 73.9097 57.095 73.4497 55.485C72.3398 50.9806 70.7158 46.6186 68.6097 42.485C67.4129 39.8089 65.3239 37.6315 62.6997 36.325C63.5258 34.219 63.8078 31.9388 63.5197 29.695L63.3897 28.615L62.3197 28.855C60.5397 29.235 59.2597 29.065 58.3897 28.325C56.9397 27.075 56.3897 23.995 56.6997 19.175C57.0997 13.425 55.6997 8.64502 52.6397 5.37502C49.7397 2.27502 45.5197 0.64502 40.5197 0.64502C35.5197 0.64502 31.3697 2.29502 28.5197 5.37502C25.5197 8.64502 24.0697 13.375 24.4597 19.175C24.7897 23.995 24.2197 27.075 22.7697 28.325C21.8997 29.075 20.6197 29.235 18.8397 28.855L17.7797 28.605L17.6397 29.695C17.3758 31.9068 17.6609 34.1496 18.4697 36.225C15.801 37.5145 13.6753 39.7075 12.4697 42.415C10.3658 46.5496 8.74192 50.9113 7.62966 55.415C7.18966 57.015 6.73966 58.665 6.17966 60.415L5.94966 61.095C5.55212 61.4865 5.26569 61.9765 5.11966 62.515L4.28966 65.395C4.15619 65.8139 4.10778 66.2553 4.14727 66.6932C4.18677 67.1311 4.31338 67.5567 4.51966 67.945C4.56966 68.015 4.59966 68.085 4.65966 68.155L0.969658 79.445C0.714569 80.1881 0.612307 80.9751 0.669016 81.7587C0.725724 82.5423 0.940233 83.3064 1.29966 84.005C1.65418 84.7092 2.144 85.3366 2.74112 85.8513C3.33824 86.3661 4.03095 86.7581 4.77966 87.005C5.39148 87.1962 6.02866 87.294 6.66966 87.295C7.92827 87.2948 9.15493 86.8987 10.1761 86.1629C11.1972 85.4271 11.9611 84.3889 12.3597 83.195L16.1897 71.605C16.6869 71.4301 17.1346 71.1379 17.4949 70.7532C17.8553 70.3685 18.1176 69.9026 18.2597 69.395L19.0997 66.525C19.2353 66.0539 19.2627 65.5582 19.1797 65.075L21.7397 56.705V76.265C21.7397 82.405 26.0597 86.865 32.0097 86.865H40.5197V84.865H32.0097C27.1297 84.865 23.7397 81.325 23.7397 76.265V71.005C32.4197 66.945 30.3397 59.855 27.9397 51.665C26.6097 47.085 25.0997 41.905 25.1097 36.345C25.9997 36.205 26.9897 36.105 28.0597 36.025C28.5197 45.125 33.9397 52.305 40.5997 52.305C47.2597 52.305 52.6897 45.145 53.1297 36.105C54.2497 36.175 55.2797 36.305 56.1897 36.435C56.1897 41.975 54.6797 47.125 53.3497 51.695C50.9797 59.805 48.9197 66.845 57.3497 70.915V76.285C57.3497 81.345 53.9497 84.865 49.0697 84.865H40.5197V86.865H48.9997C54.9997 86.865 59.2797 82.415 59.2797 76.285V56.765L61.8397 65.125C61.7528 65.6041 61.7767 66.0966 61.9097 66.565L62.7497 69.445C62.8966 69.9529 63.1616 70.4189 63.5231 70.8047C63.8846 71.1906 64.3324 71.4854 64.8297 71.665L68.6597 83.235C69.0548 84.4326 69.8172 85.4752 70.8387 86.2148C71.8601 86.9544 73.0886 87.3534 74.3497 87.355C74.9887 87.3505 75.623 87.2459 76.2297 87.045C76.9786 86.7974 77.6713 86.4045 78.2683 85.8889C78.8652 85.3733 79.3546 84.745 79.7085 84.0401C80.0624 83.3351 80.2738 82.5673 80.3306 81.7805C80.3874 80.9938 80.2886 80.2035 80.0397 79.455L80.0897 79.465ZM10.4497 82.605C10.1137 83.5976 9.40173 84.4188 8.46671 84.8919C7.5317 85.365 6.44837 85.4523 5.44966 85.135C4.94799 84.9755 4.48381 84.716 4.08509 84.3723C3.68637 84.0286 3.36137 83.6077 3.12966 83.135C2.89342 82.6645 2.75238 82.1521 2.71463 81.627C2.67688 81.1019 2.74315 80.5745 2.90966 80.075L6.41966 69.465L6.59966 69.545L14.0997 71.695L10.4497 82.605ZM17.0597 66.005L16.2397 68.875C16.1468 69.1836 15.9367 69.4434 15.6543 69.5986C15.3719 69.7538 15.0399 69.792 14.7297 69.705L7.15966 67.505C7.00372 67.4658 6.85794 67.3938 6.73205 67.2938C6.60616 67.1938 6.50307 67.0681 6.42966 66.925C6.26679 66.6399 6.22363 66.3019 6.30966 65.985L7.13966 63.115C7.23768 62.8062 7.4483 62.5456 7.72966 62.385C8.01369 62.2292 8.34712 62.1898 8.65966 62.275L16.2297 64.465C16.3855 64.5047 16.5307 64.5782 16.6551 64.6801C16.7795 64.782 16.8801 64.91 16.9497 65.055C17.0363 65.1957 17.0911 65.3537 17.1101 65.5178C17.1291 65.6819 17.1119 65.8483 17.0597 66.005ZM25.7597 52.375C28.1997 60.705 29.2597 65.375 23.7597 68.505V56.005C23.7597 55.745 23.6497 54.865 22.2697 54.675C21.3997 54.555 20.2697 54.675 20.0097 55.615L17.8197 62.695L14.3697 61.695L14.0697 61.605L8.72966 60.105L8.40966 60.025C8.84966 58.595 9.21966 57.245 9.58966 55.935C10.6649 51.5595 12.2386 47.3218 14.2797 43.305C15.7297 40.515 17.5197 38.035 22.8797 36.785C22.8897 42.545 24.4197 47.735 25.7597 52.355V52.375ZM40.5997 50.175C35.0997 50.175 30.5997 43.905 30.1897 35.975H30.4397C30.8243 36.5718 31.4152 37.0061 32.0997 37.195C32.0789 37.3644 32.0789 37.5357 32.0997 37.705C32.0997 38.5007 32.4157 39.2637 32.9783 39.8263C33.5409 40.389 34.304 40.705 35.0997 40.705C35.3454 40.7092 35.5907 40.6823 35.8297 40.625C36.0145 41.0555 36.2977 41.4367 36.6564 41.7381C37.0151 42.0394 37.4394 42.2526 37.8953 42.3605C38.3512 42.4684 38.826 42.468 39.2817 42.3594C39.7375 42.2508 40.1614 42.037 40.5197 41.735C41.0764 42.2614 41.8135 42.5548 42.5797 42.555C43.1607 42.554 43.7289 42.3843 44.2153 42.0666C44.7017 41.7488 45.0853 41.2967 45.3197 40.765C45.6405 40.8798 45.9789 40.9373 46.3197 40.935C47.1153 40.935 47.8784 40.6189 48.441 40.0563C49.0036 39.4937 49.3197 38.7307 49.3197 37.935C49.3197 37.815 49.3197 37.695 49.3197 37.575C49.972 37.4366 50.5596 37.0847 50.9897 36.575C50.3797 44.215 45.9497 50.155 40.5997 50.155V50.175ZM31.9397 34.235C31.932 34.0619 31.9696 33.8897 32.0485 33.7354C32.1275 33.5812 32.2452 33.4501 32.3901 33.355C32.535 33.2599 32.7022 33.2041 32.8752 33.1931C33.0481 33.1821 33.221 33.2162 33.3768 33.2922C33.5326 33.3681 33.666 33.4832 33.7639 33.6262C33.8618 33.7692 33.9208 33.9352 33.9352 34.108C33.9496 34.2807 33.9189 34.4542 33.8461 34.6114C33.7732 34.7687 33.6607 34.9043 33.5197 35.005C33.4597 35.005 33.4097 35.075 33.3497 35.095C33.2156 35.16 33.0687 35.1941 32.9197 35.195C32.6647 35.1901 32.4212 35.088 32.2391 34.9096C32.0569 34.7311 31.9498 34.4898 31.9397 34.235ZM34.0497 37.625C34.0485 37.4706 34.0831 37.318 34.1508 37.1792C34.2184 37.0404 34.3173 36.9192 34.4397 36.825C34.4997 36.825 34.5497 36.755 34.5997 36.735C34.7329 36.6666 34.8799 36.629 35.0297 36.625C35.2949 36.625 35.5492 36.7304 35.7368 36.9179C35.9243 37.1054 36.0297 37.3598 36.0297 37.625C36.032 37.7379 36.0116 37.8502 35.9697 37.955C35.9365 38.0464 35.8929 38.1337 35.8397 38.215C35.7466 38.3424 35.6246 38.446 35.4839 38.5172C35.3431 38.5885 35.1874 38.6254 35.0297 38.625C34.7679 38.6198 34.5187 38.5121 34.3354 38.3251C34.1522 38.1382 34.0496 37.8868 34.0497 37.625ZM37.5697 39.465C37.5741 39.3528 37.5943 39.2417 37.6297 39.135L37.7597 38.875C37.8528 38.7476 37.9747 38.6441 38.1154 38.5728C38.2562 38.5015 38.4119 38.4646 38.5697 38.465C38.7674 38.465 38.9608 38.5237 39.1252 38.6335C39.2897 38.7434 39.4179 38.8996 39.4935 39.0823C39.5692 39.2651 39.589 39.4661 39.5504 39.6601C39.5119 39.8541 39.4166 40.0323 39.2768 40.1721C39.1369 40.312 38.9587 40.4072 38.7647 40.4458C38.5708 40.4844 38.3697 40.4646 38.187 40.3889C38.0042 40.3132 37.8481 40.185 37.7382 40.0206C37.6283 39.8561 37.5697 39.6628 37.5697 39.465ZM41.5697 39.555C41.5697 39.3572 41.6283 39.1639 41.7382 38.9995C41.8481 38.835 42.0042 38.7068 42.187 38.6311C42.3697 38.5555 42.5708 38.5356 42.7647 38.5742C42.9587 38.6128 43.1369 38.7081 43.2768 38.8479C43.4166 38.9878 43.5119 39.1659 43.5504 39.3599C43.589 39.5539 43.5692 39.755 43.4935 39.9377C43.4179 40.1204 43.2897 40.2766 43.1252 40.3865C42.9608 40.4964 42.7674 40.555 42.5697 40.555C42.3114 40.5447 42.0672 40.4348 41.8883 40.2484C41.7093 40.0619 41.6095 39.8134 41.6097 39.555H41.5697ZM45.2797 37.935C45.2797 37.6698 45.385 37.4155 45.5726 37.2279C45.7601 37.0404 46.0144 36.935 46.2797 36.935C46.5449 36.935 46.7992 37.0404 46.9868 37.2279C47.1743 37.4155 47.2797 37.6698 47.2797 37.935C47.2797 38.2002 47.1743 38.4546 46.9868 38.6421C46.7992 38.8297 46.5449 38.935 46.2797 38.935C46.0214 38.9247 45.7772 38.8148 45.5983 38.6284C45.4193 38.4419 45.3195 38.1935 45.3197 37.935H45.2797ZM47.6397 34.645C47.6397 34.4472 47.6983 34.2539 47.8082 34.0895C47.9181 33.925 48.0742 33.7968 48.257 33.7211C48.4397 33.6455 48.6408 33.6256 48.8347 33.6642C49.0287 33.7028 49.2069 33.7981 49.3468 33.9379C49.4866 34.0778 49.5819 34.2559 49.6204 34.4499C49.659 34.6439 49.6392 34.845 49.5635 35.0277C49.4879 35.2104 49.3597 35.3666 49.1952 35.4765C49.0308 35.5864 48.8374 35.645 48.6397 35.645C48.3814 35.6347 48.1372 35.5248 47.9583 35.3384C47.7793 35.1519 47.6795 34.9035 47.6797 34.645H47.6397ZM51.6097 34.005C51.4509 33.2831 51.0312 32.6452 50.4311 32.2136C49.831 31.7821 49.0927 31.5873 48.3577 31.6666C47.6228 31.7459 46.9431 32.0938 46.4488 32.6434C45.9546 33.1931 45.6807 33.9058 45.6797 34.645C45.6797 34.765 45.6797 34.885 45.6797 35.005C45.2182 35.104 44.7867 35.3105 44.4201 35.6076C44.0534 35.9047 43.7621 36.2841 43.5697 36.715C43.2468 36.6096 42.9093 36.5556 42.5697 36.555C41.8349 36.5484 41.1232 36.8117 40.5697 37.295C40.298 37.0277 39.9761 36.8167 39.6226 36.6742C39.269 36.5318 38.8908 36.4607 38.5097 36.465C38.2668 36.4634 38.0247 36.4937 37.7897 36.555C37.6194 36.12 37.35 35.7307 37.0028 35.4182C36.6556 35.1057 36.2402 34.8786 35.7897 34.755C35.8305 34.5847 35.8506 34.4101 35.8497 34.235C35.8674 33.8411 35.8073 33.4475 35.673 33.0767C35.5386 32.7059 35.3325 32.3653 35.0664 32.0742C34.8004 31.783 34.4796 31.5472 34.1224 31.38C33.7652 31.2129 33.3786 31.1178 32.9847 31.1C32.5907 31.0823 32.1971 31.1423 31.8263 31.2767C31.4556 31.4111 31.1149 31.6172 30.8238 31.8832C30.5327 32.1493 30.2968 32.4701 30.1297 32.8272C29.9625 33.1844 29.8674 33.5711 29.8497 33.965C26.574 33.9943 23.32 34.4995 20.1897 35.465C19.6535 34.0425 19.4251 32.5223 19.5197 31.005C20.3123 31.1529 21.1275 31.1277 21.9094 30.9309C22.6914 30.7341 23.4215 30.3705 24.0497 29.865C26.0497 28.115 26.8197 24.685 26.4397 19.055C26.0697 13.865 27.2997 9.61502 29.9597 6.74502C32.4597 4.06502 36.1397 2.65502 40.6097 2.65502C45.0197 2.65502 48.6897 4.08502 51.1797 6.74502C53.8197 9.60502 55.0497 13.855 54.6897 19.005C54.3097 24.635 55.0597 28.075 57.0697 29.815C57.6961 30.3252 58.4244 30.6953 59.2058 30.9006C59.9871 31.1058 60.8034 31.1414 61.5997 31.005C61.6784 32.5486 61.4084 34.0901 60.8097 35.515C57.8304 34.5769 54.7325 34.0684 51.6097 34.005ZM61.0597 55.645C60.7897 54.735 59.6797 54.565 58.7997 54.645C57.4197 54.845 57.3097 55.725 57.3097 55.985V68.355C52.0597 65.245 53.1297 60.565 55.5297 52.355C56.8797 47.745 58.3797 42.585 58.4497 36.885C63.6197 38.175 65.3697 40.605 66.8097 43.365C68.8568 47.3849 70.437 51.6258 71.5197 56.005C71.8797 57.325 72.2597 58.665 72.6897 60.085L72.3697 60.175L66.6497 61.765L66.1497 61.905L63.2797 62.715L61.0597 55.645ZM64.8097 68.865L63.9797 66.005C63.9336 65.8507 63.9195 65.6886 63.9384 65.5286C63.9574 65.3687 64.0088 65.2143 64.0897 65.075C64.1635 64.9342 64.2655 64.81 64.3894 64.7102C64.5132 64.6104 64.6563 64.5372 64.8097 64.495L72.3797 62.315C72.4956 62.2963 72.6137 62.2963 72.7297 62.315C72.9326 62.3147 73.1323 62.3664 73.3097 62.465C73.4512 62.5404 73.5757 62.6442 73.6755 62.7698C73.7753 62.8953 73.8482 63.0401 73.8897 63.195L74.7297 66.005C74.8149 66.3176 74.7755 66.651 74.6197 66.935C74.5447 67.0799 74.4401 67.2073 74.3126 67.3089C74.1851 67.4106 74.0376 67.4842 73.8797 67.525L66.3097 69.705C65.9994 69.7913 65.6676 69.7515 65.3866 69.5941C65.1056 69.4368 64.8982 69.1747 64.8097 68.865ZM77.9497 83.155C77.7186 83.6264 77.395 84.0464 76.9981 84.39C76.6012 84.7336 76.1392 84.9938 75.6397 85.155C74.6331 85.4871 73.536 85.4061 72.5891 84.9298C71.6423 84.4536 70.9232 83.6211 70.5897 82.615L66.9797 71.715L74.5197 69.555C74.5864 69.5423 74.6506 69.5186 74.7097 69.485L78.1897 80.105C78.517 81.1133 78.4307 82.2103 77.9497 83.155ZM46.8897 19.245C46.9097 19.5451 46.8391 19.8444 46.6869 20.1038C46.5347 20.3633 46.3081 20.571 46.0364 20.7C45.7646 20.8291 45.4604 20.8734 45.1632 20.8273C44.8659 20.7812 44.5894 20.6468 44.3695 20.4416C44.1496 20.2364 43.9965 19.9698 43.9301 19.6764C43.8636 19.383 43.8869 19.0765 43.9969 18.7965C44.1069 18.5166 44.2985 18.2761 44.5469 18.1064C44.7952 17.9368 45.0889 17.8457 45.3897 17.845C45.7736 17.8342 46.1463 17.975 46.4271 18.2371C46.7078 18.4991 46.874 18.8613 46.8897 19.245ZM37.2597 19.325C37.2777 19.6249 37.2053 19.9232 37.0518 20.1814C36.8983 20.4397 36.6708 20.6459 36.3988 20.7733C36.1268 20.9008 35.8228 20.9436 35.5261 20.8963C35.2295 20.849 34.9539 20.7137 34.735 20.508C34.5161 20.3022 34.3641 20.0355 34.2985 19.7423C34.233 19.4492 34.2569 19.1431 34.3673 18.8637C34.4777 18.5844 34.6695 18.3446 34.9177 18.1754C35.166 18.0063 35.4593 17.9156 35.7597 17.915C36.1452 17.9042 36.5194 18.0465 36.8005 18.3107C37.0815 18.5748 37.2466 18.9395 37.2597 19.325ZM43.0697 25.005H38.0697V23.005H43.0697V25.005ZM52.5197 15.495C52.4062 14.5779 52.2325 13.6693 51.9997 12.775C51.2425 10.3346 49.7261 8.19967 47.6712 6.68094C45.6164 5.1622 43.1305 4.33901 40.5754 4.3312C38.0202 4.32339 35.5293 5.13137 33.4652 6.63751C31.4012 8.14366 29.8718 10.2693 29.0997 12.705C28.5018 14.5625 28.3042 16.5256 28.5197 18.465C28.4905 21.6476 29.7268 24.7115 31.9566 26.9825C34.1864 29.2536 37.2271 30.5458 40.4097 30.575C43.5923 30.6042 46.6561 29.3679 48.9272 27.1381C51.1982 24.9083 52.4905 21.8676 52.5197 18.685C52.5942 18.2961 52.6311 17.901 52.6297 17.505C52.6268 16.8336 52.59 16.1627 52.5197 15.495ZM50.0197 15.435C45.5197 15.075 40.0197 13.375 37.0197 10.655C38.1655 10.3778 39.3407 10.2402 40.5197 10.245C44.3097 10.245 48.5197 11.675 50.0497 15.435H50.0197ZM40.5197 6.36502C42.1464 6.36354 43.749 6.75897 45.1884 7.51699C46.6278 8.27502 47.8605 9.37277 48.7797 10.715C46.3696 9.01236 43.4688 8.1449 40.5197 8.24502C38.8596 8.22906 37.2069 8.46852 35.6197 8.95502C34.9781 9.16019 34.3557 9.42119 33.7597 9.73502C33.2701 9.97297 32.8046 10.2576 32.3697 10.585C33.2926 9.28205 34.514 8.21901 35.9319 7.48483C37.3499 6.75065 38.923 6.36668 40.5197 6.36502ZM50.5197 18.455C50.5197 21.1072 49.4661 23.6507 47.5907 25.5261C45.7154 27.4015 43.1718 28.455 40.5197 28.455C37.8675 28.455 35.324 27.4015 33.4486 25.5261C31.5732 23.6507 30.5197 21.1072 30.5197 18.455C30.4479 16.9665 30.8328 15.4917 31.6228 14.228C32.4128 12.9644 33.5701 11.9725 34.9397 11.385C38.2697 15.115 45.1297 17.195 50.4797 17.485C50.4953 17.7915 50.4953 18.0986 50.4797 18.405L50.5197 18.455ZM53.9197 71.455L52.6497 70.855C51.2739 70.287 50.021 69.4585 48.9597 68.415C48.9623 68.4383 48.9623 68.4618 48.9597 68.485V68.335H31.9597V68.435C31.9507 68.4023 31.9507 68.3678 31.9597 68.335C30.8947 69.3913 29.6392 70.2363 28.2597 70.825L27.2597 71.285L27.8097 72.225C28.2305 72.8645 28.4943 73.5943 28.5797 74.355C28.4201 75.4704 28.7017 76.6041 29.3645 77.5153C30.0274 78.4265 31.0193 79.0434 32.1297 79.235C32.4801 79.301 32.8112 79.4449 33.0985 79.6561C33.3858 79.8673 33.622 80.1403 33.7897 80.455C34.3162 81.4484 35.2093 82.1973 36.2793 82.5428C37.3492 82.8882 38.5116 82.8029 39.5197 82.305C39.8415 82.1521 40.1933 82.0728 40.5497 82.0728C40.906 82.0728 41.2578 82.1521 41.5797 82.305C42.5886 82.7978 43.7492 82.8803 44.8177 82.5353C45.8861 82.1903 46.7794 81.4447 47.3097 80.455C47.4745 80.1401 47.7087 79.8667 47.9945 79.6554C48.2803 79.4441 48.6103 79.3004 48.9597 79.235C50.0659 79.0456 51.0554 78.4341 51.7196 77.5293C52.3837 76.6245 52.6705 75.4972 52.5197 74.385C52.4356 74.0562 52.4316 73.712 52.5082 73.3814C52.5848 73.0508 52.7396 72.7434 52.9597 72.485L53.9197 71.455ZM46.9197 70.335C46.6774 71.8662 45.8966 73.2606 44.7179 74.2675C43.5392 75.2744 42.0399 75.8276 40.4897 75.8276C38.9394 75.8276 37.4401 75.2744 36.2614 74.2675C35.0827 73.2606 34.3019 71.8662 34.0597 70.335H46.9197ZM50.5597 74.645C50.6469 75.2444 50.4973 75.8541 50.1426 76.3451C49.788 76.836 49.2561 77.1696 48.6597 77.275C48.0082 77.3853 47.3911 77.645 46.8568 78.0336C46.3224 78.4222 45.8853 78.9292 45.5797 79.515C45.296 80.0511 44.8146 80.4554 44.2376 80.6421C43.6606 80.8288 43.0336 80.7832 42.4897 80.515C41.8982 80.2193 41.246 80.0653 40.5847 80.0653C39.9234 80.0653 39.2711 80.2193 38.6797 80.515C38.1372 80.7828 37.5117 80.8281 36.9363 80.6413C36.361 80.4545 35.8813 80.0503 35.5997 79.515C35.2905 78.9348 34.8518 78.4337 34.3177 78.0504C33.7835 77.6672 33.1683 77.4121 32.5197 77.305C31.9214 77.2019 31.3871 76.8693 31.0303 76.3781C30.6736 75.8869 30.5227 75.2758 30.6097 74.675C30.6443 73.8103 30.4512 72.9516 30.0497 72.185C30.7711 71.8133 31.4661 71.3923 32.1297 70.925C32.4905 72.8729 33.5197 74.6339 35.0398 75.9044C36.5598 77.1749 38.4755 77.8752 40.4565 77.8847C42.4376 77.8942 44.3599 77.2122 45.892 75.9563C47.4242 74.7005 48.4701 72.9494 48.8497 71.005C49.4836 71.4572 50.1524 71.8584 50.8497 72.205C50.5411 72.9895 50.4445 73.8414 50.5697 74.675L50.5597 74.645Z" fill="white" fill-opacity="0.87"/>
</svg>
