<svg viewBox="0 0 87 88" fill="none" xmlns="http://www.w3.org/2000/svg">
<path d="M47.1711 16.3446C47.1911 16.6447 47.1205 16.9439 46.9683 17.2034C46.8162 17.4628 46.5895 17.6706 46.3178 17.7996C46.0461 17.9286 45.7418 17.9729 45.4446 17.9269C45.1474 17.8808 44.8708 17.7464 44.6509 17.5412C44.431 17.3359 44.2779 17.0693 44.2115 16.7759C44.145 16.4826 44.1683 16.176 44.2783 15.8961C44.3883 15.6161 44.5799 15.3757 44.8283 15.206C45.0766 15.0363 45.3703 14.9452 45.6711 14.9446C46.055 14.9337 46.4277 15.0746 46.7085 15.3367C46.9892 15.5987 47.1555 15.9608 47.1711 16.3446ZM40.1711 48.8646C39.8967 48.8821 39.6335 48.9795 39.4137 49.1447C39.194 49.3099 39.0274 49.5358 38.9343 49.7944C38.8413 50.0531 38.8259 50.3334 38.89 50.6007C38.9542 50.868 39.0951 51.1108 39.2954 51.2991C39.4957 51.4874 39.7467 51.613 40.0174 51.6605C40.2882 51.708 40.567 51.6753 40.8194 51.5664C41.0719 51.4576 41.287 51.2773 41.4383 51.0478C41.5896 50.8182 41.6705 50.5495 41.6711 50.2746C41.6581 49.8944 41.4971 49.5342 41.2226 49.2709C40.948 49.0075 40.5815 48.8617 40.2011 48.8646H40.1711ZM40.1711 55.6646C39.8967 55.6821 39.6335 55.7795 39.4137 55.9447C39.194 56.1099 39.0274 56.3358 38.9343 56.5944C38.8413 56.8531 38.8259 57.1334 38.89 57.4007C38.9542 57.668 39.0951 57.9108 39.2954 58.0991C39.4957 58.2874 39.7467 58.413 40.0174 58.4605C40.2882 58.508 40.567 58.4753 40.8194 58.3664C41.0719 58.2576 41.287 58.0773 41.4383 57.8478C41.5896 57.6182 41.6705 57.3495 41.6711 57.0746C41.658 56.6926 41.4957 56.331 41.219 56.0674C40.9423 55.8037 40.5732 55.6591 40.1911 55.6646H40.1711ZM40.1711 62.4446C39.8967 62.4621 39.6335 62.5595 39.4137 62.7247C39.194 62.8899 39.0274 63.1158 38.9343 63.3744C38.8413 63.6331 38.8259 63.9134 38.89 64.1807C38.9542 64.448 39.0951 64.6908 39.2954 64.8791C39.4957 65.0674 39.7467 65.193 40.0174 65.2405C40.2882 65.288 40.567 65.2553 40.8194 65.1464C41.0719 65.0376 41.287 64.8573 41.4383 64.6278C41.5896 64.3982 41.6705 64.1295 41.6711 63.8546C41.658 63.4726 41.4957 63.111 41.219 62.8474C40.9423 62.5837 40.5732 62.4391 40.1911 62.4446H40.1711ZM36.0511 15.0046C35.7763 15.0222 35.5127 15.1198 35.2928 15.2855C35.0728 15.4511 34.9062 15.6775 34.8135 15.9368C34.7207 16.1961 34.7059 16.4768 34.7709 16.7444C34.8359 17.0119 34.9777 17.2546 35.179 17.4425C35.3803 17.6304 35.6322 17.7552 35.9036 17.8016C36.175 17.8479 36.4541 17.8138 36.7063 17.7035C36.9586 17.5931 37.173 17.4113 37.3231 17.1804C37.4732 16.9496 37.5525 16.6799 37.5511 16.4046C37.5446 16.2141 37.5007 16.0268 37.4218 15.8533C37.3429 15.6799 37.2306 15.5237 37.0913 15.3937C36.952 15.2636 36.7884 15.1623 36.6099 15.0956C36.4314 15.0288 36.2415 14.9979 36.0511 15.0046ZM43.3611 20.0646H38.3611V22.0646H43.3611V20.0646ZM55.0111 17.0646C54.97 18.1091 54.6095 19.116 53.9783 19.9492C53.3471 20.7825 52.4755 21.4022 51.4811 21.7246C50.4674 23.6606 48.9402 25.2802 47.0668 26.4056C45.1935 27.531 43.0464 28.1188 40.8611 28.1046C38.671 28.0941 36.5249 27.4884 34.6525 26.3522C32.7801 25.2161 31.2518 23.5923 30.2311 21.6546C29.2483 21.3232 28.3894 20.7011 27.7679 19.8708C27.1465 19.0404 26.7919 18.0409 26.7511 17.0046C26.7462 16.2594 26.9247 15.5244 27.2711 14.8646C26.0211 10.5346 27.4811 5.00457 33.3611 3.08457C36.4811 0.00457358 41.8911 -0.655427 46.6411 1.39457C49.1257 2.40655 51.2243 4.18227 52.6336 6.46516C54.0429 8.74805 54.6899 11.4199 54.4811 14.0946V14.8146C54.8545 15.5114 55.0373 16.2944 55.0111 17.0846V17.0646ZM28.9411 13.2546L29.2411 13.1246C29.6498 11.5336 30.3808 10.0435 31.3888 8.74656C32.3967 7.4496 33.6603 6.37338 35.1011 5.58457C35.5473 5.3397 36.0081 5.12262 36.4811 4.93457C37.2439 5.3158 37.9506 5.80036 38.5811 6.37457C38.9911 6.72457 39.4111 7.10457 39.8611 7.51457C42.3011 9.73457 45.5011 12.6546 50.3811 13.0846C51.0766 13.1402 51.7755 13.1402 52.4711 13.0846V13.0046C52.4602 10.8983 51.8257 8.84246 50.6475 7.09652C49.4693 5.35058 47.8003 3.9928 45.8511 3.19457C41.7511 1.46457 37.1311 2.00457 34.6111 4.65457L34.4311 4.84457L34.1811 4.92457C32.4033 5.37152 30.8664 6.48692 29.8903 8.03857C28.9142 9.59021 28.5742 11.4585 28.9411 13.2546ZM53.0111 17.0846C53.0367 16.6994 52.9572 16.3146 52.7811 15.9711C52.605 15.6276 52.3388 15.3385 52.0111 15.1346H51.6711C45.2711 15.1446 41.2511 11.4946 38.4811 9.00457C37.8021 8.35863 37.0877 7.75103 36.3411 7.18457C34.9815 7.8701 33.7964 8.85705 32.8761 10.0702C31.9559 11.2833 31.3248 12.6905 31.0311 14.1846L30.9011 14.8446L30.2311 14.9746C29.7896 15.0929 29.4019 15.3588 29.1326 15.7282C28.8633 16.0976 28.7287 16.548 28.7511 17.0046C28.8122 17.6843 29.0871 18.3271 29.5362 18.8409C29.9853 19.3547 30.5857 19.7131 31.2511 19.8646L31.6611 19.9946L31.8511 20.3846C32.6643 22.078 33.938 23.5082 35.5265 24.5112C37.1149 25.5142 38.9537 26.0495 40.8323 26.0557C42.7109 26.062 44.5532 25.539 46.1483 24.5466C47.7433 23.5542 49.0266 22.1326 49.8511 20.4446L50.0411 20.0546L50.4811 20.0046C51.1604 19.8541 51.7733 19.4888 52.2289 18.9629C52.6846 18.437 52.9588 17.7784 53.0111 17.0846ZM86.0111 68.4146C86.0111 69.2102 85.695 69.9733 85.1324 70.5359C84.5698 71.0985 83.8067 71.4146 83.0111 71.4146C82.2601 71.4176 81.5352 71.1389 80.9798 70.6334C80.4243 70.1279 80.0787 69.4325 80.0111 68.6846L77.1611 67.7946C77.0808 67.9534 76.9906 68.107 76.8911 68.2546L80.4811 79.5946C80.988 81.1444 80.8742 82.8305 80.1637 84.2981C79.4531 85.7658 78.2012 86.9009 76.6711 87.4646C76.057 87.6783 75.4112 87.7865 74.7611 87.7846C73.8516 87.7826 72.955 87.5704 72.1411 87.1646C71.4055 86.7908 70.7523 86.2734 70.2199 85.6431C69.6875 85.0128 69.2867 84.2823 69.0411 83.4946L65.1911 71.4146C65.04 71.3582 64.8929 71.2913 64.7511 71.2146C64.3504 70.993 63.9986 70.6928 63.7168 70.3319C63.435 69.9711 63.229 69.557 63.1111 69.1146L62.2811 66.1146C62.1472 65.6194 62.1165 65.102 62.1911 64.5946L59.6911 56.0046V71.0046C60.1291 71.3605 60.6014 71.672 61.1011 71.9346L62.8711 72.8646L59.1711 80.0046C58.5688 82.1194 57.2862 83.9768 55.5219 85.2892C53.7575 86.6016 51.6098 87.2959 49.4111 87.2646H40.8511H40.9111V85.2646H49.3811C51.2091 85.3074 52.9957 84.7162 54.4375 83.5916C55.8793 82.4669 56.8875 80.878 57.2911 79.0946C56.6189 78.73 55.9709 78.3225 55.3511 77.8746L48.4211 80.8746L40.7611 71.1846L33.1011 80.8746L26.3211 77.8746C25.7377 78.3128 25.1227 78.7072 24.4811 79.0546C24.8849 80.8371 25.8935 82.4248 27.3355 83.5478C28.7775 84.6708 30.5639 85.2597 32.3911 85.2146H40.9211H40.8611V87.2146H32.3811C30.1888 87.2489 28.046 86.5619 26.2825 85.2591C24.519 83.9563 23.2325 82.1101 22.6211 80.0046L18.9211 72.9146L20.6611 72.0046C21.1607 71.742 21.633 71.4305 22.0711 71.0746V56.0046L19.5711 64.5646C19.647 65.0753 19.6164 65.5962 19.4811 66.0946L18.6511 69.0946C18.5332 69.537 18.3272 69.9511 18.0454 70.3119C17.7636 70.6728 17.4118 70.973 17.0111 71.1946C16.8692 71.2713 16.7222 71.3382 16.5711 71.3946L12.7411 83.4746C12.4955 84.2623 12.0947 84.9928 11.5623 85.6231C11.0299 86.2534 10.3766 86.7708 9.64108 87.1446C8.82721 87.5504 7.93053 87.7626 7.02108 87.7646C6.37092 87.7665 5.72513 87.6583 5.11108 87.4446C3.58098 86.8809 2.32904 85.7458 1.6185 84.2781C0.907964 82.8104 0.794184 81.1244 1.30108 79.5746L5.05108 67.7646C4.78518 67.3493 4.6095 66.8828 4.53543 66.3953C4.46135 65.9077 4.49053 65.4101 4.62108 64.9346L5.45108 61.9346C5.60546 61.3769 5.89383 60.8654 6.29108 60.4446L6.51108 59.7446C7.07108 57.9146 7.51108 56.1846 7.97108 54.5246C9.06922 49.835 10.6893 45.2833 12.8011 40.9546C14.5311 37.4946 16.7511 34.2946 23.6411 32.8746C24.4193 31.2839 25.6618 29.9667 27.2045 29.0972C28.7471 28.2277 30.5173 27.8467 32.2811 28.0046C32.8631 28.0851 33.4358 28.2224 33.9911 28.4146C34.4111 28.5546 35.4811 29.0946 35.9211 29.2646C37.5164 29.8762 39.2127 30.1815 40.9211 30.1646C42.6304 30.1704 44.3258 29.8585 45.9211 29.2446C46.2211 29.1446 47.3511 28.5846 47.8611 28.4046C48.2766 28.2528 48.705 28.1391 49.1411 28.0646C50.9632 27.8076 52.82 28.1322 54.4468 28.9923C56.0736 29.8524 57.3875 31.204 58.2011 32.8546C65.0711 34.2846 67.2911 37.4846 69.0211 40.9346C71.1328 45.2633 72.753 49.815 73.8511 54.5046C74.2411 55.9846 74.6511 57.5046 75.1311 59.1246L76.2011 57.6846C75.906 57.2905 75.7124 56.8299 75.6374 56.3433C75.5624 55.8567 75.6083 55.3592 75.7711 54.8946C76.0341 54.1443 76.5841 53.5291 77.3003 53.1841C78.0166 52.8391 78.8405 52.7925 79.5911 53.0546C80.2668 53.2844 80.8384 53.7476 81.2033 54.3609C81.5681 54.9743 81.7024 55.6976 81.582 56.4011C81.4615 57.1045 81.0942 57.742 80.5461 58.199C79.9979 58.656 79.3047 58.9026 78.5911 58.8946C78.3476 58.8951 78.1052 58.8615 77.8711 58.7946L76.2111 61.0046C76.5683 61.3806 76.8712 61.8047 77.1111 62.2646L79.8911 61.4446C79.8898 60.9999 79.9874 60.5604 80.1769 60.1581C80.3663 59.7557 80.6428 59.4005 80.9864 59.1181C81.33 58.8358 81.7321 58.6334 82.1636 58.5255C82.595 58.4177 83.0451 58.4071 83.4811 58.4946C84.2565 58.6516 84.9384 59.1085 85.3785 59.7659C85.8187 60.4233 85.9813 61.2279 85.8311 62.0046C85.6948 62.684 85.3275 63.2954 84.7915 63.7347C84.2556 64.174 83.5841 64.4142 82.8911 64.4146C82.4429 64.4161 82.0001 64.3172 81.5951 64.1251C81.1902 63.933 80.8334 63.6526 80.5511 63.3046L77.7311 64.1346C77.7796 64.4354 77.8031 64.7398 77.8011 65.0446C77.8014 65.3157 77.7813 65.5864 77.7411 65.8546L80.4711 66.7146C80.7451 66.3056 81.1156 65.9703 81.5499 65.7384C81.9841 65.5064 82.4688 65.3849 82.9611 65.3846C83.7567 65.3846 84.5198 65.7006 85.0824 66.2633C85.645 66.8259 85.9611 67.5889 85.9611 68.3846L86.0111 68.4146ZM82.0611 62.0046C82.2077 62.2238 82.435 62.3762 82.6935 62.4286C82.9519 62.4811 83.2206 62.4293 83.4411 62.2846C83.5515 62.2117 83.6464 62.1175 83.7203 62.0077C83.7941 61.8978 83.8453 61.7744 83.8711 61.6446C83.9224 61.3846 83.8685 61.1148 83.7211 60.8946C83.5761 60.6736 83.3496 60.519 83.0911 60.4646H82.8911C82.6951 60.4661 82.5038 60.5252 82.3411 60.6346C82.1246 60.7811 81.9742 61.0064 81.9218 61.2625C81.8695 61.5186 81.9195 61.7849 82.0611 62.0046ZM78.2111 56.8746C78.4617 56.9606 78.7363 56.9436 78.9744 56.8273C79.2125 56.7111 79.3947 56.5051 79.4811 56.2546C79.5615 56.0078 79.5428 55.7394 79.429 55.5061C79.3152 55.2729 79.1151 55.093 78.8711 55.0046C78.7618 54.9863 78.6503 54.9863 78.5411 55.0046C78.3898 55.0046 78.2402 55.0352 78.1011 55.0946C77.8623 55.2095 77.6788 55.4145 77.5911 55.6646C77.5257 55.9059 77.5531 56.1629 77.6679 56.3851C77.7826 56.6072 77.9764 56.7783 78.2111 56.8646V56.8746ZM73.3911 61.3846C72.896 61.1511 72.3582 61.0218 71.8111 61.0046C71.1506 61.0063 70.5008 61.1716 69.9197 61.4857C69.3386 61.7998 68.8444 62.2529 68.4811 62.8046C68.442 62.8448 68.4115 62.8924 68.3911 62.9446C67.9939 63.5615 67.7854 64.2809 67.7911 65.0146C67.7847 65.5415 67.8841 66.0643 68.0833 66.5521C68.2826 67.0399 68.5777 67.4828 68.9511 67.8546C69.1939 68.0945 69.466 68.3029 69.7611 68.4746C70.3668 68.8341 71.0567 69.0273 71.7611 69.0346C72.809 69.0328 73.8144 68.6199 74.5611 67.8846C74.8392 67.6246 75.0813 67.3286 75.2811 67.0046C75.6316 66.397 75.8112 65.7059 75.8011 65.0046C75.7933 64.2313 75.5614 63.4769 75.1337 62.8326C74.706 62.1884 74.1007 61.6819 73.3911 61.3746V61.3846ZM41.3911 32.1946L42.3011 33.1946L45.6911 36.9246L48.5611 34.2746L49.0711 33.8046L47.0711 30.9446C46.7211 31.0946 46.3711 31.2246 46.0111 31.3446C44.5055 31.8578 42.9311 32.1409 41.3411 32.1846L41.3911 32.1946ZM40.9311 34.7646L37.4811 38.4846L40.7411 42.6946L44.1211 38.3346L40.9311 34.7646ZM32.8111 33.8346L33.3011 34.2946L36.1611 36.9546L39.4811 33.2246L39.5711 33.1246L40.4211 32.1846C38.8388 32.1452 37.2714 31.8688 35.7711 31.3646C35.4211 31.2446 35.0711 31.1146 34.7711 30.9746L32.8111 33.8346ZM14.4111 71.4446L6.91108 69.1846L6.76108 69.1346L3.24108 80.1946C2.89428 81.2377 2.96512 82.3746 3.43874 83.3666C3.91235 84.3585 4.7519 85.1284 5.78108 85.5146C6.26111 85.6806 6.76962 85.7485 7.27639 85.7141C7.78316 85.6798 8.27786 85.5439 8.73108 85.3146C9.22187 85.0636 9.65716 84.7165 10.0111 84.2939C10.365 83.8713 10.6302 83.3818 10.7911 82.8546L14.4111 71.4446ZM16.5711 63.8946L9.00108 61.6246C8.85762 61.5793 8.7064 61.5639 8.55675 61.5794C8.40711 61.5949 8.26224 61.6409 8.13108 61.7146C7.98246 61.7983 7.85255 61.9116 7.74936 62.0475C7.64617 62.1834 7.57189 62.3389 7.53108 62.5046L6.70108 65.5046C6.60468 65.8309 6.637 66.1817 6.79139 66.4849C6.94578 66.7881 7.2105 67.0206 7.53108 67.1346L15.1011 69.4046C15.2445 69.4499 15.3958 69.4652 15.5454 69.4498C15.6951 69.4343 15.8399 69.3883 15.9711 69.3146C16.1197 69.2308 16.2496 69.1175 16.3528 68.9816C16.456 68.8458 16.5303 68.6902 16.5711 68.5246L17.4011 65.5246C17.5 65.1983 17.4689 64.8464 17.3142 64.5425C17.1595 64.2387 16.8932 64.0065 16.5711 63.8946ZM22.5711 53.7246C22.8906 53.7534 23.2006 53.8488 23.4811 54.0046C23.8659 53.8858 24.2161 53.6754 24.5018 53.3915C24.7874 53.1076 24.9999 52.7586 25.1211 52.3746V52.2846C21.2811 44.5046 21.6211 38.9046 22.8011 35.1846C21.0132 35.555 19.3428 36.3562 17.9347 37.5185C16.5267 38.6809 15.4235 40.1693 14.7211 41.8546C12.646 46.0475 11.0429 50.4579 9.94108 55.0046C9.58108 56.3846 9.20108 57.8046 8.76108 59.2946L9.13108 59.4046L14.8011 61.0746L18.1411 62.0746L20.3011 54.6946C20.5811 53.7846 21.7011 53.6046 22.5811 53.7246H22.5711ZM24.1011 55.8746V69.0046C26.5211 65.9146 28.2811 60.9246 26.0211 54.6046C25.5157 55.1981 24.8539 55.6381 24.1111 55.8746H24.1011ZM30.4011 49.6246C27.7511 44.2546 27.1511 39.4446 28.7311 36.0846C29.3453 35.0506 30.0129 34.0493 30.7311 33.0846L32.8311 30.0846C32.8311 30.0846 30.8311 29.3946 29.6411 30.2146L30.7011 31.5046L29.8911 32.1646L29.1611 32.7746L28.7111 32.2246L27.7111 31.0746C27.1606 31.462 26.6689 31.9268 26.2511 32.4546C25.8396 32.965 25.4842 33.5181 25.1911 34.1046L26.2511 34.5146L27.2511 34.8946L26.5311 36.7646L24.4811 35.9246C24.1102 37.1113 23.8983 38.3421 23.8511 39.5846L26.3511 39.6346V41.6346L23.9211 41.5846C24.0151 42.8882 24.2294 44.1804 24.5611 45.4446L26.8011 44.7346L27.4111 46.6446L25.1411 47.3546C25.5686 48.6012 26.0729 49.8202 26.6511 51.0046L29.0511 50.2446L29.6511 52.1546L27.4811 52.8446C27.9184 53.8679 28.2729 54.9246 28.5411 56.0046L31.0211 55.6946L31.2811 57.6946L28.9211 57.9946C29.079 59.1441 29.1192 60.3068 29.0411 61.4646L31.5511 62.0346L31.1011 64.0346L28.7811 63.5046C28.5581 64.5994 28.223 65.6684 27.7811 66.6946L30.1011 67.8546L29.2011 69.6446L26.8811 68.4846C26.3914 69.3246 25.8257 70.1179 25.1911 70.8546L26.8611 72.6246L25.4011 73.9946L24.1011 72.6146L23.7911 72.2846C23.2515 72.7622 22.6728 73.1937 22.0611 73.5746C21.9011 73.6746 21.7411 73.7646 21.5811 73.8446L22.0611 74.7646L22.7411 76.0046L22.9711 76.4546L23.4411 77.3446C23.6711 77.2246 23.8911 77.0946 24.1211 76.9546C24.7873 76.5602 25.4225 76.1156 26.0211 75.6246C31.7611 70.9146 36.1011 61.1146 30.4111 49.6246H30.4011ZM43.2811 64.7646L43.1911 49.1046C43.1911 49.1046 37.6411 41.5246 35.5311 39.2146C34.6111 38.2146 31.5311 35.5046 31.5311 35.5046C31.1155 35.9181 30.7769 36.4023 30.5311 36.9346C29.2411 39.6946 29.8411 43.9946 32.1811 48.7346C38.1211 60.7346 33.9611 71.0946 28.0511 76.4846L32.4811 78.4246L43.2811 64.7646ZM53.6211 76.4146C47.7411 71.0046 43.6211 60.6946 49.5611 48.7346C51.9011 43.9946 52.5011 39.7346 51.2111 36.9346C50.9599 36.4114 50.6218 35.9346 50.2111 35.5246C50.2111 35.5246 46.6011 38.6946 45.5111 39.8746C44.4211 41.0546 42.0011 44.3346 42.0011 44.3346L45.1611 48.4146L45.2611 65.4146L42.0011 69.5346L49.0011 78.3846L53.6211 76.4146ZM59.6911 73.5246C59.0794 73.1437 58.5007 72.7122 57.9611 72.2346L57.6511 72.5646L56.3511 73.9446L54.8911 72.5746L56.5611 70.8046C55.9265 70.0679 55.3608 69.2746 54.8711 68.4346L52.5511 69.5946L51.6511 67.8046L53.9711 66.6446C53.5292 65.6184 53.1941 64.5494 52.9711 63.4546L50.6611 64.0046L50.2111 62.0046L52.7211 61.4346C52.6457 60.2901 52.6859 59.141 52.8411 58.0046L50.4811 57.6946L50.7411 55.6946L53.2211 56.0046C53.4883 54.9178 53.8428 53.8543 54.2811 52.8246L52.1111 52.1346L52.7111 50.2246L55.1111 50.9846C55.6893 49.8002 56.1936 48.5812 56.6211 47.3346L54.3511 46.6246L54.9611 44.7146L57.2011 45.4246C57.5328 44.1604 57.747 42.8682 57.8411 41.5646L55.4111 41.6146V39.6146L57.9111 39.5646C57.8589 38.3226 57.6472 37.0925 57.2811 35.9046L55.1911 36.7146L54.4811 34.8646L55.4311 34.4946L56.5311 34.0746C56.2537 33.4989 55.9186 32.9527 55.5311 32.4446C55.0843 31.8873 54.5548 31.4017 53.9611 31.0046L52.9611 32.1746L52.5311 32.7046L51.8211 32.1246L50.9911 31.4346L52.0511 30.1446C51.0627 29.705 49.9448 29.655 48.9211 30.0046L50.9911 33.0046L51.7711 34.1146C52.2318 34.7527 52.6493 35.4209 53.0211 36.1146C54.6011 39.4746 54.0211 44.2846 51.3511 49.6546C45.6911 61.0946 49.9611 70.8546 55.6411 75.5646C56.236 76.0617 56.8679 76.513 57.5311 76.9146L57.6211 76.9646C57.8511 77.1146 58.0911 77.2446 58.3211 77.3646L58.8611 76.3646H58.9111L59.7111 74.8346L60.1911 73.9146C60.0177 73.7546 59.8511 73.6246 59.6911 73.5246ZM55.7511 54.5846C53.4811 60.9246 55.2211 65.9146 57.6511 69.0046V55.9446C56.9051 55.6739 56.2478 55.2035 55.7511 54.5846ZM66.9411 61.1346L67.3711 61.0046C67.928 60.3819 68.6088 59.8823 69.3699 59.5379C70.1311 59.1935 70.9557 59.0119 71.7911 59.0046C72.1677 59.0038 72.5432 59.0441 72.9111 59.1246C72.5011 57.7046 72.1311 56.3446 71.7911 55.0246C70.7209 50.4678 69.148 46.044 67.1011 41.8346C66.3996 40.1505 65.298 38.6628 63.8918 37.5006C62.4855 36.3383 60.8171 35.5365 59.0311 35.1646C60.2011 38.8746 60.5311 44.4746 56.7111 52.2246C56.8093 52.6243 57.001 52.9951 57.2705 53.3063C57.54 53.6175 57.8795 53.8602 58.2611 54.0146C58.5307 53.8458 58.8349 53.7398 59.1511 53.7046C60.0311 53.5846 61.1511 53.7646 61.4111 54.7046L63.5711 62.0746L66.9411 61.1346ZM66.6611 69.4146L67.4511 69.1746C66.7662 68.4552 66.2705 67.5769 66.0087 66.6187C65.7469 65.6605 65.7271 64.6523 65.9511 63.6846L65.1911 63.9146C64.8713 64.0265 64.6067 64.2571 64.4522 64.5586C64.2977 64.8602 64.2651 65.2096 64.3611 65.5346L65.1911 68.5346C65.2319 68.7002 65.3062 68.8558 65.4094 68.9916C65.5126 69.1275 65.6425 69.2408 65.7911 69.3246C65.9222 69.3983 66.0671 69.4443 66.2168 69.4598C66.3664 69.4752 66.5176 69.4599 66.6611 69.4146ZM75.2511 69.9446C74.2371 70.6436 73.0326 71.0137 71.8011 71.0046C71.1439 71.0023 70.4917 70.8908 69.8711 70.6746L67.3711 71.4246L70.9911 82.8346C71.1519 83.3618 71.4172 83.8513 71.7711 84.2739C72.125 84.6965 72.5603 85.0436 73.0511 85.2946C73.5103 85.5331 74.0139 85.674 74.5302 85.7084C75.0465 85.7428 75.5643 85.67 76.0511 85.4946C77.0509 85.0877 77.8585 84.3155 78.3098 83.3349C78.7611 82.3543 78.8223 81.2387 78.4811 80.2146L75.2511 69.9446ZM83.9611 68.4146C83.9611 68.1494 83.8557 67.895 83.6682 67.7075C83.4807 67.5199 83.2263 67.4146 82.9611 67.4146C82.8279 67.4089 82.6951 67.4328 82.5723 67.4847C82.4496 67.5366 82.3398 67.6151 82.2511 67.7146C82.0663 67.9008 81.9622 68.1522 81.9611 68.4146C81.9611 68.6798 82.0664 68.9341 82.254 69.1217C82.4415 69.3092 82.6959 69.4146 82.9611 69.4146C83.2263 69.4146 83.4807 69.3092 83.6682 69.1217C83.8557 68.9341 83.9611 68.6798 83.9611 68.4146Z" fill="black" fill-opacity="0.6"/>
</svg>
