<svg xmlns="http://www.w3.org/2000/svg" fill-rule="evenodd" stroke-linejoin="round" stroke-miterlimit="2" clip-rule="evenodd" viewBox="0 0 646 529"><path fill="none" d="M0 .003h645.604v528.516H0z"/><path fill="url(#_Linear1)" fill-rule="nonzero" d="M.581.169L.498.186C.063.274.015.314 0 .353v-.369a.051.051 0 01.013-.022.064.064 0 01.013-.01l.017-.011.005-.003.023-.01.024-.01.025-.009.024-.008.025-.007H.17c.05-.015.111-.03.186-.047l.145-.031c.393-.08.478-.119.498-.165L1-.353v.371C.99.064.878.105.581.169z" transform="matrix(0 -400.46736 -400.46736 0 390.16 415.06)"/><path fill="url(#_Linear2)" fill-rule="nonzero" d="M1 .027C.989.068.858.103.498.162a4.545 4.545 0 00-.342.065C.131.233.109.238.092.244A.071.071 0 010 .176V.067C0 .014.035-.034.086-.05a4.59 4.59 0 01.398-.081l.017-.003C.899-.199.982-.231 1-.268v.295z" transform="matrix(0 -499.33686 -499.33686 0 128.32 513.93)"/><path fill="url(#_Linear3)" fill-rule="nonzero" d="M.86-.414l.049-.019c.594.011.838.054.874.147-.017.096-.108.209-1.057.612l-.18.077C-.147.397-.444.418-.477.254-.447.136-.231 0 .86-.414z" transform="scale(172.43455 -172.43455) rotate(-78.494 .315 -1.139)"/><path fill="url(#_Linear4)" fill-rule="nonzero" d="M-.164.121c.013-.057.102-.12.531-.298l.042-.018.033-.014.026-.011.031-.013a.244.244 0 01.024-.01l.004-.001c.088-.003.167-.005.237-.005h.005a3 3 0 01.332.009c.083.008.151.07.167.152l.025.131a.113.113 0 01-.122.135A5.497 5.497 0 00.584.176C.068.192-.145.223-.164.125V.121zm.689-.365l-.002.001.002-.001z" transform="scale(345.37778 -345.37778) rotate(-78.989 .586 -.991)"/><g opacity=".75"><path fill="#e6e6e6" fill-rule="nonzero" d="M216.365 263.64C244.726 90.112 260.18 36.773 276.238 19.908c-3.344-2.918-7.022-4.62-11.187-5.122-1.725-.208-3.494.16-4.958 1.097-17.928 11.477-33.522 56.992-64.695 247.757l-1.45 8.81c4.306 19.358 8.365 36.435 12.236 51.45a4937.414 4937.414 0 008.736-51.45c.479-2.91.957-5.843 1.445-8.81M484.684 214.327c28.138-138.093 43.578-181.28 59.5-195.148-3.77-3.06-7.992-4.548-12.834-4.548a3.88 3.88 0 00-1.532.315c-18.547 8.021-34.116 42.316-66.111 199.39-1.078 5.31-2.146 10.491-3.2 15.56-.685 3.296-1.357 6.519-2.029 9.713-.164.773-.323 1.542-.483 2.305-.686 3.228-1.367 6.422-2.034 9.549-.831 3.88-1.653 7.664-2.47 11.39-.652 2.976-1.3 5.929-1.937 8.809a3.809 3.809 0 00-.044 1.479 5134.946 5134.946 0 008.582 50.618c3.885-14.985 7.954-32.043 12.26-51.372 3.9-17.479 7.997-36.779 12.332-58.06"/></g><path fill="#cdcdcd" d="M109.268 416.36h47.84c-.724 3.3-1.444 6.51-2.16 9.627h-47.835c.71-3.093 1.426-6.302 2.155-9.626zm24.139-19.614h27.868c-.672 3.28-1.344 6.495-2.006 9.626H131.4c.658-3.107 1.329-6.33 2.006-9.626zm3.919-19.614h27.868a1863.51 1863.51 0 01-1.895 9.63H135.43c.624-3.135 1.257-6.344 1.895-9.63zm3.74-19.614h27.858c-.61 3.27-1.213 6.475-1.812 9.63h-27.858c.594-3.136 1.198-6.354 1.812-9.63zm-16.383-19.616h47.822c-.585 3.262-1.165 6.467-1.745 9.627h-47.826c.58-3.15 1.16-6.35 1.75-9.627zm23.443-19.614h27.848c-.57 3.262-1.13 6.456-1.696 9.631h-27.84c.557-3.156 1.123-6.369 1.688-9.63zm3.373-19.614h27.839c-.551 3.252-1.102 6.461-1.643 9.631H149.85c.546-3.166 1.097-6.369 1.648-9.63zm3.29-19.615h27.84c-.537 3.248-1.078 6.456-1.61 9.626h-27.834c.527-3.16 1.063-6.369 1.605-9.626zm-17.666-14.004c.304-1.889.613-3.745.918-5.605h47.81c-.222 1.396-.45 2.774-.681 4.19-.3 1.826-.594 3.63-.894 5.436H136.46c.217-1.344.435-2.663.662-4.02zm24.142-25.219h27.844c-.532 3.16-1.068 6.373-1.61 9.626h-27.838c.536-3.248 1.072-6.46 1.604-9.626zm3.315-19.615h27.844c-.537 3.151-1.088 6.37-1.638 9.626h-27.844a5700.39 5700.39 0 011.638-9.626zm3.402-19.614h27.848c-.555 3.155-1.116 6.364-1.681 9.626h-27.85c.567-3.262 1.127-6.46 1.683-9.626zm-16.473-19.614h47.82c-.565 3.145-1.145 6.36-1.73 9.626h-47.82c.584-3.262 1.154-6.47 1.73-9.626zm23.6-19.615h27.854c-.59 3.136-1.194 6.36-1.798 9.626h-27.848c.604-3.266 1.203-6.48 1.793-9.626zm3.794-19.614h27.853c-.618 3.126-1.251 6.35-1.884 9.626h-27.85c.634-3.281 1.258-6.485 1.88-9.626zm4-19.614h27.854c-.657 3.12-1.32 6.325-1.995 9.626h-27.854c.672-3.286 1.334-6.495 1.996-9.626zm-15.69-19.615h47.83a998.396 998.396 0 00-2.145 9.626h-47.83c.725-3.305 1.44-6.51 2.146-9.626zm24.674-19.61h27.859a688.443 688.443 0 00-2.368 9.622h-27.86a777.483 777.483 0 012.369-9.621zm5.335-19.618h27.892a409.343 409.343 0 00-2.74 9.626h-27.872a494.81 494.81 0 012.72-9.626zm6.495-19.615h27.993a224.933 224.933 0 00-3.46 9.626h-27.921a235.04 235.04 0 013.388-9.626zm-10.467-19.61h48.376c-1.851 2.596-3.716 5.766-5.596 9.622h-48.096c1.779-3.79 3.547-6.992 5.316-9.621zM373.88 403.021c1.28-1.914 2.59-4.098 3.942-6.659h27.81c-1.986 3.798-3.948 6.997-5.9 9.626h-27.969c.696-.889 1.401-1.899 2.116-2.967zm12.433-26.274h27.81a223.198 223.198 0 01-3.813 9.631h-27.795a218.996 218.996 0 003.798-9.63zm6.567-19.614h27.848a417.851 417.851 0 01-3.087 9.631h-27.834a433.861 433.861 0 003.073-9.63zm-14.289-19.614h47.835c-.86 3.131-2.658 9.447-2.71 9.626h-47.83a768.037 768.037 0 002.705-9.626zm25.123-19.615h27.868a910.993 910.993 0 01-2.479 9.631H401.24c.807-3.097 1.633-6.306 2.474-9.63zm4.798-19.614h27.86c-.778 3.286-1.552 6.5-2.31 9.631h-27.869c.763-3.122 1.537-6.321 2.32-9.631zm4.538-19.614h27.854c-.734 3.276-1.473 6.49-2.194 9.626H410.85c.72-3.127 1.46-6.335 2.2-9.626zm-15.628-19.61h47.817c-.706 3.267-1.406 6.476-2.102 9.626H395.31a3372.79 3372.79 0 002.111-9.626zm24.167-19.614h27.84c-.687 3.262-1.368 6.466-2.04 9.626h-27.84c.672-3.156 1.35-6.35 2.04-9.626zm4.064-19.614h27.844c-.667 3.257-1.33 6.46-1.986 9.626h-27.844c.657-3.151 1.32-6.365 1.986-9.626zm4.02-19.615h27.84c-.652 3.146-1.314 6.364-1.976 9.626h-27.845c.667-3.262 1.324-6.465 1.981-9.626zm-15.869-19.614h47.826c-.667 3.146-1.348 6.359-2.034 9.626h-47.817a3446.97 3446.97 0 012.025-9.626zm24.215-19.614h27.849c-.686 3.14-1.392 6.354-2.102 9.626h-27.844c.706-3.267 1.402-6.476 2.097-9.626zm4.403-19.615h27.853a1342.34 1342.34 0 00-2.184 9.626h-27.854c.735-3.276 1.465-6.485 2.185-9.626zm4.624-19.614H474.9c-.76 3.117-1.527 6.325-2.305 9.626h-27.85c.774-3.286 1.538-6.495 2.3-9.626zm-15.063-19.615h47.83c-.806 3.102-1.627 6.307-2.46 9.627h-47.82c.826-3.301 1.643-6.515 2.45-9.627zm25.327-19.61h27.849a855.94 855.94 0 00-2.692 9.621h-27.85a750.272 750.272 0 012.693-9.62zm6.026-19.619h27.873c-1.01 3.02-2.04 6.234-3.083 9.626h-27.854a460.151 460.151 0 013.064-9.626zm7.292-19.614h27.926a216.899 216.899 0 00-3.832 9.626H466.83a214.77 214.77 0 013.798-9.626zm-9.394-19.61h48.284c-2.04 2.576-4.093 5.741-6.185 9.621h-48.014c1.977-3.803 3.953-6.997 5.915-9.62z"/><defs><linearGradient id="_Linear1" x1="0" x2="1" y1="0" y2="0" gradientTransform="matrix(1 0 0 -1 0 0)" gradientUnits="userSpaceOnUse"><stop offset="0" stop-color="#e6e6e6"/><stop offset="1" stop-color="#fafafa"/></linearGradient><linearGradient id="_Linear2" x1="0" x2="1" y1="0" y2="0" gradientTransform="matrix(1 0 0 -1 0 -.01)" gradientUnits="userSpaceOnUse"><stop offset="0" stop-color="#e6e6e6"/><stop offset="1" stop-color="#fafafa"/></linearGradient><linearGradient id="_Linear3" x1="0" x2="1" y1="0" y2="0" gradientTransform="matrix(1 0 0 -1 0 -.015)" gradientUnits="userSpaceOnUse"><stop offset="0" stop-color="#e6e6e6"/><stop offset="1" stop-color="#fafafa"/></linearGradient><linearGradient id="_Linear4" x1="0" x2="1" y1="0" y2="0" gradientTransform="matrix(1 0 0 -1 0 -.028)" gradientUnits="userSpaceOnUse"><stop offset="0" stop-color="#e6e6e6"/><stop offset="1" stop-color="#fafafa"/></linearGradient></defs></svg>