<svg xmlns="http://www.w3.org/2000/svg" fill-rule="evenodd" stroke-linejoin="round" stroke-miterlimit="2" clip-rule="evenodd" viewBox="0 0 24 24" xml:space="preserve"><path fill="none" d="M-24 0h240v240H-24z"/><path fill-rule="nonzero" d="M-4.917 3.813c-.632.274-1.162 1.442-2.253 6.795-.036.181-.073.358-.109.53l-.085.41-.07.325a49.651 49.651 0 0 1-.15.688.125.125 0 0 0-.001.051c.169 1.027.327 1.942.477 2.755l.009.05c.316 1.711.594 2.959.854 3.822a2.22 2.22 0 0 0 2.126 1.578h1.577c.896 0 1.539-.861 1.288-1.72-.358-1.225-.775-3.286-1.344-6.767-.982-6.003-1.103-8.527-2.267-8.527a.134.134 0 0 0-.052.01zm-2.67 8.774z"/><g fill="none" stroke="currentColor"><path d="M12.064 9.52c-.076.356-.154.731-.235 1.126-1.208 5.937-1.748 6.593-2.282 6.802h5.033a.605.605 0 0 0 .3-.181c.053-.053.098-.112.138-.175l.189-.305c.047-.091.095-.192.143-.303 0 0 .09-.211.134-.328l.118-.341h.001l.105-.328.108-.359c.196-.676.405-1.515.634-2.542.133-.595.272-1.253.42-1.978 1.092-5.36 1.623-6.524 2.256-6.796l.054-.009-5.06-.002c-.636.134-1.194 1.659-2.056 5.719z"/><path stroke-linecap="round" stroke-miterlimit="1.5" d="M16.5 5.803h-1m.472 2h-.5m.058 2h-.5m.085 2h-.5m.046 2h-1m.441 2h-.5"/><path d="M4.976 3.801c-.691.182-1.291 2.415-2.29 8.535-.448 2.744-.804 4.583-1.102 5.825a19.75 19.75 0 0 1-.292 1.094 1.21 1.21 0 0 0 1.156 1.562H4.3a2.09 2.09 0 0 0 1.992-1.46c.105-.335.213-.732.325-1.196.312-1.295.655-3.114 1.06-5.573l.049-.3c1.108-6.776 1.638-8.174 2.283-8.487H4.976z"/><path stroke-linecap="round" stroke-miterlimit="1.5" d="M7.5 5.803h-1m.533 2h-.5m.121 2h-.5m.157 2h-.5m.166 2h-1m.641 2h-.5m.087 2h-.5"/><path d="m7.726 12.288-.049.3c.758 3.407 1.292 4.763 1.87 4.86.534-.209 1.074-.865 2.282-6.802.081-.395.159-.77.235-1.126-.849-3.985-1.075-5.717-2.057-5.717-.644.314-1.174 1.716-2.281 8.485zm11.396-8.475c-.632.274-1.162 1.442-2.252 6.795l-.109.53-.086.41a44.29 44.29 0 0 1-.153.713l-.067.3a.146.146 0 0 0-.001.051c.169 1.027.328 1.942.477 2.755l.01.05c.316 1.711.593 2.959.853 3.822a2.222 2.222 0 0 0 2.127 1.578h1.576c.896 0 1.54-.861 1.288-1.72-.358-1.225-.775-3.286-1.344-6.767-.982-6.003-1.102-8.527-2.266-8.527a.139.139 0 0 0-.053.01zm-2.67 8.774.003-.026-.003.026z"/></g></svg>