<svg xmlns="http://www.w3.org/2000/svg" fill-rule="evenodd" stroke-linejoin="round" stroke-miterlimit="2" clip-rule="evenodd" viewBox="0 0 24 24" xml:space="preserve"><path fill="none" d="M0 0h240v240H0z"/><g fill-rule="nonzero"><path d="M12.024 9.52c-.075.356-.153.731-.234 1.126-1.209 5.937-1.749 6.593-2.282 6.802h5.032a.611.611 0 0 0 .301-.181c.052-.053.098-.112.138-.175l.189-.305c.047-.091.095-.192.142-.303 0 0 .091-.211.134-.328 0 0 .078-.22.119-.341h.001l.105-.328.108-.359c.196-.676.405-1.515.633-2.542.133-.595.273-1.253.42-1.978 1.093-5.36 1.623-6.524 2.257-6.796l.053-.009-5.059-.002c-.636.134-1.194 1.659-2.057 5.719zm1.745 7.518c.044-.065.089-.14.135-.227h.947a2.414 2.414 0 0 1-.201.328h-.953c.024-.03.048-.065.072-.101zm.424-.896h.948a7.837 7.837 0 0 1-.13.329h-.947c.042-.099.085-.208.129-.329zm.224-.668h.949c-.035.115-.071.224-.105.328h-.949c.034-.103.069-.212.105-.328zm-.487-.668h1.63l-.092.328h-1.63l.092-.328zm.856-.669h.95l-.085.328h-.949l.084-.328zm.163-.668h.95l-.079.328h-.95c.026-.106.053-.215.079-.328zm.155-.669h.949l-.074.329h-.95l.075-.329zm-.532-.668h1.629a35.06 35.06 0 0 1-.072.328H14.5l.072-.328zm.823-.668h.949l-.07.328h-.948l.069-.328zm.139-.669h.948l-.067.328h-.949l.068-.328zm.137-.668h.948l-.067.328h-.949l.068-.328zm-.541-.668h1.63l-.07.328h-1.629l.069-.328zm.825-.669h.949l-.072.328h-.949l.072-.328zm.15-.668h.949l-.074.328h-.949l.074-.328zm.158-.668h.949l-.079.328h-.949l.079-.328zm-.514-.669h1.63l-.084.328h-1.629l.083-.328zm.863-.668h.949c-.03.104-.06.214-.091.328h-.949l.091-.328zm.206-.669h.949l-.105.328h-.949c.035-.114.07-.224.105-.328zm.248-.668h.952a8 8 0 0 0-.131.328h-.95c.043-.118.086-.227.129-.328zm-.32-.668h1.645a2.23 2.23 0 0 0-.21.328h-1.637c.068-.13.135-.239.202-.328zM4.937 3.801c-.692.182-1.291 2.415-2.29 8.535-.448 2.744-.804 4.583-1.103 5.825-.104.433-.2.793-.292 1.094a1.21 1.21 0 0 0 1.157 1.562H4.26c.912 0 1.718-.591 1.992-1.46.105-.335.213-.732.325-1.196.312-1.295.656-3.114 1.061-5.573l.049-.3C8.794 5.512 9.325 4.114 9.97 3.801H4.937zm-.185 13.691h1.631l-.074.328h-1.63l.073-.328zm.823-.668h.95l-.069.328h-.949l.068-.328zm.133-.668h.95l-.064.328h-.95l.064-.328zm.128-.669h.949l-.062.328h-.949l.062-.328zm-.558-.668h1.629l-.059.328h-1.63l.06-.328zm.798-.669h.949l-.057.329h-.949l.057-.329zm.115-.668h.949l-.056.328h-.949l.056-.328zm.113-.668h.948l-.055.328h-.948l.055-.328zm-.602-.478.031-.191h1.629l-.054.328H5.679l.023-.137zm.822-.859h.949l-.055.328H6.47l.054-.328zm.113-.668h.949l-.056.328h-.949l.056-.328zm.116-.669h.949l-.057.328h-.949l.057-.328zm-.561-.668h1.629l-.059.328H6.133l.059-.328zm.804-.669h.949l-.061.328h-.949l.061-.328zm.129-.668h.949l-.064.328h-.949l.064-.328zm.137-.668h.949c-.023.106-.045.215-.068.328h-.949c.022-.112.045-.222.068-.328zm-.535-.669h1.63c-.024.106-.049.215-.073.328h-1.63l.073-.328zm.841-.668h.949c-.027.104-.054.214-.081.328h-.949c.027-.113.054-.223.081-.328zm.181-.669H8.7c-.031.104-.062.213-.093.328h-.95l.092-.328zm.222-.668h.954c-.039.1-.078.209-.118.328h-.952c.039-.117.078-.227.116-.328zm-.357-.668h1.649a2.248 2.248 0 0 0-.191.328H7.433c.061-.129.121-.239.181-.328z"/><path d="m7.687 12.288-.049.3c.758 3.407 1.292 4.763 1.87 4.86.533-.209 1.073-.865 2.282-6.802.081-.395.159-.77.234-1.126-.848-3.985-1.074-5.717-2.056-5.717-.644.314-1.175 1.716-2.281 8.485zm11.396-8.475c-.632.274-1.162 1.442-2.253 6.795-.036.181-.073.358-.109.53l-.085.41-.07.325a49.651 49.651 0 0 1-.15.688.125.125 0 0 0-.001.051c.169 1.027.327 1.942.477 2.755l.009.05c.316 1.711.594 2.959.854 3.822a2.22 2.22 0 0 0 2.126 1.578h1.577c.896 0 1.539-.861 1.288-1.72-.358-1.225-.775-3.286-1.344-6.767-.982-6.003-1.103-8.527-2.267-8.527a.134.134 0 0 0-.052.01zm-2.67 8.774z"/></g><path fill="none" stroke="currentColor" d="M28.976 3.801c-.691.182-1.291 2.415-2.29 8.535-.448 2.744-.804 4.583-1.102 5.825a19.75 19.75 0 0 1-.292 1.094 1.21 1.21 0 0 0 1.156 1.562H28.3a2.09 2.09 0 0 0 1.992-1.46c.105-.335.213-.732.325-1.196.312-1.295.655-3.114 1.06-5.573l.049-.3c1.108-6.776 1.638-8.174 2.283-8.487h-5.033z"/></svg>